<?xml version="1.0" encoding="UTF-8" standalone="no"?>
<!DOCTYPE svg PUBLIC "-//W3C//DTD SVG 1.1//EN"
 "http://www.w3.org/Graphics/SVG/1.1/DTD/svg11.dtd">
<!-- Generated by graphviz version 2.26.3 (20100126.1600)
 -->
<!-- Title: controllers_diagram Pages: 1 -->
<svg width="762pt" height="749pt"
 viewBox="0.00 0.00 762.00 749.00" xmlns="http://www.w3.org/2000/svg" xmlns:xlink="http://www.w3.org/1999/xlink">
<g id="graph1" class="graph" transform="scale(1 1) rotate(0) translate(4 745)">
<title>controllers_diagram</title>
<polygon fill="white" stroke="white" points="-4,5 -4,-745 759,-745 759,5 -4,5"/>
<!-- _diagram_info -->
<g id="node1" class="node"><title>_diagram_info</title>
<text text-anchor="start" x="469" y="-538.3" font-family="Times Roman,serif" font-size="13.00">Controllers diagram</text>
<text text-anchor="start" x="469" y="-521.3" font-family="Times Roman,serif" font-size="13.00">Date: Apr 08 2015 &#45; 18:17</text>
<text text-anchor="start" x="469" y="-504.3" font-family="Times Roman,serif" font-size="13.00">Migration version: 20150405232100</text>
<text text-anchor="start" x="469" y="-487.3" font-family="Times Roman,serif" font-size="13.00">Generated by RailRoady 1.3.0</text>
<text text-anchor="start" x="469" y="-470.3" font-family="Times Roman,serif" font-size="13.00">http://railroady.prestonlee.com</text>
</g>
<!-- PasswordResetsController -->
<g id="node2" class="node"><title>PasswordResetsController</title>
<polyline fill="none" stroke="black" points="213,-161.5 385,-161.5 "/>
<path fill="none" stroke="black" d="M385,-161.5C391,-161.5 397,-167.5 397,-173.5"/>
<polyline fill="none" stroke="black" points="397,-173.5 397,-395.5 "/>
<path fill="none" stroke="black" d="M397,-395.5C397,-401.5 391,-407.5 385,-407.5"/>
<polyline fill="none" stroke="black" points="385,-407.5 213,-407.5 "/>
<path fill="none" stroke="black" d="M213,-407.5C207,-407.5 201,-401.5 201,-395.5"/>
<polyline fill="none" stroke="black" points="201,-395.5 201,-173.5 "/>
<path fill="none" stroke="black" d="M201,-173.5C201,-167.5 207,-161.5 213,-161.5"/>
<text text-anchor="middle" x="299" y="-390.9" font-family="Times Roman,serif" font-size="14.00">PasswordResetsController</text>
<polyline fill="none" stroke="black" points="201,-381.5 397,-381.5 "/>
<text text-anchor="start" x="209" y="-364.9" font-family="Times Roman,serif" font-size="14.00">create</text>
<text text-anchor="start" x="209" y="-346.9" font-family="Times Roman,serif" font-size="14.00">edit</text>
<text text-anchor="start" x="209" y="-328.9" font-family="Times Roman,serif" font-size="14.00">new</text>
<text text-anchor="start" x="209" y="-310.9" font-family="Times Roman,serif" font-size="14.00">update</text>
<polyline fill="none" stroke="black" points="201,-301.5 397,-301.5 "/>
<polyline fill="none" stroke="black" points="201,-277.5 397,-277.5 "/>
<text text-anchor="start" x="209" y="-260.9" font-family="Times Roman,serif" font-size="14.00">_layout</text>
<text text-anchor="start" x="209" y="-242.9" font-family="Times Roman,serif" font-size="14.00">both_passwords_blank?</text>
<text text-anchor="start" x="209" y="-224.9" font-family="Times Roman,serif" font-size="14.00">check_expiration</text>
<text text-anchor="start" x="209" y="-206.9" font-family="Times Roman,serif" font-size="14.00">get_user</text>
<text text-anchor="start" x="209" y="-188.9" font-family="Times Roman,serif" font-size="14.00">user_params</text>
<text text-anchor="start" x="209" y="-170.9" font-family="Times Roman,serif" font-size="14.00">valid_user</text>
</g>
<!-- ArticlesController -->
<g id="node3" class="node"><title>ArticlesController</title>
<polyline fill="none" stroke="black" points="33,-161.5 146,-161.5 "/>
<path fill="none" stroke="black" d="M146,-161.5C152,-161.5 158,-167.5 158,-173.5"/>
<polyline fill="none" stroke="black" points="158,-173.5 158,-287.5 "/>
<path fill="none" stroke="black" d="M158,-287.5C158,-293.5 152,-299.5 146,-299.5"/>
<polyline fill="none" stroke="black" points="146,-299.5 33,-299.5 "/>
<path fill="none" stroke="black" d="M33,-299.5C27,-299.5 21,-293.5 21,-287.5"/>
<polyline fill="none" stroke="black" points="21,-287.5 21,-173.5 "/>
<path fill="none" stroke="black" d="M21,-173.5C21,-167.5 27,-161.5 33,-161.5"/>
<text text-anchor="middle" x="89.5" y="-282.9" font-family="Times Roman,serif" font-size="14.00">ArticlesController</text>
<polyline fill="none" stroke="black" points="21,-273.5 158,-273.5 "/>
<text text-anchor="start" x="29" y="-256.9" font-family="Times Roman,serif" font-size="14.00">edit</text>
<text text-anchor="start" x="29" y="-238.9" font-family="Times Roman,serif" font-size="14.00">update</text>
<polyline fill="none" stroke="black" points="21,-229.5 158,-229.5 "/>
<polyline fill="none" stroke="black" points="21,-205.5 158,-205.5 "/>
<text text-anchor="start" x="29" y="-188.9" font-family="Times Roman,serif" font-size="14.00">_layout</text>
<text text-anchor="start" x="29" y="-170.9" font-family="Times Roman,serif" font-size="14.00">article_params</text>
</g>
<!-- UsersController -->
<g id="node4" class="node"><title>UsersController</title>
<polyline fill="none" stroke="black" points="453,-161.5 577,-161.5 "/>
<path fill="none" stroke="black" d="M577,-161.5C583,-161.5 589,-167.5 589,-173.5"/>
<polyline fill="none" stroke="black" points="589,-173.5 589,-413.5 "/>
<path fill="none" stroke="black" d="M589,-413.5C589,-419.5 583,-425.5 577,-425.5"/>
<polyline fill="none" stroke="black" points="577,-425.5 453,-425.5 "/>
<path fill="none" stroke="black" d="M453,-425.5C447,-425.5 441,-419.5 441,-413.5"/>
<polyline fill="none" stroke="black" points="441,-413.5 441,-173.5 "/>
<path fill="none" stroke="black" d="M441,-173.5C441,-167.5 447,-161.5 453,-161.5"/>
<text text-anchor="middle" x="515" y="-408.9" font-family="Times Roman,serif" font-size="14.00">UsersController</text>
<polyline fill="none" stroke="black" points="441,-399.5 589,-399.5 "/>
<text text-anchor="start" x="449" y="-382.9" font-family="Times Roman,serif" font-size="14.00">create</text>
<text text-anchor="start" x="449" y="-364.9" font-family="Times Roman,serif" font-size="14.00">destroy</text>
<text text-anchor="start" x="449" y="-346.9" font-family="Times Roman,serif" font-size="14.00">edit</text>
<text text-anchor="start" x="449" y="-328.9" font-family="Times Roman,serif" font-size="14.00">index</text>
<text text-anchor="start" x="449" y="-310.9" font-family="Times Roman,serif" font-size="14.00">new</text>
<text text-anchor="start" x="449" y="-292.9" font-family="Times Roman,serif" font-size="14.00">show</text>
<text text-anchor="start" x="449" y="-274.9" font-family="Times Roman,serif" font-size="14.00">show_registrations</text>
<text text-anchor="start" x="449" y="-256.9" font-family="Times Roman,serif" font-size="14.00">update</text>
<polyline fill="none" stroke="black" points="441,-247.5 589,-247.5 "/>
<polyline fill="none" stroke="black" points="441,-223.5 589,-223.5 "/>
<text text-anchor="start" x="449" y="-206.9" font-family="Times Roman,serif" font-size="14.00">_layout</text>
<text text-anchor="start" x="449" y="-188.9" font-family="Times Roman,serif" font-size="14.00">correct_user</text>
<text text-anchor="start" x="449" y="-170.9" font-family="Times Roman,serif" font-size="14.00">user_params</text>
</g>
<!-- SessionsController -->
<g id="node5" class="node"><title>SessionsController</title>
<polyline fill="none" stroke="black" points="93,-521.5 213,-521.5 "/>
<path fill="none" stroke="black" d="M213,-521.5C219,-521.5 225,-527.5 225,-533.5"/>
<polyline fill="none" stroke="black" points="225,-533.5 225,-647.5 "/>
<path fill="none" stroke="black" d="M225,-647.5C225,-653.5 219,-659.5 213,-659.5"/>
<polyline fill="none" stroke="black" points="213,-659.5 93,-659.5 "/>
<path fill="none" stroke="black" d="M93,-659.5C87,-659.5 81,-653.5 81,-647.5"/>
<polyline fill="none" stroke="black" points="81,-647.5 81,-533.5 "/>
<path fill="none" stroke="black" d="M81,-533.5C81,-527.5 87,-521.5 93,-521.5"/>
<text text-anchor="middle" x="153" y="-642.9" font-family="Times Roman,serif" font-size="14.00">SessionsController</text>
<polyline fill="none" stroke="black" points="81,-633.5 225,-633.5 "/>
<text text-anchor="start" x="89" y="-616.9" font-family="Times Roman,serif" font-size="14.00">create</text>
<text text-anchor="start" x="89" y="-598.9" font-family="Times Roman,serif" font-size="14.00">destroy</text>
<text text-anchor="start" x="89" y="-580.9" font-family="Times Roman,serif" font-size="14.00">new</text>
<polyline fill="none" stroke="black" points="81,-571.5 225,-571.5 "/>
<polyline fill="none" stroke="black" points="81,-547.5 225,-547.5 "/>
<text text-anchor="start" x="89" y="-530.9" font-family="Times Roman,serif" font-size="14.00">_layout</text>
</g>
<!-- TimeSlotsController -->
<g id="node6" class="node"><title>TimeSlotsController</title>
<polyline fill="none" stroke="black" points="613,-601.5 741,-601.5 "/>
<path fill="none" stroke="black" d="M741,-601.5C747,-601.5 753,-607.5 753,-613.5"/>
<polyline fill="none" stroke="black" points="753,-613.5 753,-727.5 "/>
<path fill="none" stroke="black" d="M753,-727.5C753,-733.5 747,-739.5 741,-739.5"/>
<polyline fill="none" stroke="black" points="741,-739.5 613,-739.5 "/>
<path fill="none" stroke="black" d="M613,-739.5C607,-739.5 601,-733.5 601,-727.5"/>
<polyline fill="none" stroke="black" points="601,-727.5 601,-613.5 "/>
<path fill="none" stroke="black" d="M601,-613.5C601,-607.5 607,-601.5 613,-601.5"/>
<text text-anchor="middle" x="677" y="-722.9" font-family="Times Roman,serif" font-size="14.00">TimeSlotsController</text>
<polyline fill="none" stroke="black" points="601,-713.5 753,-713.5 "/>
<text text-anchor="start" x="609" y="-696.9" font-family="Times Roman,serif" font-size="14.00">create</text>
<text text-anchor="start" x="609" y="-678.9" font-family="Times Roman,serif" font-size="14.00">destroy</text>
<polyline fill="none" stroke="black" points="601,-669.5 753,-669.5 "/>
<polyline fill="none" stroke="black" points="601,-645.5 753,-645.5 "/>
<text text-anchor="start" x="609" y="-628.9" font-family="Times Roman,serif" font-size="14.00">_layout</text>
<text text-anchor="start" x="609" y="-610.9" font-family="Times Roman,serif" font-size="14.00">time_slot_params</text>
</g>
<!-- StaticPagesController -->
<g id="node7" class="node"><title>StaticPagesController</title>
<polyline fill="none" stroke="black" points="573,-1.5 714,-1.5 "/>
<path fill="none" stroke="black" d="M714,-1.5C720,-1.5 726,-7.5 726,-13.5"/>
<polyline fill="none" stroke="black" points="726,-13.5 726,-109.5 "/>
<path fill="none" stroke="black" d="M726,-109.5C726,-115.5 720,-121.5 714,-121.5"/>
<polyline fill="none" stroke="black" points="714,-121.5 573,-121.5 "/>
<path fill="none" stroke="black" d="M573,-121.5C567,-121.5 561,-115.5 561,-109.5"/>
<polyline fill="none" stroke="black" points="561,-109.5 561,-13.5 "/>
<path fill="none" stroke="black" d="M561,-13.5C561,-7.5 567,-1.5 573,-1.5"/>
<text text-anchor="middle" x="643.5" y="-104.9" font-family="Times Roman,serif" font-size="14.00">StaticPagesController</text>
<polyline fill="none" stroke="black" points="561,-95.5 726,-95.5 "/>
<text text-anchor="start" x="569" y="-78.9" font-family="Times Roman,serif" font-size="14.00">calendar</text>
<text text-anchor="start" x="569" y="-60.9" font-family="Times Roman,serif" font-size="14.00">home</text>
<polyline fill="none" stroke="black" points="561,-51.5 726,-51.5 "/>
<polyline fill="none" stroke="black" points="561,-27.5 726,-27.5 "/>
<text text-anchor="start" x="569" y="-10.9" font-family="Times Roman,serif" font-size="14.00">_layout</text>
</g>
<!-- EventsController -->
<g id="node8" class="node"><title>EventsController</title>
<polyline fill="none" stroke="black" points="273,-441.5 382,-441.5 "/>
<path fill="none" stroke="black" d="M382,-441.5C388,-441.5 394,-447.5 394,-453.5"/>
<polyline fill="none" stroke="black" points="394,-453.5 394,-711.5 "/>
<path fill="none" stroke="black" d="M394,-711.5C394,-717.5 388,-723.5 382,-723.5"/>
<polyline fill="none" stroke="black" points="382,-723.5 273,-723.5 "/>
<path fill="none" stroke="black" d="M273,-723.5C267,-723.5 261,-717.5 261,-711.5"/>
<polyline fill="none" stroke="black" points="261,-711.5 261,-453.5 "/>
<path fill="none" stroke="black" d="M261,-453.5C261,-447.5 267,-441.5 273,-441.5"/>
<text text-anchor="middle" x="327.5" y="-706.9" font-family="Times Roman,serif" font-size="14.00">EventsController</text>
<polyline fill="none" stroke="black" points="261,-697.5 394,-697.5 "/>
<text text-anchor="start" x="269" y="-680.9" font-family="Times Roman,serif" font-size="14.00">add_time_slot</text>
<text text-anchor="start" x="269" y="-662.9" font-family="Times Roman,serif" font-size="14.00">create</text>
<text text-anchor="start" x="269" y="-644.9" font-family="Times Roman,serif" font-size="14.00">destroy</text>
<text text-anchor="start" x="269" y="-626.9" font-family="Times Roman,serif" font-size="14.00">edit</text>
<text text-anchor="start" x="269" y="-608.9" font-family="Times Roman,serif" font-size="14.00">index</text>
<text text-anchor="start" x="269" y="-590.9" font-family="Times Roman,serif" font-size="14.00">new</text>
<text text-anchor="start" x="269" y="-572.9" font-family="Times Roman,serif" font-size="14.00">register</text>
<text text-anchor="start" x="269" y="-554.9" font-family="Times Roman,serif" font-size="14.00">show</text>
<text text-anchor="start" x="269" y="-536.9" font-family="Times Roman,serif" font-size="14.00">show_roster</text>
<text text-anchor="start" x="269" y="-518.9" font-family="Times Roman,serif" font-size="14.00">update</text>
<polyline fill="none" stroke="black" points="261,-509.5 394,-509.5 "/>
<polyline fill="none" stroke="black" points="261,-485.5 394,-485.5 "/>
<text text-anchor="start" x="269" y="-468.9" font-family="Times Roman,serif" font-size="14.00">_layout</text>
<text text-anchor="start" x="269" y="-450.9" font-family="Times Roman,serif" font-size="14.00">event_params</text>
</g>
<!-- ApplicationController -->
<g id="node9" class="node"><title>ApplicationController</title>
<polyline fill="none" stroke="black" points="13,-341.5 150,-341.5 "/>
<path fill="none" stroke="black" d="M150,-341.5C156,-341.5 162,-347.5 162,-353.5"/>
<polyline fill="none" stroke="black" points="162,-353.5 162,-465.5 "/>
<path fill="none" stroke="black" d="M162,-465.5C162,-471.5 156,-477.5 150,-477.5"/>
<polyline fill="none" stroke="black" points="150,-477.5 13,-477.5 "/>
<path fill="none" stroke="black" d="M13,-477.5C7,-477.5 1,-471.5 1,-465.5"/>
<polyline fill="none" stroke="black" points="1,-465.5 1,-353.5 "/>
<path fill="none" stroke="black" d="M1,-353.5C1,-347.5 7,-341.5 13,-341.5"/>
<text text-anchor="middle" x="81.5" y="-460.9" font-family="Times Roman,serif" font-size="14.00">ApplicationController</text>
<polyline fill="none" stroke="black" points="1,-451.5 162,-451.5 "/>
<polyline fill="none" stroke="black" points="1,-427.5 162,-427.5 "/>
<polyline fill="none" stroke="black" points="1,-403.5 162,-403.5 "/>
<text text-anchor="start" x="9" y="-386.9" font-family="Times Roman,serif" font-size="14.00">_layout</text>
<text text-anchor="start" x="9" y="-368.9" font-family="Times Roman,serif" font-size="14.00">admin_user</text>
<text text-anchor="start" x="9" y="-350.9" font-family="Times Roman,serif" font-size="14.00">logged_in_user</text>
</g>
<!-- AccountActivationsController -->
<g id="node10" class="node"><title>AccountActivationsController</title>
<polyline fill="none" stroke="black" points="313,-21.5 507,-21.5 "/>
<path fill="none" stroke="black" d="M507,-21.5C513,-21.5 519,-27.5 519,-33.5"/>
<polyline fill="none" stroke="black" points="519,-33.5 519,-111.5 "/>
<path fill="none" stroke="black" d="M519,-111.5C519,-117.5 513,-123.5 507,-123.5"/>
<polyline fill="none" stroke="black" points="507,-123.5 313,-123.5 "/>
<path fill="none" stroke="black" d="M313,-123.5C307,-123.5 301,-117.5 301,-111.5"/>
<polyline fill="none" stroke="black" points="301,-111.5 301,-33.5 "/>
<path fill="none" stroke="black" d="M301,-33.5C301,-27.5 307,-21.5 313,-21.5"/>
<text text-anchor="middle" x="410" y="-106.9" font-family="Times Roman,serif" font-size="14.00">AccountActivationsController</text>
<polyline fill="none" stroke="black" points="301,-97.5 519,-97.5 "/>
<text text-anchor="start" x="309" y="-80.9" font-family="Times Roman,serif" font-size="14.00">edit</text>
<polyline fill="none" stroke="black" points="301,-71.5 519,-71.5 "/>
<polyline fill="none" stroke="black" points="301,-47.5 519,-47.5 "/>
<text text-anchor="start" x="309" y="-30.9" font-family="Times Roman,serif" font-size="14.00">_layout</text>
</g>
</g>
</svg>
