<?xml version="1.0" encoding="UTF-8" standalone="no"?>
<!DOCTYPE svg PUBLIC "-//W3C//DTD SVG 1.1//EN"
 "http://www.w3.org/Graphics/SVG/1.1/DTD/svg11.dtd">
<!-- Generated by graphviz version 2.26.3 (20100126.1600)
 -->
<!-- Title: controllers_diagram Pages: 1 -->
<svg width="815pt" height="731pt"
 viewBox="0.00 0.00 815.00 731.00" xmlns="http://www.w3.org/2000/svg" xmlns:xlink="http://www.w3.org/1999/xlink">
<g id="graph1" class="graph" transform="scale(1 1) rotate(0) translate(4 727)">
<title>controllers_diagram</title>
<polygon fill="white" stroke="white" points="-4,5 -4,-727 812,-727 812,5 -4,5"/>
<!-- _diagram_info -->
<g id="node1" class="node"><title>_diagram_info</title>
<text text-anchor="start" x="209" y="-518.3" font-family="Times Roman,serif" font-size="13.00">Controllers diagram</text>
<text text-anchor="start" x="209" y="-501.3" font-family="Times Roman,serif" font-size="13.00">Date: Apr 25 2015 &#45; 16:57</text>
<text text-anchor="start" x="209" y="-484.3" font-family="Times Roman,serif" font-size="13.00">Migration version: 20150414205121</text>
<text text-anchor="start" x="209" y="-467.3" font-family="Times Roman,serif" font-size="13.00">Generated by RailRoady 1.3.0</text>
<text text-anchor="start" x="209" y="-450.3" font-family="Times Roman,serif" font-size="13.00">http://railroady.prestonlee.com</text>
</g>
<!-- PasswordResetsController -->
<g id="node2" class="node"><title>PasswordResetsController</title>
<polyline fill="none" stroke="black" points="413,-141.5 585,-141.5 "/>
<path fill="none" stroke="black" d="M585,-141.5C591,-141.5 597,-147.5 597,-153.5"/>
<polyline fill="none" stroke="black" points="597,-153.5 597,-375.5 "/>
<path fill="none" stroke="black" d="M597,-375.5C597,-381.5 591,-387.5 585,-387.5"/>
<polyline fill="none" stroke="black" points="585,-387.5 413,-387.5 "/>
<path fill="none" stroke="black" d="M413,-387.5C407,-387.5 401,-381.5 401,-375.5"/>
<polyline fill="none" stroke="black" points="401,-375.5 401,-153.5 "/>
<path fill="none" stroke="black" d="M401,-153.5C401,-147.5 407,-141.5 413,-141.5"/>
<text text-anchor="middle" x="499" y="-370.9" font-family="Times Roman,serif" font-size="14.00">PasswordResetsController</text>
<polyline fill="none" stroke="black" points="401,-361.5 597,-361.5 "/>
<text text-anchor="start" x="409" y="-344.9" font-family="Times Roman,serif" font-size="14.00">create</text>
<text text-anchor="start" x="409" y="-326.9" font-family="Times Roman,serif" font-size="14.00">edit</text>
<text text-anchor="start" x="409" y="-308.9" font-family="Times Roman,serif" font-size="14.00">new</text>
<text text-anchor="start" x="409" y="-290.9" font-family="Times Roman,serif" font-size="14.00">update</text>
<polyline fill="none" stroke="black" points="401,-281.5 597,-281.5 "/>
<polyline fill="none" stroke="black" points="401,-257.5 597,-257.5 "/>
<text text-anchor="start" x="409" y="-240.9" font-family="Times Roman,serif" font-size="14.00">_layout</text>
<text text-anchor="start" x="409" y="-222.9" font-family="Times Roman,serif" font-size="14.00">both_passwords_blank?</text>
<text text-anchor="start" x="409" y="-204.9" font-family="Times Roman,serif" font-size="14.00">check_expiration</text>
<text text-anchor="start" x="409" y="-186.9" font-family="Times Roman,serif" font-size="14.00">get_user</text>
<text text-anchor="start" x="409" y="-168.9" font-family="Times Roman,serif" font-size="14.00">user_params</text>
<text text-anchor="start" x="409" y="-150.9" font-family="Times Roman,serif" font-size="14.00">valid_user</text>
</g>
<!-- ArticlesController -->
<g id="node3" class="node"><title>ArticlesController</title>
<polyline fill="none" stroke="black" points="313,-581.5 426,-581.5 "/>
<path fill="none" stroke="black" d="M426,-581.5C432,-581.5 438,-587.5 438,-593.5"/>
<polyline fill="none" stroke="black" points="438,-593.5 438,-707.5 "/>
<path fill="none" stroke="black" d="M438,-707.5C438,-713.5 432,-719.5 426,-719.5"/>
<polyline fill="none" stroke="black" points="426,-719.5 313,-719.5 "/>
<path fill="none" stroke="black" d="M313,-719.5C307,-719.5 301,-713.5 301,-707.5"/>
<polyline fill="none" stroke="black" points="301,-707.5 301,-593.5 "/>
<path fill="none" stroke="black" d="M301,-593.5C301,-587.5 307,-581.5 313,-581.5"/>
<text text-anchor="middle" x="369.5" y="-702.9" font-family="Times Roman,serif" font-size="14.00">ArticlesController</text>
<polyline fill="none" stroke="black" points="301,-693.5 438,-693.5 "/>
<text text-anchor="start" x="309" y="-676.9" font-family="Times Roman,serif" font-size="14.00">edit</text>
<text text-anchor="start" x="309" y="-658.9" font-family="Times Roman,serif" font-size="14.00">update</text>
<polyline fill="none" stroke="black" points="301,-649.5 438,-649.5 "/>
<polyline fill="none" stroke="black" points="301,-625.5 438,-625.5 "/>
<text text-anchor="start" x="309" y="-608.9" font-family="Times Roman,serif" font-size="14.00">_layout</text>
<text text-anchor="start" x="309" y="-590.9" font-family="Times Roman,serif" font-size="14.00">article_params</text>
</g>
<!-- UsersController -->
<g id="node4" class="node"><title>UsersController</title>
<polyline fill="none" stroke="black" points="233,-61.5 357,-61.5 "/>
<path fill="none" stroke="black" d="M357,-61.5C363,-61.5 369,-67.5 369,-73.5"/>
<polyline fill="none" stroke="black" points="369,-73.5 369,-385.5 "/>
<path fill="none" stroke="black" d="M369,-385.5C369,-391.5 363,-397.5 357,-397.5"/>
<polyline fill="none" stroke="black" points="357,-397.5 233,-397.5 "/>
<path fill="none" stroke="black" d="M233,-397.5C227,-397.5 221,-391.5 221,-385.5"/>
<polyline fill="none" stroke="black" points="221,-385.5 221,-73.5 "/>
<path fill="none" stroke="black" d="M221,-73.5C221,-67.5 227,-61.5 233,-61.5"/>
<text text-anchor="middle" x="295" y="-380.9" font-family="Times Roman,serif" font-size="14.00">UsersController</text>
<polyline fill="none" stroke="black" points="221,-371.5 369,-371.5 "/>
<text text-anchor="start" x="229" y="-354.9" font-family="Times Roman,serif" font-size="14.00">checkin</text>
<text text-anchor="start" x="229" y="-336.9" font-family="Times Roman,serif" font-size="14.00">create</text>
<text text-anchor="start" x="229" y="-318.9" font-family="Times Roman,serif" font-size="14.00">destroy</text>
<text text-anchor="start" x="229" y="-300.9" font-family="Times Roman,serif" font-size="14.00">edit</text>
<text text-anchor="start" x="229" y="-282.9" font-family="Times Roman,serif" font-size="14.00">give_staff_role</text>
<text text-anchor="start" x="229" y="-264.9" font-family="Times Roman,serif" font-size="14.00">index</text>
<text text-anchor="start" x="229" y="-246.9" font-family="Times Roman,serif" font-size="14.00">new</text>
<text text-anchor="start" x="229" y="-228.9" font-family="Times Roman,serif" font-size="14.00">remove_staff_role</text>
<text text-anchor="start" x="229" y="-210.9" font-family="Times Roman,serif" font-size="14.00">search</text>
<text text-anchor="start" x="229" y="-192.9" font-family="Times Roman,serif" font-size="14.00">show</text>
<text text-anchor="start" x="229" y="-174.9" font-family="Times Roman,serif" font-size="14.00">show_registrations</text>
<text text-anchor="start" x="229" y="-156.9" font-family="Times Roman,serif" font-size="14.00">update</text>
<polyline fill="none" stroke="black" points="221,-147.5 369,-147.5 "/>
<polyline fill="none" stroke="black" points="221,-123.5 369,-123.5 "/>
<text text-anchor="start" x="229" y="-106.9" font-family="Times Roman,serif" font-size="14.00">_layout</text>
<text text-anchor="start" x="229" y="-88.9" font-family="Times Roman,serif" font-size="14.00">correct_user</text>
<text text-anchor="start" x="229" y="-70.9" font-family="Times Roman,serif" font-size="14.00">user_params</text>
</g>
<!-- SessionsController -->
<g id="node5" class="node"><title>SessionsController</title>
<polyline fill="none" stroke="black" points="53,-61.5 173,-61.5 "/>
<path fill="none" stroke="black" d="M173,-61.5C179,-61.5 185,-67.5 185,-73.5"/>
<polyline fill="none" stroke="black" points="185,-73.5 185,-187.5 "/>
<path fill="none" stroke="black" d="M185,-187.5C185,-193.5 179,-199.5 173,-199.5"/>
<polyline fill="none" stroke="black" points="173,-199.5 53,-199.5 "/>
<path fill="none" stroke="black" d="M53,-199.5C47,-199.5 41,-193.5 41,-187.5"/>
<polyline fill="none" stroke="black" points="41,-187.5 41,-73.5 "/>
<path fill="none" stroke="black" d="M41,-73.5C41,-67.5 47,-61.5 53,-61.5"/>
<text text-anchor="middle" x="113" y="-182.9" font-family="Times Roman,serif" font-size="14.00">SessionsController</text>
<polyline fill="none" stroke="black" points="41,-173.5 185,-173.5 "/>
<text text-anchor="start" x="49" y="-156.9" font-family="Times Roman,serif" font-size="14.00">create</text>
<text text-anchor="start" x="49" y="-138.9" font-family="Times Roman,serif" font-size="14.00">destroy</text>
<text text-anchor="start" x="49" y="-120.9" font-family="Times Roman,serif" font-size="14.00">new</text>
<polyline fill="none" stroke="black" points="41,-111.5 185,-111.5 "/>
<polyline fill="none" stroke="black" points="41,-87.5 185,-87.5 "/>
<text text-anchor="start" x="49" y="-70.9" font-family="Times Roman,serif" font-size="14.00">_layout</text>
</g>
<!-- TimeSlotsController -->
<g id="node6" class="node"><title>TimeSlotsController</title>
<polyline fill="none" stroke="black" points="13,-541.5 141,-541.5 "/>
<path fill="none" stroke="black" d="M141,-541.5C147,-541.5 153,-547.5 153,-553.5"/>
<polyline fill="none" stroke="black" points="153,-553.5 153,-667.5 "/>
<path fill="none" stroke="black" d="M153,-667.5C153,-673.5 147,-679.5 141,-679.5"/>
<polyline fill="none" stroke="black" points="141,-679.5 13,-679.5 "/>
<path fill="none" stroke="black" d="M13,-679.5C7,-679.5 1,-673.5 1,-667.5"/>
<polyline fill="none" stroke="black" points="1,-667.5 1,-553.5 "/>
<path fill="none" stroke="black" d="M1,-553.5C1,-547.5 7,-541.5 13,-541.5"/>
<text text-anchor="middle" x="77" y="-662.9" font-family="Times Roman,serif" font-size="14.00">TimeSlotsController</text>
<polyline fill="none" stroke="black" points="1,-653.5 153,-653.5 "/>
<text text-anchor="start" x="9" y="-636.9" font-family="Times Roman,serif" font-size="14.00">create</text>
<text text-anchor="start" x="9" y="-618.9" font-family="Times Roman,serif" font-size="14.00">destroy</text>
<polyline fill="none" stroke="black" points="1,-609.5 153,-609.5 "/>
<polyline fill="none" stroke="black" points="1,-585.5 153,-585.5 "/>
<text text-anchor="start" x="9" y="-568.9" font-family="Times Roman,serif" font-size="14.00">_layout</text>
<text text-anchor="start" x="9" y="-550.9" font-family="Times Roman,serif" font-size="14.00">time_slot_params</text>
</g>
<!-- StaticPagesController -->
<g id="node7" class="node"><title>StaticPagesController</title>
<polyline fill="none" stroke="black" points="653,-141.5 794,-141.5 "/>
<path fill="none" stroke="black" d="M794,-141.5C800,-141.5 806,-147.5 806,-153.5"/>
<polyline fill="none" stroke="black" points="806,-153.5 806,-249.5 "/>
<path fill="none" stroke="black" d="M806,-249.5C806,-255.5 800,-261.5 794,-261.5"/>
<polyline fill="none" stroke="black" points="794,-261.5 653,-261.5 "/>
<path fill="none" stroke="black" d="M653,-261.5C647,-261.5 641,-255.5 641,-249.5"/>
<polyline fill="none" stroke="black" points="641,-249.5 641,-153.5 "/>
<path fill="none" stroke="black" d="M641,-153.5C641,-147.5 647,-141.5 653,-141.5"/>
<text text-anchor="middle" x="723.5" y="-244.9" font-family="Times Roman,serif" font-size="14.00">StaticPagesController</text>
<polyline fill="none" stroke="black" points="641,-235.5 806,-235.5 "/>
<text text-anchor="start" x="649" y="-218.9" font-family="Times Roman,serif" font-size="14.00">calendar</text>
<text text-anchor="start" x="649" y="-200.9" font-family="Times Roman,serif" font-size="14.00">home</text>
<polyline fill="none" stroke="black" points="641,-191.5 806,-191.5 "/>
<polyline fill="none" stroke="black" points="641,-167.5 806,-167.5 "/>
<text text-anchor="start" x="649" y="-150.9" font-family="Times Roman,serif" font-size="14.00">_layout</text>
</g>
<!-- EventsController -->
<g id="node8" class="node"><title>EventsController</title>
<polyline fill="none" stroke="black" points="493,-421.5 602,-421.5 "/>
<path fill="none" stroke="black" d="M602,-421.5C608,-421.5 614,-427.5 614,-433.5"/>
<polyline fill="none" stroke="black" points="614,-433.5 614,-709.5 "/>
<path fill="none" stroke="black" d="M614,-709.5C614,-715.5 608,-721.5 602,-721.5"/>
<polyline fill="none" stroke="black" points="602,-721.5 493,-721.5 "/>
<path fill="none" stroke="black" d="M493,-721.5C487,-721.5 481,-715.5 481,-709.5"/>
<polyline fill="none" stroke="black" points="481,-709.5 481,-433.5 "/>
<path fill="none" stroke="black" d="M481,-433.5C481,-427.5 487,-421.5 493,-421.5"/>
<text text-anchor="middle" x="547.5" y="-704.9" font-family="Times Roman,serif" font-size="14.00">EventsController</text>
<polyline fill="none" stroke="black" points="481,-695.5 614,-695.5 "/>
<text text-anchor="start" x="489" y="-678.9" font-family="Times Roman,serif" font-size="14.00">add_time_slot</text>
<text text-anchor="start" x="489" y="-660.9" font-family="Times Roman,serif" font-size="14.00">create</text>
<text text-anchor="start" x="489" y="-642.9" font-family="Times Roman,serif" font-size="14.00">destroy</text>
<text text-anchor="start" x="489" y="-624.9" font-family="Times Roman,serif" font-size="14.00">edit</text>
<text text-anchor="start" x="489" y="-606.9" font-family="Times Roman,serif" font-size="14.00">index</text>
<text text-anchor="start" x="489" y="-588.9" font-family="Times Roman,serif" font-size="14.00">new</text>
<text text-anchor="start" x="489" y="-570.9" font-family="Times Roman,serif" font-size="14.00">register</text>
<text text-anchor="start" x="489" y="-552.9" font-family="Times Roman,serif" font-size="14.00">search</text>
<text text-anchor="start" x="489" y="-534.9" font-family="Times Roman,serif" font-size="14.00">show</text>
<text text-anchor="start" x="489" y="-516.9" font-family="Times Roman,serif" font-size="14.00">show_roster</text>
<text text-anchor="start" x="489" y="-498.9" font-family="Times Roman,serif" font-size="14.00">update</text>
<polyline fill="none" stroke="black" points="481,-489.5 614,-489.5 "/>
<polyline fill="none" stroke="black" points="481,-465.5 614,-465.5 "/>
<text text-anchor="start" x="489" y="-448.9" font-family="Times Roman,serif" font-size="14.00">_layout</text>
<text text-anchor="start" x="489" y="-430.9" font-family="Times Roman,serif" font-size="14.00">event_params</text>
</g>
<!-- ApplicationController -->
<g id="node9" class="node"><title>ApplicationController</title>
<polyline fill="none" stroke="black" points="33,-241.5 170,-241.5 "/>
<path fill="none" stroke="black" d="M170,-241.5C176,-241.5 182,-247.5 182,-253.5"/>
<polyline fill="none" stroke="black" points="182,-253.5 182,-383.5 "/>
<path fill="none" stroke="black" d="M182,-383.5C182,-389.5 176,-395.5 170,-395.5"/>
<polyline fill="none" stroke="black" points="170,-395.5 33,-395.5 "/>
<path fill="none" stroke="black" d="M33,-395.5C27,-395.5 21,-389.5 21,-383.5"/>
<polyline fill="none" stroke="black" points="21,-383.5 21,-253.5 "/>
<path fill="none" stroke="black" d="M21,-253.5C21,-247.5 27,-241.5 33,-241.5"/>
<text text-anchor="middle" x="101.5" y="-378.9" font-family="Times Roman,serif" font-size="14.00">ApplicationController</text>
<polyline fill="none" stroke="black" points="21,-369.5 182,-369.5 "/>
<polyline fill="none" stroke="black" points="21,-345.5 182,-345.5 "/>
<polyline fill="none" stroke="black" points="21,-321.5 182,-321.5 "/>
<text text-anchor="start" x="29" y="-304.9" font-family="Times Roman,serif" font-size="14.00">_layout</text>
<text text-anchor="start" x="29" y="-286.9" font-family="Times Roman,serif" font-size="14.00">admin_user</text>
<text text-anchor="start" x="29" y="-268.9" font-family="Times Roman,serif" font-size="14.00">logged_in_user</text>
<text text-anchor="start" x="29" y="-250.9" font-family="Times Roman,serif" font-size="14.00">staff_user</text>
</g>
<!-- AccountActivationsController -->
<g id="node10" class="node"><title>AccountActivationsController</title>
<polyline fill="none" stroke="black" points="413,-1.5 607,-1.5 "/>
<path fill="none" stroke="black" d="M607,-1.5C613,-1.5 619,-7.5 619,-13.5"/>
<polyline fill="none" stroke="black" points="619,-13.5 619,-91.5 "/>
<path fill="none" stroke="black" d="M619,-91.5C619,-97.5 613,-103.5 607,-103.5"/>
<polyline fill="none" stroke="black" points="607,-103.5 413,-103.5 "/>
<path fill="none" stroke="black" d="M413,-103.5C407,-103.5 401,-97.5 401,-91.5"/>
<polyline fill="none" stroke="black" points="401,-91.5 401,-13.5 "/>
<path fill="none" stroke="black" d="M401,-13.5C401,-7.5 407,-1.5 413,-1.5"/>
<text text-anchor="middle" x="510" y="-86.9" font-family="Times Roman,serif" font-size="14.00">AccountActivationsController</text>
<polyline fill="none" stroke="black" points="401,-77.5 619,-77.5 "/>
<text text-anchor="start" x="409" y="-60.9" font-family="Times Roman,serif" font-size="14.00">edit</text>
<polyline fill="none" stroke="black" points="401,-51.5 619,-51.5 "/>
<polyline fill="none" stroke="black" points="401,-27.5 619,-27.5 "/>
<text text-anchor="start" x="409" y="-10.9" font-family="Times Roman,serif" font-size="14.00">_layout</text>
</g>
</g>
</svg>
