<?xml version="1.0" encoding="UTF-8" standalone="no"?>
<!DOCTYPE svg PUBLIC "-//W3C//DTD SVG 1.1//EN"
 "http://www.w3.org/Graphics/SVG/1.1/DTD/svg11.dtd">
<!-- Generated by graphviz version 2.26.3 (20100126.1600)
 -->
<!-- Title: controllers_diagram Pages: 1 -->
<svg width="760pt" height="753pt"
 viewBox="0.00 0.00 760.00 753.00" xmlns="http://www.w3.org/2000/svg" xmlns:xlink="http://www.w3.org/1999/xlink">
<g id="graph1" class="graph" transform="scale(1 1) rotate(0) translate(4 749)">
<title>controllers_diagram</title>
<polygon fill="white" stroke="white" points="-4,5 -4,-749 757,-749 757,5 -4,5"/>
<!-- _diagram_info -->
<g id="node1" class="node"><title>_diagram_info</title>
<text text-anchor="start" x="509" y="-578.3" font-family="Times Roman,serif" font-size="13.00">Controllers diagram</text>
<text text-anchor="start" x="509" y="-561.3" font-family="Times Roman,serif" font-size="13.00">Date: Apr 10 2015 &#45; 12:08</text>
<text text-anchor="start" x="509" y="-544.3" font-family="Times Roman,serif" font-size="13.00">Migration version: 20150409014248</text>
<text text-anchor="start" x="509" y="-527.3" font-family="Times Roman,serif" font-size="13.00">Generated by RailRoady 1.3.0</text>
<text text-anchor="start" x="509" y="-510.3" font-family="Times Roman,serif" font-size="13.00">http://railroady.prestonlee.com</text>
</g>
<!-- PasswordResetsController -->
<g id="node2" class="node"><title>PasswordResetsController</title>
<polyline fill="none" stroke="black" points="233,-181.5 405,-181.5 "/>
<path fill="none" stroke="black" d="M405,-181.5C411,-181.5 417,-187.5 417,-193.5"/>
<polyline fill="none" stroke="black" points="417,-193.5 417,-415.5 "/>
<path fill="none" stroke="black" d="M417,-415.5C417,-421.5 411,-427.5 405,-427.5"/>
<polyline fill="none" stroke="black" points="405,-427.5 233,-427.5 "/>
<path fill="none" stroke="black" d="M233,-427.5C227,-427.5 221,-421.5 221,-415.5"/>
<polyline fill="none" stroke="black" points="221,-415.5 221,-193.5 "/>
<path fill="none" stroke="black" d="M221,-193.5C221,-187.5 227,-181.5 233,-181.5"/>
<text text-anchor="middle" x="319" y="-410.9" font-family="Times Roman,serif" font-size="14.00">PasswordResetsController</text>
<polyline fill="none" stroke="black" points="221,-401.5 417,-401.5 "/>
<text text-anchor="start" x="229" y="-384.9" font-family="Times Roman,serif" font-size="14.00">create</text>
<text text-anchor="start" x="229" y="-366.9" font-family="Times Roman,serif" font-size="14.00">edit</text>
<text text-anchor="start" x="229" y="-348.9" font-family="Times Roman,serif" font-size="14.00">new</text>
<text text-anchor="start" x="229" y="-330.9" font-family="Times Roman,serif" font-size="14.00">update</text>
<polyline fill="none" stroke="black" points="221,-321.5 417,-321.5 "/>
<polyline fill="none" stroke="black" points="221,-297.5 417,-297.5 "/>
<text text-anchor="start" x="229" y="-280.9" font-family="Times Roman,serif" font-size="14.00">_layout</text>
<text text-anchor="start" x="229" y="-262.9" font-family="Times Roman,serif" font-size="14.00">both_passwords_blank?</text>
<text text-anchor="start" x="229" y="-244.9" font-family="Times Roman,serif" font-size="14.00">check_expiration</text>
<text text-anchor="start" x="229" y="-226.9" font-family="Times Roman,serif" font-size="14.00">get_user</text>
<text text-anchor="start" x="229" y="-208.9" font-family="Times Roman,serif" font-size="14.00">user_params</text>
<text text-anchor="start" x="229" y="-190.9" font-family="Times Roman,serif" font-size="14.00">valid_user</text>
</g>
<!-- ArticlesController -->
<g id="node3" class="node"><title>ArticlesController</title>
<polyline fill="none" stroke="black" points="13,-1.5 126,-1.5 "/>
<path fill="none" stroke="black" d="M126,-1.5C132,-1.5 138,-7.5 138,-13.5"/>
<polyline fill="none" stroke="black" points="138,-13.5 138,-127.5 "/>
<path fill="none" stroke="black" d="M138,-127.5C138,-133.5 132,-139.5 126,-139.5"/>
<polyline fill="none" stroke="black" points="126,-139.5 13,-139.5 "/>
<path fill="none" stroke="black" d="M13,-139.5C7,-139.5 1,-133.5 1,-127.5"/>
<polyline fill="none" stroke="black" points="1,-127.5 1,-13.5 "/>
<path fill="none" stroke="black" d="M1,-13.5C1,-7.5 7,-1.5 13,-1.5"/>
<text text-anchor="middle" x="69.5" y="-122.9" font-family="Times Roman,serif" font-size="14.00">ArticlesController</text>
<polyline fill="none" stroke="black" points="1,-113.5 138,-113.5 "/>
<text text-anchor="start" x="9" y="-96.9" font-family="Times Roman,serif" font-size="14.00">edit</text>
<text text-anchor="start" x="9" y="-78.9" font-family="Times Roman,serif" font-size="14.00">update</text>
<polyline fill="none" stroke="black" points="1,-69.5 138,-69.5 "/>
<polyline fill="none" stroke="black" points="1,-45.5 138,-45.5 "/>
<text text-anchor="start" x="9" y="-28.9" font-family="Times Roman,serif" font-size="14.00">_layout</text>
<text text-anchor="start" x="9" y="-10.9" font-family="Times Roman,serif" font-size="14.00">article_params</text>
</g>
<!-- UsersController -->
<g id="node4" class="node"><title>UsersController</title>
<polyline fill="none" stroke="black" points="473,-181.5 597,-181.5 "/>
<path fill="none" stroke="black" d="M597,-181.5C603,-181.5 609,-187.5 609,-193.5"/>
<polyline fill="none" stroke="black" points="609,-193.5 609,-451.5 "/>
<path fill="none" stroke="black" d="M609,-451.5C609,-457.5 603,-463.5 597,-463.5"/>
<polyline fill="none" stroke="black" points="597,-463.5 473,-463.5 "/>
<path fill="none" stroke="black" d="M473,-463.5C467,-463.5 461,-457.5 461,-451.5"/>
<polyline fill="none" stroke="black" points="461,-451.5 461,-193.5 "/>
<path fill="none" stroke="black" d="M461,-193.5C461,-187.5 467,-181.5 473,-181.5"/>
<text text-anchor="middle" x="535" y="-446.9" font-family="Times Roman,serif" font-size="14.00">UsersController</text>
<polyline fill="none" stroke="black" points="461,-437.5 609,-437.5 "/>
<text text-anchor="start" x="469" y="-420.9" font-family="Times Roman,serif" font-size="14.00">checkin</text>
<text text-anchor="start" x="469" y="-402.9" font-family="Times Roman,serif" font-size="14.00">create</text>
<text text-anchor="start" x="469" y="-384.9" font-family="Times Roman,serif" font-size="14.00">destroy</text>
<text text-anchor="start" x="469" y="-366.9" font-family="Times Roman,serif" font-size="14.00">edit</text>
<text text-anchor="start" x="469" y="-348.9" font-family="Times Roman,serif" font-size="14.00">index</text>
<text text-anchor="start" x="469" y="-330.9" font-family="Times Roman,serif" font-size="14.00">new</text>
<text text-anchor="start" x="469" y="-312.9" font-family="Times Roman,serif" font-size="14.00">show</text>
<text text-anchor="start" x="469" y="-294.9" font-family="Times Roman,serif" font-size="14.00">show_registrations</text>
<text text-anchor="start" x="469" y="-276.9" font-family="Times Roman,serif" font-size="14.00">update</text>
<polyline fill="none" stroke="black" points="461,-267.5 609,-267.5 "/>
<polyline fill="none" stroke="black" points="461,-243.5 609,-243.5 "/>
<text text-anchor="start" x="469" y="-226.9" font-family="Times Roman,serif" font-size="14.00">_layout</text>
<text text-anchor="start" x="469" y="-208.9" font-family="Times Roman,serif" font-size="14.00">correct_user</text>
<text text-anchor="start" x="469" y="-190.9" font-family="Times Roman,serif" font-size="14.00">user_params</text>
</g>
<!-- SessionsController -->
<g id="node5" class="node"><title>SessionsController</title>
<polyline fill="none" stroke="black" points="113,-541.5 233,-541.5 "/>
<path fill="none" stroke="black" d="M233,-541.5C239,-541.5 245,-547.5 245,-553.5"/>
<polyline fill="none" stroke="black" points="245,-553.5 245,-667.5 "/>
<path fill="none" stroke="black" d="M245,-667.5C245,-673.5 239,-679.5 233,-679.5"/>
<polyline fill="none" stroke="black" points="233,-679.5 113,-679.5 "/>
<path fill="none" stroke="black" d="M113,-679.5C107,-679.5 101,-673.5 101,-667.5"/>
<polyline fill="none" stroke="black" points="101,-667.5 101,-553.5 "/>
<path fill="none" stroke="black" d="M101,-553.5C101,-547.5 107,-541.5 113,-541.5"/>
<text text-anchor="middle" x="173" y="-662.9" font-family="Times Roman,serif" font-size="14.00">SessionsController</text>
<polyline fill="none" stroke="black" points="101,-653.5 245,-653.5 "/>
<text text-anchor="start" x="109" y="-636.9" font-family="Times Roman,serif" font-size="14.00">create</text>
<text text-anchor="start" x="109" y="-618.9" font-family="Times Roman,serif" font-size="14.00">destroy</text>
<text text-anchor="start" x="109" y="-600.9" font-family="Times Roman,serif" font-size="14.00">new</text>
<polyline fill="none" stroke="black" points="101,-591.5 245,-591.5 "/>
<polyline fill="none" stroke="black" points="101,-567.5 245,-567.5 "/>
<text text-anchor="start" x="109" y="-550.9" font-family="Times Roman,serif" font-size="14.00">_layout</text>
</g>
<!-- TimeSlotsController -->
<g id="node6" class="node"><title>TimeSlotsController</title>
<polyline fill="none" stroke="black" points="33,-361.5 161,-361.5 "/>
<path fill="none" stroke="black" d="M161,-361.5C167,-361.5 173,-367.5 173,-373.5"/>
<polyline fill="none" stroke="black" points="173,-373.5 173,-487.5 "/>
<path fill="none" stroke="black" d="M173,-487.5C173,-493.5 167,-499.5 161,-499.5"/>
<polyline fill="none" stroke="black" points="161,-499.5 33,-499.5 "/>
<path fill="none" stroke="black" d="M33,-499.5C27,-499.5 21,-493.5 21,-487.5"/>
<polyline fill="none" stroke="black" points="21,-487.5 21,-373.5 "/>
<path fill="none" stroke="black" d="M21,-373.5C21,-367.5 27,-361.5 33,-361.5"/>
<text text-anchor="middle" x="97" y="-482.9" font-family="Times Roman,serif" font-size="14.00">TimeSlotsController</text>
<polyline fill="none" stroke="black" points="21,-473.5 173,-473.5 "/>
<text text-anchor="start" x="29" y="-456.9" font-family="Times Roman,serif" font-size="14.00">create</text>
<text text-anchor="start" x="29" y="-438.9" font-family="Times Roman,serif" font-size="14.00">destroy</text>
<polyline fill="none" stroke="black" points="21,-429.5 173,-429.5 "/>
<polyline fill="none" stroke="black" points="21,-405.5 173,-405.5 "/>
<text text-anchor="start" x="29" y="-388.9" font-family="Times Roman,serif" font-size="14.00">_layout</text>
<text text-anchor="start" x="29" y="-370.9" font-family="Times Roman,serif" font-size="14.00">time_slot_params</text>
</g>
<!-- StaticPagesController -->
<g id="node7" class="node"><title>StaticPagesController</title>
<polyline fill="none" stroke="black" points="593,-21.5 734,-21.5 "/>
<path fill="none" stroke="black" d="M734,-21.5C740,-21.5 746,-27.5 746,-33.5"/>
<polyline fill="none" stroke="black" points="746,-33.5 746,-129.5 "/>
<path fill="none" stroke="black" d="M746,-129.5C746,-135.5 740,-141.5 734,-141.5"/>
<polyline fill="none" stroke="black" points="734,-141.5 593,-141.5 "/>
<path fill="none" stroke="black" d="M593,-141.5C587,-141.5 581,-135.5 581,-129.5"/>
<polyline fill="none" stroke="black" points="581,-129.5 581,-33.5 "/>
<path fill="none" stroke="black" d="M581,-33.5C581,-27.5 587,-21.5 593,-21.5"/>
<text text-anchor="middle" x="663.5" y="-124.9" font-family="Times Roman,serif" font-size="14.00">StaticPagesController</text>
<polyline fill="none" stroke="black" points="581,-115.5 746,-115.5 "/>
<text text-anchor="start" x="589" y="-98.9" font-family="Times Roman,serif" font-size="14.00">calendar</text>
<text text-anchor="start" x="589" y="-80.9" font-family="Times Roman,serif" font-size="14.00">home</text>
<polyline fill="none" stroke="black" points="581,-71.5 746,-71.5 "/>
<polyline fill="none" stroke="black" points="581,-47.5 746,-47.5 "/>
<text text-anchor="start" x="589" y="-30.9" font-family="Times Roman,serif" font-size="14.00">_layout</text>
</g>
<!-- EventsController -->
<g id="node8" class="node"><title>EventsController</title>
<polyline fill="none" stroke="black" points="293,-461.5 402,-461.5 "/>
<path fill="none" stroke="black" d="M402,-461.5C408,-461.5 414,-467.5 414,-473.5"/>
<polyline fill="none" stroke="black" points="414,-473.5 414,-731.5 "/>
<path fill="none" stroke="black" d="M414,-731.5C414,-737.5 408,-743.5 402,-743.5"/>
<polyline fill="none" stroke="black" points="402,-743.5 293,-743.5 "/>
<path fill="none" stroke="black" d="M293,-743.5C287,-743.5 281,-737.5 281,-731.5"/>
<polyline fill="none" stroke="black" points="281,-731.5 281,-473.5 "/>
<path fill="none" stroke="black" d="M281,-473.5C281,-467.5 287,-461.5 293,-461.5"/>
<text text-anchor="middle" x="347.5" y="-726.9" font-family="Times Roman,serif" font-size="14.00">EventsController</text>
<polyline fill="none" stroke="black" points="281,-717.5 414,-717.5 "/>
<text text-anchor="start" x="289" y="-700.9" font-family="Times Roman,serif" font-size="14.00">add_time_slot</text>
<text text-anchor="start" x="289" y="-682.9" font-family="Times Roman,serif" font-size="14.00">create</text>
<text text-anchor="start" x="289" y="-664.9" font-family="Times Roman,serif" font-size="14.00">destroy</text>
<text text-anchor="start" x="289" y="-646.9" font-family="Times Roman,serif" font-size="14.00">edit</text>
<text text-anchor="start" x="289" y="-628.9" font-family="Times Roman,serif" font-size="14.00">index</text>
<text text-anchor="start" x="289" y="-610.9" font-family="Times Roman,serif" font-size="14.00">new</text>
<text text-anchor="start" x="289" y="-592.9" font-family="Times Roman,serif" font-size="14.00">register</text>
<text text-anchor="start" x="289" y="-574.9" font-family="Times Roman,serif" font-size="14.00">show</text>
<text text-anchor="start" x="289" y="-556.9" font-family="Times Roman,serif" font-size="14.00">show_roster</text>
<text text-anchor="start" x="289" y="-538.9" font-family="Times Roman,serif" font-size="14.00">update</text>
<polyline fill="none" stroke="black" points="281,-529.5 414,-529.5 "/>
<polyline fill="none" stroke="black" points="281,-505.5 414,-505.5 "/>
<text text-anchor="start" x="289" y="-488.9" font-family="Times Roman,serif" font-size="14.00">_layout</text>
<text text-anchor="start" x="289" y="-470.9" font-family="Times Roman,serif" font-size="14.00">event_params</text>
</g>
<!-- ApplicationController -->
<g id="node9" class="node"><title>ApplicationController</title>
<polyline fill="none" stroke="black" points="33,-181.5 170,-181.5 "/>
<path fill="none" stroke="black" d="M170,-181.5C176,-181.5 182,-187.5 182,-193.5"/>
<polyline fill="none" stroke="black" points="182,-193.5 182,-305.5 "/>
<path fill="none" stroke="black" d="M182,-305.5C182,-311.5 176,-317.5 170,-317.5"/>
<polyline fill="none" stroke="black" points="170,-317.5 33,-317.5 "/>
<path fill="none" stroke="black" d="M33,-317.5C27,-317.5 21,-311.5 21,-305.5"/>
<polyline fill="none" stroke="black" points="21,-305.5 21,-193.5 "/>
<path fill="none" stroke="black" d="M21,-193.5C21,-187.5 27,-181.5 33,-181.5"/>
<text text-anchor="middle" x="101.5" y="-300.9" font-family="Times Roman,serif" font-size="14.00">ApplicationController</text>
<polyline fill="none" stroke="black" points="21,-291.5 182,-291.5 "/>
<polyline fill="none" stroke="black" points="21,-267.5 182,-267.5 "/>
<polyline fill="none" stroke="black" points="21,-243.5 182,-243.5 "/>
<text text-anchor="start" x="29" y="-226.9" font-family="Times Roman,serif" font-size="14.00">_layout</text>
<text text-anchor="start" x="29" y="-208.9" font-family="Times Roman,serif" font-size="14.00">admin_user</text>
<text text-anchor="start" x="29" y="-190.9" font-family="Times Roman,serif" font-size="14.00">logged_in_user</text>
</g>
<!-- AccountActivationsController -->
<g id="node10" class="node"><title>AccountActivationsController</title>
<polyline fill="none" stroke="black" points="333,-41.5 527,-41.5 "/>
<path fill="none" stroke="black" d="M527,-41.5C533,-41.5 539,-47.5 539,-53.5"/>
<polyline fill="none" stroke="black" points="539,-53.5 539,-131.5 "/>
<path fill="none" stroke="black" d="M539,-131.5C539,-137.5 533,-143.5 527,-143.5"/>
<polyline fill="none" stroke="black" points="527,-143.5 333,-143.5 "/>
<path fill="none" stroke="black" d="M333,-143.5C327,-143.5 321,-137.5 321,-131.5"/>
<polyline fill="none" stroke="black" points="321,-131.5 321,-53.5 "/>
<path fill="none" stroke="black" d="M321,-53.5C321,-47.5 327,-41.5 333,-41.5"/>
<text text-anchor="middle" x="430" y="-126.9" font-family="Times Roman,serif" font-size="14.00">AccountActivationsController</text>
<polyline fill="none" stroke="black" points="321,-117.5 539,-117.5 "/>
<text text-anchor="start" x="329" y="-100.9" font-family="Times Roman,serif" font-size="14.00">edit</text>
<polyline fill="none" stroke="black" points="321,-91.5 539,-91.5 "/>
<polyline fill="none" stroke="black" points="321,-67.5 539,-67.5 "/>
<text text-anchor="start" x="329" y="-50.9" font-family="Times Roman,serif" font-size="14.00">_layout</text>
</g>
</g>
</svg>
