<?xml version="1.0" encoding="UTF-8" standalone="no"?>
<!DOCTYPE svg PUBLIC "-//W3C//DTD SVG 1.1//EN"
 "http://www.w3.org/Graphics/SVG/1.1/DTD/svg11.dtd">
<!-- Generated by graphviz version 2.26.3 (20100126.1600)
 -->
<!-- Title: controllers_diagram Pages: 1 -->
<svg width="976pt" height="989pt"
 viewBox="0.00 0.00 976.00 989.00" xmlns="http://www.w3.org/2000/svg" xmlns:xlink="http://www.w3.org/1999/xlink">
<g id="graph1" class="graph" transform="scale(1 1) rotate(0) translate(4 985)">
<title>controllers_diagram</title>
<polygon fill="white" stroke="white" points="-4,5 -4,-985 973,-985 973,5 -4,5"/>
<!-- _diagram_info -->
<g id="node1" class="node"><title>_diagram_info</title>
<text text-anchor="start" x="537" y="-232.3" font-family="Times Roman,serif" font-size="13.00">Controllers diagram</text>
<text text-anchor="start" x="537" y="-215.3" font-family="Times Roman,serif" font-size="13.00">Date: May 05 2015 &#45; 21:45</text>
<text text-anchor="start" x="537" y="-198.3" font-family="Times Roman,serif" font-size="13.00">Migration version: 20150505220955</text>
<text text-anchor="start" x="537" y="-181.3" font-family="Times Roman,serif" font-size="13.00">Generated by RailRoady 1.3.0</text>
<text text-anchor="start" x="537" y="-164.3" font-family="Times Roman,serif" font-size="13.00">http://railroady.prestonlee.com</text>
</g>
<!-- BuddyWalksController -->
<g id="node2" class="node"><title>BuddyWalksController</title>
<polyline fill="none" stroke="black" points="541,-287.5 687,-287.5 "/>
<path fill="none" stroke="black" d="M687,-287.5C693,-287.5 699,-293.5 699,-299.5"/>
<polyline fill="none" stroke="black" points="699,-299.5 699,-665.5 "/>
<path fill="none" stroke="black" d="M699,-665.5C699,-671.5 693,-677.5 687,-677.5"/>
<polyline fill="none" stroke="black" points="687,-677.5 541,-677.5 "/>
<path fill="none" stroke="black" d="M541,-677.5C535,-677.5 529,-671.5 529,-665.5"/>
<polyline fill="none" stroke="black" points="529,-665.5 529,-299.5 "/>
<path fill="none" stroke="black" d="M529,-299.5C529,-293.5 535,-287.5 541,-287.5"/>
<text text-anchor="middle" x="614" y="-660.9" font-family="Times Roman,serif" font-size="14.00">BuddyWalksController</text>
<polyline fill="none" stroke="black" points="529,-651.5 699,-651.5 "/>
<text text-anchor="start" x="537" y="-634.9" font-family="Times Roman,serif" font-size="14.00">add_buddy_slot</text>
<text text-anchor="start" x="537" y="-616.9" font-family="Times Roman,serif" font-size="14.00">create</text>
<text text-anchor="start" x="537" y="-598.9" font-family="Times Roman,serif" font-size="14.00">destroy</text>
<text text-anchor="start" x="537" y="-580.9" font-family="Times Roman,serif" font-size="14.00">edit</text>
<text text-anchor="start" x="537" y="-562.9" font-family="Times Roman,serif" font-size="14.00">edit_schedule</text>
<text text-anchor="start" x="537" y="-544.9" font-family="Times Roman,serif" font-size="14.00">edit_schedule_update</text>
<text text-anchor="start" x="537" y="-526.9" font-family="Times Roman,serif" font-size="14.00">index</text>
<text text-anchor="start" x="537" y="-508.9" font-family="Times Roman,serif" font-size="14.00">new</text>
<text text-anchor="start" x="537" y="-490.9" font-family="Times Roman,serif" font-size="14.00">register</text>
<text text-anchor="start" x="537" y="-472.9" font-family="Times Roman,serif" font-size="14.00">schedule</text>
<text text-anchor="start" x="537" y="-454.9" font-family="Times Roman,serif" font-size="14.00">schedule_update</text>
<text text-anchor="start" x="537" y="-436.9" font-family="Times Roman,serif" font-size="14.00">search</text>
<text text-anchor="start" x="537" y="-418.9" font-family="Times Roman,serif" font-size="14.00">show</text>
<text text-anchor="start" x="537" y="-400.9" font-family="Times Roman,serif" font-size="14.00">show_roster</text>
<text text-anchor="start" x="537" y="-382.9" font-family="Times Roman,serif" font-size="14.00">unregister</text>
<text text-anchor="start" x="537" y="-364.9" font-family="Times Roman,serif" font-size="14.00">update</text>
<polyline fill="none" stroke="black" points="529,-355.5 699,-355.5 "/>
<polyline fill="none" stroke="black" points="529,-331.5 699,-331.5 "/>
<text text-anchor="start" x="537" y="-314.9" font-family="Times Roman,serif" font-size="14.00">_layout</text>
<text text-anchor="start" x="537" y="-296.9" font-family="Times Roman,serif" font-size="14.00">buddy_walk_params</text>
</g>
<!-- PasswordResetsController -->
<g id="node3" class="node"><title>PasswordResetsController</title>
<polyline fill="none" stroke="black" points="717,-727.5 889,-727.5 "/>
<path fill="none" stroke="black" d="M889,-727.5C895,-727.5 901,-733.5 901,-739.5"/>
<polyline fill="none" stroke="black" points="901,-739.5 901,-961.5 "/>
<path fill="none" stroke="black" d="M901,-961.5C901,-967.5 895,-973.5 889,-973.5"/>
<polyline fill="none" stroke="black" points="889,-973.5 717,-973.5 "/>
<path fill="none" stroke="black" d="M717,-973.5C711,-973.5 705,-967.5 705,-961.5"/>
<polyline fill="none" stroke="black" points="705,-961.5 705,-739.5 "/>
<path fill="none" stroke="black" d="M705,-739.5C705,-733.5 711,-727.5 717,-727.5"/>
<text text-anchor="middle" x="803" y="-956.9" font-family="Times Roman,serif" font-size="14.00">PasswordResetsController</text>
<polyline fill="none" stroke="black" points="705,-947.5 901,-947.5 "/>
<text text-anchor="start" x="713" y="-930.9" font-family="Times Roman,serif" font-size="14.00">create</text>
<text text-anchor="start" x="713" y="-912.9" font-family="Times Roman,serif" font-size="14.00">edit</text>
<text text-anchor="start" x="713" y="-894.9" font-family="Times Roman,serif" font-size="14.00">new</text>
<text text-anchor="start" x="713" y="-876.9" font-family="Times Roman,serif" font-size="14.00">update</text>
<polyline fill="none" stroke="black" points="705,-867.5 901,-867.5 "/>
<polyline fill="none" stroke="black" points="705,-843.5 901,-843.5 "/>
<text text-anchor="start" x="713" y="-826.9" font-family="Times Roman,serif" font-size="14.00">_layout</text>
<text text-anchor="start" x="713" y="-808.9" font-family="Times Roman,serif" font-size="14.00">both_passwords_blank?</text>
<text text-anchor="start" x="713" y="-790.9" font-family="Times Roman,serif" font-size="14.00">check_expiration</text>
<text text-anchor="start" x="713" y="-772.9" font-family="Times Roman,serif" font-size="14.00">get_user</text>
<text text-anchor="start" x="713" y="-754.9" font-family="Times Roman,serif" font-size="14.00">user_params</text>
<text text-anchor="start" x="713" y="-736.9" font-family="Times Roman,serif" font-size="14.00">valid_user</text>
</g>
<!-- DsClassesController -->
<g id="node4" class="node"><title>DsClassesController</title>
<polyline fill="none" stroke="black" points="343,-661.5 473,-661.5 "/>
<path fill="none" stroke="black" d="M473,-661.5C479,-661.5 485,-667.5 485,-673.5"/>
<polyline fill="none" stroke="black" points="485,-673.5 485,-967.5 "/>
<path fill="none" stroke="black" d="M485,-967.5C485,-973.5 479,-979.5 473,-979.5"/>
<polyline fill="none" stroke="black" points="473,-979.5 343,-979.5 "/>
<path fill="none" stroke="black" d="M343,-979.5C337,-979.5 331,-973.5 331,-967.5"/>
<polyline fill="none" stroke="black" points="331,-967.5 331,-673.5 "/>
<path fill="none" stroke="black" d="M331,-673.5C331,-667.5 337,-661.5 343,-661.5"/>
<text text-anchor="middle" x="408" y="-962.9" font-family="Times Roman,serif" font-size="14.00">DsClassesController</text>
<polyline fill="none" stroke="black" points="331,-953.5 485,-953.5 "/>
<text text-anchor="start" x="339" y="-936.9" font-family="Times Roman,serif" font-size="14.00">add_time_slot</text>
<text text-anchor="start" x="339" y="-918.9" font-family="Times Roman,serif" font-size="14.00">create</text>
<text text-anchor="start" x="339" y="-900.9" font-family="Times Roman,serif" font-size="14.00">destroy</text>
<text text-anchor="start" x="339" y="-882.9" font-family="Times Roman,serif" font-size="14.00">edit</text>
<text text-anchor="start" x="339" y="-864.9" font-family="Times Roman,serif" font-size="14.00">index</text>
<text text-anchor="start" x="339" y="-846.9" font-family="Times Roman,serif" font-size="14.00">new</text>
<text text-anchor="start" x="339" y="-828.9" font-family="Times Roman,serif" font-size="14.00">register</text>
<text text-anchor="start" x="339" y="-810.9" font-family="Times Roman,serif" font-size="14.00">search</text>
<text text-anchor="start" x="339" y="-792.9" font-family="Times Roman,serif" font-size="14.00">show</text>
<text text-anchor="start" x="339" y="-774.9" font-family="Times Roman,serif" font-size="14.00">show_roster</text>
<text text-anchor="start" x="339" y="-756.9" font-family="Times Roman,serif" font-size="14.00">unregister</text>
<text text-anchor="start" x="339" y="-738.9" font-family="Times Roman,serif" font-size="14.00">update</text>
<polyline fill="none" stroke="black" points="331,-729.5 485,-729.5 "/>
<polyline fill="none" stroke="black" points="331,-705.5 485,-705.5 "/>
<text text-anchor="start" x="339" y="-688.9" font-family="Times Roman,serif" font-size="14.00">_layout</text>
<text text-anchor="start" x="339" y="-670.9" font-family="Times Roman,serif" font-size="14.00">ds_class_params</text>
</g>
<!-- ArticlesController -->
<g id="node5" class="node"><title>ArticlesController</title>
<polyline fill="none" stroke="black" points="541,-727.5 654,-727.5 "/>
<path fill="none" stroke="black" d="M654,-727.5C660,-727.5 666,-733.5 666,-739.5"/>
<polyline fill="none" stroke="black" points="666,-739.5 666,-853.5 "/>
<path fill="none" stroke="black" d="M666,-853.5C666,-859.5 660,-865.5 654,-865.5"/>
<polyline fill="none" stroke="black" points="654,-865.5 541,-865.5 "/>
<path fill="none" stroke="black" d="M541,-865.5C535,-865.5 529,-859.5 529,-853.5"/>
<polyline fill="none" stroke="black" points="529,-853.5 529,-739.5 "/>
<path fill="none" stroke="black" d="M529,-739.5C529,-733.5 535,-727.5 541,-727.5"/>
<text text-anchor="middle" x="597.5" y="-848.9" font-family="Times Roman,serif" font-size="14.00">ArticlesController</text>
<polyline fill="none" stroke="black" points="529,-839.5 666,-839.5 "/>
<text text-anchor="start" x="537" y="-822.9" font-family="Times Roman,serif" font-size="14.00">edit</text>
<text text-anchor="start" x="537" y="-804.9" font-family="Times Roman,serif" font-size="14.00">update</text>
<polyline fill="none" stroke="black" points="529,-795.5 666,-795.5 "/>
<polyline fill="none" stroke="black" points="529,-771.5 666,-771.5 "/>
<text text-anchor="start" x="537" y="-754.9" font-family="Times Roman,serif" font-size="14.00">_layout</text>
<text text-anchor="start" x="537" y="-736.9" font-family="Times Roman,serif" font-size="14.00">article_params</text>
</g>
<!-- UsersController -->
<g id="node6" class="node"><title>UsersController</title>
<polyline fill="none" stroke="black" points="299,-221.5 466,-221.5 "/>
<path fill="none" stroke="black" d="M466,-221.5C472,-221.5 478,-227.5 478,-233.5"/>
<polyline fill="none" stroke="black" points="478,-233.5 478,-599.5 "/>
<path fill="none" stroke="black" d="M478,-599.5C478,-605.5 472,-611.5 466,-611.5"/>
<polyline fill="none" stroke="black" points="466,-611.5 299,-611.5 "/>
<path fill="none" stroke="black" d="M299,-611.5C293,-611.5 287,-605.5 287,-599.5"/>
<polyline fill="none" stroke="black" points="287,-599.5 287,-233.5 "/>
<path fill="none" stroke="black" d="M287,-233.5C287,-227.5 293,-221.5 299,-221.5"/>
<text text-anchor="middle" x="382.5" y="-594.9" font-family="Times Roman,serif" font-size="14.00">UsersController</text>
<polyline fill="none" stroke="black" points="287,-585.5 478,-585.5 "/>
<text text-anchor="start" x="295" y="-568.9" font-family="Times Roman,serif" font-size="14.00">checkin</text>
<text text-anchor="start" x="295" y="-550.9" font-family="Times Roman,serif" font-size="14.00">checkin_buddy_walk</text>
<text text-anchor="start" x="295" y="-532.9" font-family="Times Roman,serif" font-size="14.00">checkin_class</text>
<text text-anchor="start" x="295" y="-514.9" font-family="Times Roman,serif" font-size="14.00">create</text>
<text text-anchor="start" x="295" y="-496.9" font-family="Times Roman,serif" font-size="14.00">destroy</text>
<text text-anchor="start" x="295" y="-478.9" font-family="Times Roman,serif" font-size="14.00">edit</text>
<text text-anchor="start" x="295" y="-460.9" font-family="Times Roman,serif" font-size="14.00">give_staff_role</text>
<text text-anchor="start" x="295" y="-442.9" font-family="Times Roman,serif" font-size="14.00">index</text>
<text text-anchor="start" x="295" y="-424.9" font-family="Times Roman,serif" font-size="14.00">new</text>
<text text-anchor="start" x="295" y="-406.9" font-family="Times Roman,serif" font-size="14.00">registration_confirmation</text>
<text text-anchor="start" x="295" y="-388.9" font-family="Times Roman,serif" font-size="14.00">remove_staff_role</text>
<text text-anchor="start" x="295" y="-370.9" font-family="Times Roman,serif" font-size="14.00">search</text>
<text text-anchor="start" x="295" y="-352.9" font-family="Times Roman,serif" font-size="14.00">show</text>
<text text-anchor="start" x="295" y="-334.9" font-family="Times Roman,serif" font-size="14.00">show_registrations</text>
<text text-anchor="start" x="295" y="-316.9" font-family="Times Roman,serif" font-size="14.00">update</text>
<polyline fill="none" stroke="black" points="287,-307.5 478,-307.5 "/>
<polyline fill="none" stroke="black" points="287,-283.5 478,-283.5 "/>
<text text-anchor="start" x="295" y="-266.9" font-family="Times Roman,serif" font-size="14.00">_layout</text>
<text text-anchor="start" x="295" y="-248.9" font-family="Times Roman,serif" font-size="14.00">correct_user</text>
<text text-anchor="start" x="295" y="-230.9" font-family="Times Roman,serif" font-size="14.00">user_params</text>
</g>
<!-- SessionsController -->
<g id="node7" class="node"><title>SessionsController</title>
<polyline fill="none" stroke="black" points="761,-441.5 881,-441.5 "/>
<path fill="none" stroke="black" d="M881,-441.5C887,-441.5 893,-447.5 893,-453.5"/>
<polyline fill="none" stroke="black" points="893,-453.5 893,-567.5 "/>
<path fill="none" stroke="black" d="M893,-567.5C893,-573.5 887,-579.5 881,-579.5"/>
<polyline fill="none" stroke="black" points="881,-579.5 761,-579.5 "/>
<path fill="none" stroke="black" d="M761,-579.5C755,-579.5 749,-573.5 749,-567.5"/>
<polyline fill="none" stroke="black" points="749,-567.5 749,-453.5 "/>
<path fill="none" stroke="black" d="M749,-453.5C749,-447.5 755,-441.5 761,-441.5"/>
<text text-anchor="middle" x="821" y="-562.9" font-family="Times Roman,serif" font-size="14.00">SessionsController</text>
<polyline fill="none" stroke="black" points="749,-553.5 893,-553.5 "/>
<text text-anchor="start" x="757" y="-536.9" font-family="Times Roman,serif" font-size="14.00">create</text>
<text text-anchor="start" x="757" y="-518.9" font-family="Times Roman,serif" font-size="14.00">destroy</text>
<text text-anchor="start" x="757" y="-500.9" font-family="Times Roman,serif" font-size="14.00">new</text>
<polyline fill="none" stroke="black" points="749,-491.5 893,-491.5 "/>
<polyline fill="none" stroke="black" points="749,-467.5 893,-467.5 "/>
<text text-anchor="start" x="757" y="-450.9" font-family="Times Roman,serif" font-size="14.00">_layout</text>
</g>
<!-- DaysController -->
<g id="node8" class="node"><title>DaysController</title>
<polyline fill="none" stroke="black" points="13,-815.5 109,-815.5 "/>
<path fill="none" stroke="black" d="M109,-815.5C115,-815.5 121,-821.5 121,-827.5"/>
<polyline fill="none" stroke="black" points="121,-827.5 121,-941.5 "/>
<path fill="none" stroke="black" d="M121,-941.5C121,-947.5 115,-953.5 109,-953.5"/>
<polyline fill="none" stroke="black" points="109,-953.5 13,-953.5 "/>
<path fill="none" stroke="black" d="M13,-953.5C7,-953.5 1,-947.5 1,-941.5"/>
<polyline fill="none" stroke="black" points="1,-941.5 1,-827.5 "/>
<path fill="none" stroke="black" d="M1,-827.5C1,-821.5 7,-815.5 13,-815.5"/>
<text text-anchor="middle" x="61" y="-936.9" font-family="Times Roman,serif" font-size="14.00">DaysController</text>
<polyline fill="none" stroke="black" points="1,-927.5 121,-927.5 "/>
<text text-anchor="start" x="9" y="-910.9" font-family="Times Roman,serif" font-size="14.00">create</text>
<text text-anchor="start" x="9" y="-892.9" font-family="Times Roman,serif" font-size="14.00">destory</text>
<polyline fill="none" stroke="black" points="1,-883.5 121,-883.5 "/>
<polyline fill="none" stroke="black" points="1,-859.5 121,-859.5 "/>
<text text-anchor="start" x="9" y="-842.9" font-family="Times Roman,serif" font-size="14.00">_layout</text>
<text text-anchor="start" x="9" y="-824.9" font-family="Times Roman,serif" font-size="14.00">day_params</text>
</g>
<!-- ClassSlotsController -->
<g id="node9" class="node"><title>ClassSlotsController</title>
<polyline fill="none" stroke="black" points="101,-419.5 232,-419.5 "/>
<path fill="none" stroke="black" d="M232,-419.5C238,-419.5 244,-425.5 244,-431.5"/>
<polyline fill="none" stroke="black" points="244,-431.5 244,-581.5 "/>
<path fill="none" stroke="black" d="M244,-581.5C244,-587.5 238,-593.5 232,-593.5"/>
<polyline fill="none" stroke="black" points="232,-593.5 101,-593.5 "/>
<path fill="none" stroke="black" d="M101,-593.5C95,-593.5 89,-587.5 89,-581.5"/>
<polyline fill="none" stroke="black" points="89,-581.5 89,-431.5 "/>
<path fill="none" stroke="black" d="M89,-431.5C89,-425.5 95,-419.5 101,-419.5"/>
<text text-anchor="middle" x="166.5" y="-576.9" font-family="Times Roman,serif" font-size="14.00">ClassSlotsController</text>
<polyline fill="none" stroke="black" points="89,-567.5 244,-567.5 "/>
<text text-anchor="start" x="97" y="-550.9" font-family="Times Roman,serif" font-size="14.00">add_day</text>
<text text-anchor="start" x="97" y="-532.9" font-family="Times Roman,serif" font-size="14.00">create</text>
<text text-anchor="start" x="97" y="-514.9" font-family="Times Roman,serif" font-size="14.00">destroy</text>
<text text-anchor="start" x="97" y="-496.9" font-family="Times Roman,serif" font-size="14.00">remove_day</text>
<polyline fill="none" stroke="black" points="89,-487.5 244,-487.5 "/>
<polyline fill="none" stroke="black" points="89,-463.5 244,-463.5 "/>
<text text-anchor="start" x="97" y="-446.9" font-family="Times Roman,serif" font-size="14.00">_layout</text>
<text text-anchor="start" x="97" y="-428.9" font-family="Times Roman,serif" font-size="14.00">class_slot_params</text>
</g>
<!-- TimeSlotsController -->
<g id="node10" class="node"><title>TimeSlotsController</title>
<polyline fill="none" stroke="black" points="35,-45.5 163,-45.5 "/>
<path fill="none" stroke="black" d="M163,-45.5C169,-45.5 175,-51.5 175,-57.5"/>
<polyline fill="none" stroke="black" points="175,-57.5 175,-171.5 "/>
<path fill="none" stroke="black" d="M175,-171.5C175,-177.5 169,-183.5 163,-183.5"/>
<polyline fill="none" stroke="black" points="163,-183.5 35,-183.5 "/>
<path fill="none" stroke="black" d="M35,-183.5C29,-183.5 23,-177.5 23,-171.5"/>
<polyline fill="none" stroke="black" points="23,-171.5 23,-57.5 "/>
<path fill="none" stroke="black" d="M23,-57.5C23,-51.5 29,-45.5 35,-45.5"/>
<text text-anchor="middle" x="99" y="-166.9" font-family="Times Roman,serif" font-size="14.00">TimeSlotsController</text>
<polyline fill="none" stroke="black" points="23,-157.5 175,-157.5 "/>
<text text-anchor="start" x="31" y="-140.9" font-family="Times Roman,serif" font-size="14.00">create</text>
<text text-anchor="start" x="31" y="-122.9" font-family="Times Roman,serif" font-size="14.00">destroy</text>
<polyline fill="none" stroke="black" points="23,-113.5 175,-113.5 "/>
<polyline fill="none" stroke="black" points="23,-89.5 175,-89.5 "/>
<text text-anchor="start" x="31" y="-72.9" font-family="Times Roman,serif" font-size="14.00">_layout</text>
<text text-anchor="start" x="31" y="-54.9" font-family="Times Roman,serif" font-size="14.00">time_slot_params</text>
</g>
<!-- BuddySlotController -->
<g id="node11" class="node"><title>BuddySlotController</title>
<polyline fill="none" stroke="black" points="233,-45.5 365,-45.5 "/>
<path fill="none" stroke="black" d="M365,-45.5C371,-45.5 377,-51.5 377,-57.5"/>
<polyline fill="none" stroke="black" points="377,-57.5 377,-171.5 "/>
<path fill="none" stroke="black" d="M377,-171.5C377,-177.5 371,-183.5 365,-183.5"/>
<polyline fill="none" stroke="black" points="365,-183.5 233,-183.5 "/>
<path fill="none" stroke="black" d="M233,-183.5C227,-183.5 221,-177.5 221,-171.5"/>
<polyline fill="none" stroke="black" points="221,-171.5 221,-57.5 "/>
<path fill="none" stroke="black" d="M221,-57.5C221,-51.5 227,-45.5 233,-45.5"/>
<text text-anchor="middle" x="299" y="-166.9" font-family="Times Roman,serif" font-size="14.00">BuddySlotController</text>
<polyline fill="none" stroke="black" points="221,-157.5 377,-157.5 "/>
<text text-anchor="start" x="229" y="-140.9" font-family="Times Roman,serif" font-size="14.00">create</text>
<text text-anchor="start" x="229" y="-122.9" font-family="Times Roman,serif" font-size="14.00">destroy</text>
<polyline fill="none" stroke="black" points="221,-113.5 377,-113.5 "/>
<polyline fill="none" stroke="black" points="221,-89.5 377,-89.5 "/>
<text text-anchor="start" x="229" y="-72.9" font-family="Times Roman,serif" font-size="14.00">_layout</text>
<text text-anchor="start" x="229" y="-54.9" font-family="Times Roman,serif" font-size="14.00">buddy_slot_params</text>
</g>
<!-- StaticPagesController -->
<g id="node12" class="node"><title>StaticPagesController</title>
<polyline fill="none" stroke="black" points="431,-1.5 572,-1.5 "/>
<path fill="none" stroke="black" d="M572,-1.5C578,-1.5 584,-7.5 584,-13.5"/>
<polyline fill="none" stroke="black" points="584,-13.5 584,-109.5 "/>
<path fill="none" stroke="black" d="M584,-109.5C584,-115.5 578,-121.5 572,-121.5"/>
<polyline fill="none" stroke="black" points="572,-121.5 431,-121.5 "/>
<path fill="none" stroke="black" d="M431,-121.5C425,-121.5 419,-115.5 419,-109.5"/>
<polyline fill="none" stroke="black" points="419,-109.5 419,-13.5 "/>
<path fill="none" stroke="black" d="M419,-13.5C419,-7.5 425,-1.5 431,-1.5"/>
<text text-anchor="middle" x="501.5" y="-104.9" font-family="Times Roman,serif" font-size="14.00">StaticPagesController</text>
<polyline fill="none" stroke="black" points="419,-95.5 584,-95.5 "/>
<text text-anchor="start" x="427" y="-78.9" font-family="Times Roman,serif" font-size="14.00">calendar</text>
<text text-anchor="start" x="427" y="-60.9" font-family="Times Roman,serif" font-size="14.00">home</text>
<polyline fill="none" stroke="black" points="419,-51.5 584,-51.5 "/>
<polyline fill="none" stroke="black" points="419,-27.5 584,-27.5 "/>
<text text-anchor="start" x="427" y="-10.9" font-family="Times Roman,serif" font-size="14.00">_layout</text>
</g>
<!-- EventsController -->
<g id="node13" class="node"><title>EventsController</title>
<polyline fill="none" stroke="black" points="167,-661.5 276,-661.5 "/>
<path fill="none" stroke="black" d="M276,-661.5C282,-661.5 288,-667.5 288,-673.5"/>
<polyline fill="none" stroke="black" points="288,-673.5 288,-967.5 "/>
<path fill="none" stroke="black" d="M288,-967.5C288,-973.5 282,-979.5 276,-979.5"/>
<polyline fill="none" stroke="black" points="276,-979.5 167,-979.5 "/>
<path fill="none" stroke="black" d="M167,-979.5C161,-979.5 155,-973.5 155,-967.5"/>
<polyline fill="none" stroke="black" points="155,-967.5 155,-673.5 "/>
<path fill="none" stroke="black" d="M155,-673.5C155,-667.5 161,-661.5 167,-661.5"/>
<text text-anchor="middle" x="221.5" y="-962.9" font-family="Times Roman,serif" font-size="14.00">EventsController</text>
<polyline fill="none" stroke="black" points="155,-953.5 288,-953.5 "/>
<text text-anchor="start" x="163" y="-936.9" font-family="Times Roman,serif" font-size="14.00">add_time_slot</text>
<text text-anchor="start" x="163" y="-918.9" font-family="Times Roman,serif" font-size="14.00">create</text>
<text text-anchor="start" x="163" y="-900.9" font-family="Times Roman,serif" font-size="14.00">destroy</text>
<text text-anchor="start" x="163" y="-882.9" font-family="Times Roman,serif" font-size="14.00">edit</text>
<text text-anchor="start" x="163" y="-864.9" font-family="Times Roman,serif" font-size="14.00">index</text>
<text text-anchor="start" x="163" y="-846.9" font-family="Times Roman,serif" font-size="14.00">new</text>
<text text-anchor="start" x="163" y="-828.9" font-family="Times Roman,serif" font-size="14.00">register</text>
<text text-anchor="start" x="163" y="-810.9" font-family="Times Roman,serif" font-size="14.00">search</text>
<text text-anchor="start" x="163" y="-792.9" font-family="Times Roman,serif" font-size="14.00">show</text>
<text text-anchor="start" x="163" y="-774.9" font-family="Times Roman,serif" font-size="14.00">show_roster</text>
<text text-anchor="start" x="163" y="-756.9" font-family="Times Roman,serif" font-size="14.00">unregister</text>
<text text-anchor="start" x="163" y="-738.9" font-family="Times Roman,serif" font-size="14.00">update</text>
<polyline fill="none" stroke="black" points="155,-729.5 288,-729.5 "/>
<polyline fill="none" stroke="black" points="155,-705.5 288,-705.5 "/>
<text text-anchor="start" x="163" y="-688.9" font-family="Times Roman,serif" font-size="14.00">_layout</text>
<text text-anchor="start" x="163" y="-670.9" font-family="Times Roman,serif" font-size="14.00">event_params</text>
</g>
<!-- ApplicationController -->
<g id="node14" class="node"><title>ApplicationController</title>
<polyline fill="none" stroke="black" points="101,-221.5 238,-221.5 "/>
<path fill="none" stroke="black" d="M238,-221.5C244,-221.5 250,-227.5 250,-233.5"/>
<polyline fill="none" stroke="black" points="250,-233.5 250,-363.5 "/>
<path fill="none" stroke="black" d="M250,-363.5C250,-369.5 244,-375.5 238,-375.5"/>
<polyline fill="none" stroke="black" points="238,-375.5 101,-375.5 "/>
<path fill="none" stroke="black" d="M101,-375.5C95,-375.5 89,-369.5 89,-363.5"/>
<polyline fill="none" stroke="black" points="89,-363.5 89,-233.5 "/>
<path fill="none" stroke="black" d="M89,-233.5C89,-227.5 95,-221.5 101,-221.5"/>
<text text-anchor="middle" x="169.5" y="-358.9" font-family="Times Roman,serif" font-size="14.00">ApplicationController</text>
<polyline fill="none" stroke="black" points="89,-349.5 250,-349.5 "/>
<polyline fill="none" stroke="black" points="89,-325.5 250,-325.5 "/>
<polyline fill="none" stroke="black" points="89,-301.5 250,-301.5 "/>
<text text-anchor="start" x="97" y="-284.9" font-family="Times Roman,serif" font-size="14.00">_layout</text>
<text text-anchor="start" x="97" y="-266.9" font-family="Times Roman,serif" font-size="14.00">admin_user</text>
<text text-anchor="start" x="97" y="-248.9" font-family="Times Roman,serif" font-size="14.00">logged_in_user</text>
<text text-anchor="start" x="97" y="-230.9" font-family="Times Roman,serif" font-size="14.00">staff_user</text>
</g>
<!-- AccountActivationsController -->
<g id="node15" class="node"><title>AccountActivationsController</title>
<polyline fill="none" stroke="black" points="761,-287.5 955,-287.5 "/>
<path fill="none" stroke="black" d="M955,-287.5C961,-287.5 967,-293.5 967,-299.5"/>
<polyline fill="none" stroke="black" points="967,-299.5 967,-377.5 "/>
<path fill="none" stroke="black" d="M967,-377.5C967,-383.5 961,-389.5 955,-389.5"/>
<polyline fill="none" stroke="black" points="955,-389.5 761,-389.5 "/>
<path fill="none" stroke="black" d="M761,-389.5C755,-389.5 749,-383.5 749,-377.5"/>
<polyline fill="none" stroke="black" points="749,-377.5 749,-299.5 "/>
<path fill="none" stroke="black" d="M749,-299.5C749,-293.5 755,-287.5 761,-287.5"/>
<text text-anchor="middle" x="858" y="-372.9" font-family="Times Roman,serif" font-size="14.00">AccountActivationsController</text>
<polyline fill="none" stroke="black" points="749,-363.5 967,-363.5 "/>
<text text-anchor="start" x="757" y="-346.9" font-family="Times Roman,serif" font-size="14.00">edit</text>
<polyline fill="none" stroke="black" points="749,-337.5 967,-337.5 "/>
<polyline fill="none" stroke="black" points="749,-313.5 967,-313.5 "/>
<text text-anchor="start" x="757" y="-296.9" font-family="Times Roman,serif" font-size="14.00">_layout</text>
</g>
</g>
</svg>
