<?xml version="1.0" encoding="UTF-8" standalone="no"?>
<!DOCTYPE svg PUBLIC "-//W3C//DTD SVG 1.1//EN"
 "http://www.w3.org/Graphics/SVG/1.1/DTD/svg11.dtd">
<!-- Generated by graphviz version 2.26.3 (20100126.1600)
 -->
<!-- Title: controllers_diagram Pages: 1 -->
<svg width="866pt" height="883pt"
 viewBox="0.00 0.00 866.00 883.00" xmlns="http://www.w3.org/2000/svg" xmlns:xlink="http://www.w3.org/1999/xlink">
<g id="graph1" class="graph" transform="scale(1 1) rotate(0) translate(4 879)">
<title>controllers_diagram</title>
<polygon fill="white" stroke="white" points="-4,5 -4,-879 863,-879 863,5 -4,5"/>
<!-- _diagram_info -->
<g id="node1" class="node"><title>_diagram_info</title>
<text text-anchor="start" x="449" y="-144.3" font-family="Times Roman,serif" font-size="13.00">Controllers diagram</text>
<text text-anchor="start" x="449" y="-127.3" font-family="Times Roman,serif" font-size="13.00">Date: Apr 28 2015 &#45; 19:38</text>
<text text-anchor="start" x="449" y="-110.3" font-family="Times Roman,serif" font-size="13.00">Migration version: 20150428152403</text>
<text text-anchor="start" x="449" y="-93.3" font-family="Times Roman,serif" font-size="13.00">Generated by RailRoady 1.3.0</text>
<text text-anchor="start" x="449" y="-76.3" font-family="Times Roman,serif" font-size="13.00">http://railroady.prestonlee.com</text>
</g>
<!-- BuddyWalksController -->
<g id="node2" class="node"><title>BuddyWalksController</title>
<polyline fill="none" stroke="black" points="233,-155.5 379,-155.5 "/>
<path fill="none" stroke="black" d="M379,-155.5C385,-155.5 391,-161.5 391,-167.5"/>
<polyline fill="none" stroke="black" points="391,-167.5 391,-461.5 "/>
<path fill="none" stroke="black" d="M391,-461.5C391,-467.5 385,-473.5 379,-473.5"/>
<polyline fill="none" stroke="black" points="379,-473.5 233,-473.5 "/>
<path fill="none" stroke="black" d="M233,-473.5C227,-473.5 221,-467.5 221,-461.5"/>
<polyline fill="none" stroke="black" points="221,-461.5 221,-167.5 "/>
<path fill="none" stroke="black" d="M221,-167.5C221,-161.5 227,-155.5 233,-155.5"/>
<text text-anchor="middle" x="306" y="-456.9" font-family="Times Roman,serif" font-size="14.00">BuddyWalksController</text>
<polyline fill="none" stroke="black" points="221,-447.5 391,-447.5 "/>
<text text-anchor="start" x="229" y="-430.9" font-family="Times Roman,serif" font-size="14.00">add_time_slot</text>
<text text-anchor="start" x="229" y="-412.9" font-family="Times Roman,serif" font-size="14.00">create</text>
<text text-anchor="start" x="229" y="-394.9" font-family="Times Roman,serif" font-size="14.00">destroy</text>
<text text-anchor="start" x="229" y="-376.9" font-family="Times Roman,serif" font-size="14.00">edit</text>
<text text-anchor="start" x="229" y="-358.9" font-family="Times Roman,serif" font-size="14.00">index</text>
<text text-anchor="start" x="229" y="-340.9" font-family="Times Roman,serif" font-size="14.00">new</text>
<text text-anchor="start" x="229" y="-322.9" font-family="Times Roman,serif" font-size="14.00">register</text>
<text text-anchor="start" x="229" y="-304.9" font-family="Times Roman,serif" font-size="14.00">search</text>
<text text-anchor="start" x="229" y="-286.9" font-family="Times Roman,serif" font-size="14.00">show</text>
<text text-anchor="start" x="229" y="-268.9" font-family="Times Roman,serif" font-size="14.00">show_roster</text>
<text text-anchor="start" x="229" y="-250.9" font-family="Times Roman,serif" font-size="14.00">update</text>
<polyline fill="none" stroke="black" points="221,-241.5 391,-241.5 "/>
<polyline fill="none" stroke="black" points="221,-217.5 391,-217.5 "/>
<text text-anchor="start" x="229" y="-200.9" font-family="Times Roman,serif" font-size="14.00">_layout</text>
<text text-anchor="start" x="229" y="-182.9" font-family="Times Roman,serif" font-size="14.00">buddy_walk_params</text>
<text text-anchor="start" x="229" y="-164.9" font-family="Times Roman,serif" font-size="14.00">event_params</text>
</g>
<!-- PasswordResetsController -->
<g id="node3" class="node"><title>PasswordResetsController</title>
<polyline fill="none" stroke="black" points="563,-573.5 735,-573.5 "/>
<path fill="none" stroke="black" d="M735,-573.5C741,-573.5 747,-579.5 747,-585.5"/>
<polyline fill="none" stroke="black" points="747,-585.5 747,-807.5 "/>
<path fill="none" stroke="black" d="M747,-807.5C747,-813.5 741,-819.5 735,-819.5"/>
<polyline fill="none" stroke="black" points="735,-819.5 563,-819.5 "/>
<path fill="none" stroke="black" d="M563,-819.5C557,-819.5 551,-813.5 551,-807.5"/>
<polyline fill="none" stroke="black" points="551,-807.5 551,-585.5 "/>
<path fill="none" stroke="black" d="M551,-585.5C551,-579.5 557,-573.5 563,-573.5"/>
<text text-anchor="middle" x="649" y="-802.9" font-family="Times Roman,serif" font-size="14.00">PasswordResetsController</text>
<polyline fill="none" stroke="black" points="551,-793.5 747,-793.5 "/>
<text text-anchor="start" x="559" y="-776.9" font-family="Times Roman,serif" font-size="14.00">create</text>
<text text-anchor="start" x="559" y="-758.9" font-family="Times Roman,serif" font-size="14.00">edit</text>
<text text-anchor="start" x="559" y="-740.9" font-family="Times Roman,serif" font-size="14.00">new</text>
<text text-anchor="start" x="559" y="-722.9" font-family="Times Roman,serif" font-size="14.00">update</text>
<polyline fill="none" stroke="black" points="551,-713.5 747,-713.5 "/>
<polyline fill="none" stroke="black" points="551,-689.5 747,-689.5 "/>
<text text-anchor="start" x="559" y="-672.9" font-family="Times Roman,serif" font-size="14.00">_layout</text>
<text text-anchor="start" x="559" y="-654.9" font-family="Times Roman,serif" font-size="14.00">both_passwords_blank?</text>
<text text-anchor="start" x="559" y="-636.9" font-family="Times Roman,serif" font-size="14.00">check_expiration</text>
<text text-anchor="start" x="559" y="-618.9" font-family="Times Roman,serif" font-size="14.00">get_user</text>
<text text-anchor="start" x="559" y="-600.9" font-family="Times Roman,serif" font-size="14.00">user_params</text>
<text text-anchor="start" x="559" y="-582.9" font-family="Times Roman,serif" font-size="14.00">valid_user</text>
</g>
<!-- DsClassesController -->
<g id="node4" class="node"><title>DsClassesController</title>
<polyline fill="none" stroke="black" points="255,-507.5 385,-507.5 "/>
<path fill="none" stroke="black" d="M385,-507.5C391,-507.5 397,-513.5 397,-519.5"/>
<polyline fill="none" stroke="black" points="397,-519.5 397,-813.5 "/>
<path fill="none" stroke="black" d="M397,-813.5C397,-819.5 391,-825.5 385,-825.5"/>
<polyline fill="none" stroke="black" points="385,-825.5 255,-825.5 "/>
<path fill="none" stroke="black" d="M255,-825.5C249,-825.5 243,-819.5 243,-813.5"/>
<polyline fill="none" stroke="black" points="243,-813.5 243,-519.5 "/>
<path fill="none" stroke="black" d="M243,-519.5C243,-513.5 249,-507.5 255,-507.5"/>
<text text-anchor="middle" x="320" y="-808.9" font-family="Times Roman,serif" font-size="14.00">DsClassesController</text>
<polyline fill="none" stroke="black" points="243,-799.5 397,-799.5 "/>
<text text-anchor="start" x="251" y="-782.9" font-family="Times Roman,serif" font-size="14.00">add_time_slot</text>
<text text-anchor="start" x="251" y="-764.9" font-family="Times Roman,serif" font-size="14.00">create</text>
<text text-anchor="start" x="251" y="-746.9" font-family="Times Roman,serif" font-size="14.00">destroy</text>
<text text-anchor="start" x="251" y="-728.9" font-family="Times Roman,serif" font-size="14.00">edit</text>
<text text-anchor="start" x="251" y="-710.9" font-family="Times Roman,serif" font-size="14.00">index</text>
<text text-anchor="start" x="251" y="-692.9" font-family="Times Roman,serif" font-size="14.00">new</text>
<text text-anchor="start" x="251" y="-674.9" font-family="Times Roman,serif" font-size="14.00">register</text>
<text text-anchor="start" x="251" y="-656.9" font-family="Times Roman,serif" font-size="14.00">search</text>
<text text-anchor="start" x="251" y="-638.9" font-family="Times Roman,serif" font-size="14.00">show</text>
<text text-anchor="start" x="251" y="-620.9" font-family="Times Roman,serif" font-size="14.00">show_roster</text>
<text text-anchor="start" x="251" y="-602.9" font-family="Times Roman,serif" font-size="14.00">update</text>
<polyline fill="none" stroke="black" points="243,-593.5 397,-593.5 "/>
<polyline fill="none" stroke="black" points="243,-569.5 397,-569.5 "/>
<text text-anchor="start" x="251" y="-552.9" font-family="Times Roman,serif" font-size="14.00">_layout</text>
<text text-anchor="start" x="251" y="-534.9" font-family="Times Roman,serif" font-size="14.00">ds_class_params</text>
<text text-anchor="start" x="251" y="-516.9" font-family="Times Roman,serif" font-size="14.00">event_params</text>
</g>
<!-- ArticlesController -->
<g id="node5" class="node"><title>ArticlesController</title>
<polyline fill="none" stroke="black" points="57,-199.5 170,-199.5 "/>
<path fill="none" stroke="black" d="M170,-199.5C176,-199.5 182,-205.5 182,-211.5"/>
<polyline fill="none" stroke="black" points="182,-211.5 182,-325.5 "/>
<path fill="none" stroke="black" d="M182,-325.5C182,-331.5 176,-337.5 170,-337.5"/>
<polyline fill="none" stroke="black" points="170,-337.5 57,-337.5 "/>
<path fill="none" stroke="black" d="M57,-337.5C51,-337.5 45,-331.5 45,-325.5"/>
<polyline fill="none" stroke="black" points="45,-325.5 45,-211.5 "/>
<path fill="none" stroke="black" d="M45,-211.5C45,-205.5 51,-199.5 57,-199.5"/>
<text text-anchor="middle" x="113.5" y="-320.9" font-family="Times Roman,serif" font-size="14.00">ArticlesController</text>
<polyline fill="none" stroke="black" points="45,-311.5 182,-311.5 "/>
<text text-anchor="start" x="53" y="-294.9" font-family="Times Roman,serif" font-size="14.00">edit</text>
<text text-anchor="start" x="53" y="-276.9" font-family="Times Roman,serif" font-size="14.00">update</text>
<polyline fill="none" stroke="black" points="45,-267.5 182,-267.5 "/>
<polyline fill="none" stroke="black" points="45,-243.5 182,-243.5 "/>
<text text-anchor="start" x="53" y="-226.9" font-family="Times Roman,serif" font-size="14.00">_layout</text>
<text text-anchor="start" x="53" y="-208.9" font-family="Times Roman,serif" font-size="14.00">article_params</text>
</g>
<!-- UsersController -->
<g id="node6" class="node"><title>UsersController</title>
<polyline fill="none" stroke="black" points="453,-199.5 577,-199.5 "/>
<path fill="none" stroke="black" d="M577,-199.5C583,-199.5 589,-205.5 589,-211.5"/>
<polyline fill="none" stroke="black" points="589,-211.5 589,-523.5 "/>
<path fill="none" stroke="black" d="M589,-523.5C589,-529.5 583,-535.5 577,-535.5"/>
<polyline fill="none" stroke="black" points="577,-535.5 453,-535.5 "/>
<path fill="none" stroke="black" d="M453,-535.5C447,-535.5 441,-529.5 441,-523.5"/>
<polyline fill="none" stroke="black" points="441,-523.5 441,-211.5 "/>
<path fill="none" stroke="black" d="M441,-211.5C441,-205.5 447,-199.5 453,-199.5"/>
<text text-anchor="middle" x="515" y="-518.9" font-family="Times Roman,serif" font-size="14.00">UsersController</text>
<polyline fill="none" stroke="black" points="441,-509.5 589,-509.5 "/>
<text text-anchor="start" x="449" y="-492.9" font-family="Times Roman,serif" font-size="14.00">checkin</text>
<text text-anchor="start" x="449" y="-474.9" font-family="Times Roman,serif" font-size="14.00">create</text>
<text text-anchor="start" x="449" y="-456.9" font-family="Times Roman,serif" font-size="14.00">destroy</text>
<text text-anchor="start" x="449" y="-438.9" font-family="Times Roman,serif" font-size="14.00">edit</text>
<text text-anchor="start" x="449" y="-420.9" font-family="Times Roman,serif" font-size="14.00">give_staff_role</text>
<text text-anchor="start" x="449" y="-402.9" font-family="Times Roman,serif" font-size="14.00">index</text>
<text text-anchor="start" x="449" y="-384.9" font-family="Times Roman,serif" font-size="14.00">new</text>
<text text-anchor="start" x="449" y="-366.9" font-family="Times Roman,serif" font-size="14.00">remove_staff_role</text>
<text text-anchor="start" x="449" y="-348.9" font-family="Times Roman,serif" font-size="14.00">search</text>
<text text-anchor="start" x="449" y="-330.9" font-family="Times Roman,serif" font-size="14.00">show</text>
<text text-anchor="start" x="449" y="-312.9" font-family="Times Roman,serif" font-size="14.00">show_registrations</text>
<text text-anchor="start" x="449" y="-294.9" font-family="Times Roman,serif" font-size="14.00">update</text>
<polyline fill="none" stroke="black" points="441,-285.5 589,-285.5 "/>
<polyline fill="none" stroke="black" points="441,-261.5 589,-261.5 "/>
<text text-anchor="start" x="449" y="-244.9" font-family="Times Roman,serif" font-size="14.00">_layout</text>
<text text-anchor="start" x="449" y="-226.9" font-family="Times Roman,serif" font-size="14.00">correct_user</text>
<text text-anchor="start" x="449" y="-208.9" font-family="Times Roman,serif" font-size="14.00">user_params</text>
</g>
<!-- SessionsController -->
<g id="node7" class="node"><title>SessionsController</title>
<polyline fill="none" stroke="black" points="13,-23.5 133,-23.5 "/>
<path fill="none" stroke="black" d="M133,-23.5C139,-23.5 145,-29.5 145,-35.5"/>
<polyline fill="none" stroke="black" points="145,-35.5 145,-149.5 "/>
<path fill="none" stroke="black" d="M145,-149.5C145,-155.5 139,-161.5 133,-161.5"/>
<polyline fill="none" stroke="black" points="133,-161.5 13,-161.5 "/>
<path fill="none" stroke="black" d="M13,-161.5C7,-161.5 1,-155.5 1,-149.5"/>
<polyline fill="none" stroke="black" points="1,-149.5 1,-35.5 "/>
<path fill="none" stroke="black" d="M1,-35.5C1,-29.5 7,-23.5 13,-23.5"/>
<text text-anchor="middle" x="73" y="-144.9" font-family="Times Roman,serif" font-size="14.00">SessionsController</text>
<polyline fill="none" stroke="black" points="1,-135.5 145,-135.5 "/>
<text text-anchor="start" x="9" y="-118.9" font-family="Times Roman,serif" font-size="14.00">create</text>
<text text-anchor="start" x="9" y="-100.9" font-family="Times Roman,serif" font-size="14.00">destroy</text>
<text text-anchor="start" x="9" y="-82.9" font-family="Times Roman,serif" font-size="14.00">new</text>
<polyline fill="none" stroke="black" points="1,-73.5 145,-73.5 "/>
<polyline fill="none" stroke="black" points="1,-49.5 145,-49.5 "/>
<text text-anchor="start" x="9" y="-32.9" font-family="Times Roman,serif" font-size="14.00">_layout</text>
</g>
<!-- TimeSlotsController -->
<g id="node8" class="node"><title>TimeSlotsController</title>
<polyline fill="none" stroke="black" points="651,-353.5 779,-353.5 "/>
<path fill="none" stroke="black" d="M779,-353.5C785,-353.5 791,-359.5 791,-365.5"/>
<polyline fill="none" stroke="black" points="791,-365.5 791,-479.5 "/>
<path fill="none" stroke="black" d="M791,-479.5C791,-485.5 785,-491.5 779,-491.5"/>
<polyline fill="none" stroke="black" points="779,-491.5 651,-491.5 "/>
<path fill="none" stroke="black" d="M651,-491.5C645,-491.5 639,-485.5 639,-479.5"/>
<polyline fill="none" stroke="black" points="639,-479.5 639,-365.5 "/>
<path fill="none" stroke="black" d="M639,-365.5C639,-359.5 645,-353.5 651,-353.5"/>
<text text-anchor="middle" x="715" y="-474.9" font-family="Times Roman,serif" font-size="14.00">TimeSlotsController</text>
<polyline fill="none" stroke="black" points="639,-465.5 791,-465.5 "/>
<text text-anchor="start" x="647" y="-448.9" font-family="Times Roman,serif" font-size="14.00">create</text>
<text text-anchor="start" x="647" y="-430.9" font-family="Times Roman,serif" font-size="14.00">destroy</text>
<polyline fill="none" stroke="black" points="639,-421.5 791,-421.5 "/>
<polyline fill="none" stroke="black" points="639,-397.5 791,-397.5 "/>
<text text-anchor="start" x="647" y="-380.9" font-family="Times Roman,serif" font-size="14.00">_layout</text>
<text text-anchor="start" x="647" y="-362.9" font-family="Times Roman,serif" font-size="14.00">time_slot_params</text>
</g>
<!-- StaticPagesController -->
<g id="node9" class="node"><title>StaticPagesController</title>
<polyline fill="none" stroke="black" points="189,-1.5 330,-1.5 "/>
<path fill="none" stroke="black" d="M330,-1.5C336,-1.5 342,-7.5 342,-13.5"/>
<polyline fill="none" stroke="black" points="342,-13.5 342,-109.5 "/>
<path fill="none" stroke="black" d="M342,-109.5C342,-115.5 336,-121.5 330,-121.5"/>
<polyline fill="none" stroke="black" points="330,-121.5 189,-121.5 "/>
<path fill="none" stroke="black" d="M189,-121.5C183,-121.5 177,-115.5 177,-109.5"/>
<polyline fill="none" stroke="black" points="177,-109.5 177,-13.5 "/>
<path fill="none" stroke="black" d="M177,-13.5C177,-7.5 183,-1.5 189,-1.5"/>
<text text-anchor="middle" x="259.5" y="-104.9" font-family="Times Roman,serif" font-size="14.00">StaticPagesController</text>
<polyline fill="none" stroke="black" points="177,-95.5 342,-95.5 "/>
<text text-anchor="start" x="185" y="-78.9" font-family="Times Roman,serif" font-size="14.00">calendar</text>
<text text-anchor="start" x="185" y="-60.9" font-family="Times Roman,serif" font-size="14.00">home</text>
<polyline fill="none" stroke="black" points="177,-51.5 342,-51.5 "/>
<polyline fill="none" stroke="black" points="177,-27.5 342,-27.5 "/>
<text text-anchor="start" x="185" y="-10.9" font-family="Times Roman,serif" font-size="14.00">_layout</text>
</g>
<!-- EventsController -->
<g id="node10" class="node"><title>EventsController</title>
<polyline fill="none" stroke="black" points="79,-573.5 188,-573.5 "/>
<path fill="none" stroke="black" d="M188,-573.5C194,-573.5 200,-579.5 200,-585.5"/>
<polyline fill="none" stroke="black" points="200,-585.5 200,-861.5 "/>
<path fill="none" stroke="black" d="M200,-861.5C200,-867.5 194,-873.5 188,-873.5"/>
<polyline fill="none" stroke="black" points="188,-873.5 79,-873.5 "/>
<path fill="none" stroke="black" d="M79,-873.5C73,-873.5 67,-867.5 67,-861.5"/>
<polyline fill="none" stroke="black" points="67,-861.5 67,-585.5 "/>
<path fill="none" stroke="black" d="M67,-585.5C67,-579.5 73,-573.5 79,-573.5"/>
<text text-anchor="middle" x="133.5" y="-856.9" font-family="Times Roman,serif" font-size="14.00">EventsController</text>
<polyline fill="none" stroke="black" points="67,-847.5 200,-847.5 "/>
<text text-anchor="start" x="75" y="-830.9" font-family="Times Roman,serif" font-size="14.00">add_time_slot</text>
<text text-anchor="start" x="75" y="-812.9" font-family="Times Roman,serif" font-size="14.00">create</text>
<text text-anchor="start" x="75" y="-794.9" font-family="Times Roman,serif" font-size="14.00">destroy</text>
<text text-anchor="start" x="75" y="-776.9" font-family="Times Roman,serif" font-size="14.00">edit</text>
<text text-anchor="start" x="75" y="-758.9" font-family="Times Roman,serif" font-size="14.00">index</text>
<text text-anchor="start" x="75" y="-740.9" font-family="Times Roman,serif" font-size="14.00">new</text>
<text text-anchor="start" x="75" y="-722.9" font-family="Times Roman,serif" font-size="14.00">register</text>
<text text-anchor="start" x="75" y="-704.9" font-family="Times Roman,serif" font-size="14.00">search</text>
<text text-anchor="start" x="75" y="-686.9" font-family="Times Roman,serif" font-size="14.00">show</text>
<text text-anchor="start" x="75" y="-668.9" font-family="Times Roman,serif" font-size="14.00">show_roster</text>
<text text-anchor="start" x="75" y="-650.9" font-family="Times Roman,serif" font-size="14.00">update</text>
<polyline fill="none" stroke="black" points="67,-641.5 200,-641.5 "/>
<polyline fill="none" stroke="black" points="67,-617.5 200,-617.5 "/>
<text text-anchor="start" x="75" y="-600.9" font-family="Times Roman,serif" font-size="14.00">_layout</text>
<text text-anchor="start" x="75" y="-582.9" font-family="Times Roman,serif" font-size="14.00">event_params</text>
</g>
<!-- ApplicationController -->
<g id="node11" class="node"><title>ApplicationController</title>
<polyline fill="none" stroke="black" points="35,-375.5 172,-375.5 "/>
<path fill="none" stroke="black" d="M172,-375.5C178,-375.5 184,-381.5 184,-387.5"/>
<polyline fill="none" stroke="black" points="184,-387.5 184,-517.5 "/>
<path fill="none" stroke="black" d="M184,-517.5C184,-523.5 178,-529.5 172,-529.5"/>
<polyline fill="none" stroke="black" points="172,-529.5 35,-529.5 "/>
<path fill="none" stroke="black" d="M35,-529.5C29,-529.5 23,-523.5 23,-517.5"/>
<polyline fill="none" stroke="black" points="23,-517.5 23,-387.5 "/>
<path fill="none" stroke="black" d="M23,-387.5C23,-381.5 29,-375.5 35,-375.5"/>
<text text-anchor="middle" x="103.5" y="-512.9" font-family="Times Roman,serif" font-size="14.00">ApplicationController</text>
<polyline fill="none" stroke="black" points="23,-503.5 184,-503.5 "/>
<polyline fill="none" stroke="black" points="23,-479.5 184,-479.5 "/>
<polyline fill="none" stroke="black" points="23,-455.5 184,-455.5 "/>
<text text-anchor="start" x="31" y="-438.9" font-family="Times Roman,serif" font-size="14.00">_layout</text>
<text text-anchor="start" x="31" y="-420.9" font-family="Times Roman,serif" font-size="14.00">admin_user</text>
<text text-anchor="start" x="31" y="-402.9" font-family="Times Roman,serif" font-size="14.00">logged_in_user</text>
<text text-anchor="start" x="31" y="-384.9" font-family="Times Roman,serif" font-size="14.00">staff_user</text>
</g>
<!-- AccountActivationsController -->
<g id="node12" class="node"><title>AccountActivationsController</title>
<polyline fill="none" stroke="black" points="651,-199.5 845,-199.5 "/>
<path fill="none" stroke="black" d="M845,-199.5C851,-199.5 857,-205.5 857,-211.5"/>
<polyline fill="none" stroke="black" points="857,-211.5 857,-289.5 "/>
<path fill="none" stroke="black" d="M857,-289.5C857,-295.5 851,-301.5 845,-301.5"/>
<polyline fill="none" stroke="black" points="845,-301.5 651,-301.5 "/>
<path fill="none" stroke="black" d="M651,-301.5C645,-301.5 639,-295.5 639,-289.5"/>
<polyline fill="none" stroke="black" points="639,-289.5 639,-211.5 "/>
<path fill="none" stroke="black" d="M639,-211.5C639,-205.5 645,-199.5 651,-199.5"/>
<text text-anchor="middle" x="748" y="-284.9" font-family="Times Roman,serif" font-size="14.00">AccountActivationsController</text>
<polyline fill="none" stroke="black" points="639,-275.5 857,-275.5 "/>
<text text-anchor="start" x="647" y="-258.9" font-family="Times Roman,serif" font-size="14.00">edit</text>
<polyline fill="none" stroke="black" points="639,-249.5 857,-249.5 "/>
<polyline fill="none" stroke="black" points="639,-225.5 857,-225.5 "/>
<text text-anchor="start" x="647" y="-208.9" font-family="Times Roman,serif" font-size="14.00">_layout</text>
</g>
</g>
</svg>
