<?xml version="1.0" encoding="UTF-8" standalone="no"?>
<!DOCTYPE svg PUBLIC "-//W3C//DTD SVG 1.1//EN"
 "http://www.w3.org/Graphics/SVG/1.1/DTD/svg11.dtd">
<!-- Generated by graphviz version 2.26.3 (20100126.1600)
 -->
<!-- Title: controllers_diagram Pages: 1 -->
<svg width="762pt" height="729pt"
 viewBox="0.00 0.00 762.00 729.00" xmlns="http://www.w3.org/2000/svg" xmlns:xlink="http://www.w3.org/1999/xlink">
<g id="graph1" class="graph" transform="scale(1 1) rotate(0) translate(4 725)">
<title>controllers_diagram</title>
<polygon fill="white" stroke="white" points="-4,5 -4,-725 759,-725 759,5 -4,5"/>
<!-- _diagram_info -->
<g id="node1" class="node"><title>_diagram_info</title>
<text text-anchor="start" x="469" y="-518.3" font-family="Times Roman,serif" font-size="13.00">Controllers diagram</text>
<text text-anchor="start" x="469" y="-501.3" font-family="Times Roman,serif" font-size="13.00">Date: Apr 05 2015 &#45; 17:40</text>
<text text-anchor="start" x="469" y="-484.3" font-family="Times Roman,serif" font-size="13.00">Migration version: 20141210013805</text>
<text text-anchor="start" x="469" y="-467.3" font-family="Times Roman,serif" font-size="13.00">Generated by RailRoady 1.3.0</text>
<text text-anchor="start" x="469" y="-450.3" font-family="Times Roman,serif" font-size="13.00">http://railroady.prestonlee.com</text>
</g>
<!-- PasswordResetsController -->
<g id="node2" class="node"><title>PasswordResetsController</title>
<polyline fill="none" stroke="black" points="213,-141.5 385,-141.5 "/>
<path fill="none" stroke="black" d="M385,-141.5C391,-141.5 397,-147.5 397,-153.5"/>
<polyline fill="none" stroke="black" points="397,-153.5 397,-375.5 "/>
<path fill="none" stroke="black" d="M397,-375.5C397,-381.5 391,-387.5 385,-387.5"/>
<polyline fill="none" stroke="black" points="385,-387.5 213,-387.5 "/>
<path fill="none" stroke="black" d="M213,-387.5C207,-387.5 201,-381.5 201,-375.5"/>
<polyline fill="none" stroke="black" points="201,-375.5 201,-153.5 "/>
<path fill="none" stroke="black" d="M201,-153.5C201,-147.5 207,-141.5 213,-141.5"/>
<text text-anchor="middle" x="299" y="-370.9" font-family="Times Roman,serif" font-size="14.00">PasswordResetsController</text>
<polyline fill="none" stroke="black" points="201,-361.5 397,-361.5 "/>
<text text-anchor="start" x="209" y="-344.9" font-family="Times Roman,serif" font-size="14.00">create</text>
<text text-anchor="start" x="209" y="-326.9" font-family="Times Roman,serif" font-size="14.00">edit</text>
<text text-anchor="start" x="209" y="-308.9" font-family="Times Roman,serif" font-size="14.00">new</text>
<text text-anchor="start" x="209" y="-290.9" font-family="Times Roman,serif" font-size="14.00">update</text>
<polyline fill="none" stroke="black" points="201,-281.5 397,-281.5 "/>
<polyline fill="none" stroke="black" points="201,-257.5 397,-257.5 "/>
<text text-anchor="start" x="209" y="-240.9" font-family="Times Roman,serif" font-size="14.00">_layout</text>
<text text-anchor="start" x="209" y="-222.9" font-family="Times Roman,serif" font-size="14.00">both_passwords_blank?</text>
<text text-anchor="start" x="209" y="-204.9" font-family="Times Roman,serif" font-size="14.00">check_expiration</text>
<text text-anchor="start" x="209" y="-186.9" font-family="Times Roman,serif" font-size="14.00">get_user</text>
<text text-anchor="start" x="209" y="-168.9" font-family="Times Roman,serif" font-size="14.00">user_params</text>
<text text-anchor="start" x="209" y="-150.9" font-family="Times Roman,serif" font-size="14.00">valid_user</text>
</g>
<!-- UsersController -->
<g id="node3" class="node"><title>UsersController</title>
<polyline fill="none" stroke="black" points="453,-141.5 577,-141.5 "/>
<path fill="none" stroke="black" d="M577,-141.5C583,-141.5 589,-147.5 589,-153.5"/>
<polyline fill="none" stroke="black" points="589,-153.5 589,-393.5 "/>
<path fill="none" stroke="black" d="M589,-393.5C589,-399.5 583,-405.5 577,-405.5"/>
<polyline fill="none" stroke="black" points="577,-405.5 453,-405.5 "/>
<path fill="none" stroke="black" d="M453,-405.5C447,-405.5 441,-399.5 441,-393.5"/>
<polyline fill="none" stroke="black" points="441,-393.5 441,-153.5 "/>
<path fill="none" stroke="black" d="M441,-153.5C441,-147.5 447,-141.5 453,-141.5"/>
<text text-anchor="middle" x="515" y="-388.9" font-family="Times Roman,serif" font-size="14.00">UsersController</text>
<polyline fill="none" stroke="black" points="441,-379.5 589,-379.5 "/>
<text text-anchor="start" x="449" y="-362.9" font-family="Times Roman,serif" font-size="14.00">create</text>
<text text-anchor="start" x="449" y="-344.9" font-family="Times Roman,serif" font-size="14.00">destroy</text>
<text text-anchor="start" x="449" y="-326.9" font-family="Times Roman,serif" font-size="14.00">edit</text>
<text text-anchor="start" x="449" y="-308.9" font-family="Times Roman,serif" font-size="14.00">index</text>
<text text-anchor="start" x="449" y="-290.9" font-family="Times Roman,serif" font-size="14.00">new</text>
<text text-anchor="start" x="449" y="-272.9" font-family="Times Roman,serif" font-size="14.00">show</text>
<text text-anchor="start" x="449" y="-254.9" font-family="Times Roman,serif" font-size="14.00">show_registrations</text>
<text text-anchor="start" x="449" y="-236.9" font-family="Times Roman,serif" font-size="14.00">update</text>
<polyline fill="none" stroke="black" points="441,-227.5 589,-227.5 "/>
<polyline fill="none" stroke="black" points="441,-203.5 589,-203.5 "/>
<text text-anchor="start" x="449" y="-186.9" font-family="Times Roman,serif" font-size="14.00">_layout</text>
<text text-anchor="start" x="449" y="-168.9" font-family="Times Roman,serif" font-size="14.00">correct_user</text>
<text text-anchor="start" x="449" y="-150.9" font-family="Times Roman,serif" font-size="14.00">user_params</text>
</g>
<!-- SessionsController -->
<g id="node4" class="node"><title>SessionsController</title>
<polyline fill="none" stroke="black" points="33,-341.5 153,-341.5 "/>
<path fill="none" stroke="black" d="M153,-341.5C159,-341.5 165,-347.5 165,-353.5"/>
<polyline fill="none" stroke="black" points="165,-353.5 165,-467.5 "/>
<path fill="none" stroke="black" d="M165,-467.5C165,-473.5 159,-479.5 153,-479.5"/>
<polyline fill="none" stroke="black" points="153,-479.5 33,-479.5 "/>
<path fill="none" stroke="black" d="M33,-479.5C27,-479.5 21,-473.5 21,-467.5"/>
<polyline fill="none" stroke="black" points="21,-467.5 21,-353.5 "/>
<path fill="none" stroke="black" d="M21,-353.5C21,-347.5 27,-341.5 33,-341.5"/>
<text text-anchor="middle" x="93" y="-462.9" font-family="Times Roman,serif" font-size="14.00">SessionsController</text>
<polyline fill="none" stroke="black" points="21,-453.5 165,-453.5 "/>
<text text-anchor="start" x="29" y="-436.9" font-family="Times Roman,serif" font-size="14.00">create</text>
<text text-anchor="start" x="29" y="-418.9" font-family="Times Roman,serif" font-size="14.00">destroy</text>
<text text-anchor="start" x="29" y="-400.9" font-family="Times Roman,serif" font-size="14.00">new</text>
<polyline fill="none" stroke="black" points="21,-391.5 165,-391.5 "/>
<polyline fill="none" stroke="black" points="21,-367.5 165,-367.5 "/>
<text text-anchor="start" x="29" y="-350.9" font-family="Times Roman,serif" font-size="14.00">_layout</text>
</g>
<!-- TimeSlotsController -->
<g id="node5" class="node"><title>TimeSlotsController</title>
<polyline fill="none" stroke="black" points="613,-581.5 741,-581.5 "/>
<path fill="none" stroke="black" d="M741,-581.5C747,-581.5 753,-587.5 753,-593.5"/>
<polyline fill="none" stroke="black" points="753,-593.5 753,-707.5 "/>
<path fill="none" stroke="black" d="M753,-707.5C753,-713.5 747,-719.5 741,-719.5"/>
<polyline fill="none" stroke="black" points="741,-719.5 613,-719.5 "/>
<path fill="none" stroke="black" d="M613,-719.5C607,-719.5 601,-713.5 601,-707.5"/>
<polyline fill="none" stroke="black" points="601,-707.5 601,-593.5 "/>
<path fill="none" stroke="black" d="M601,-593.5C601,-587.5 607,-581.5 613,-581.5"/>
<text text-anchor="middle" x="677" y="-702.9" font-family="Times Roman,serif" font-size="14.00">TimeSlotsController</text>
<polyline fill="none" stroke="black" points="601,-693.5 753,-693.5 "/>
<text text-anchor="start" x="609" y="-676.9" font-family="Times Roman,serif" font-size="14.00">create</text>
<text text-anchor="start" x="609" y="-658.9" font-family="Times Roman,serif" font-size="14.00">destroy</text>
<polyline fill="none" stroke="black" points="601,-649.5 753,-649.5 "/>
<polyline fill="none" stroke="black" points="601,-625.5 753,-625.5 "/>
<text text-anchor="start" x="609" y="-608.9" font-family="Times Roman,serif" font-size="14.00">_layout</text>
<text text-anchor="start" x="609" y="-590.9" font-family="Times Roman,serif" font-size="14.00">time_slot_params</text>
</g>
<!-- StaticPagesController -->
<g id="node6" class="node"><title>StaticPagesController</title>
<polyline fill="none" stroke="black" points="73,-521.5 214,-521.5 "/>
<path fill="none" stroke="black" d="M214,-521.5C220,-521.5 226,-527.5 226,-533.5"/>
<polyline fill="none" stroke="black" points="226,-533.5 226,-647.5 "/>
<path fill="none" stroke="black" d="M226,-647.5C226,-653.5 220,-659.5 214,-659.5"/>
<polyline fill="none" stroke="black" points="214,-659.5 73,-659.5 "/>
<path fill="none" stroke="black" d="M73,-659.5C67,-659.5 61,-653.5 61,-647.5"/>
<polyline fill="none" stroke="black" points="61,-647.5 61,-533.5 "/>
<path fill="none" stroke="black" d="M61,-533.5C61,-527.5 67,-521.5 73,-521.5"/>
<text text-anchor="middle" x="143.5" y="-642.9" font-family="Times Roman,serif" font-size="14.00">StaticPagesController</text>
<polyline fill="none" stroke="black" points="61,-633.5 226,-633.5 "/>
<text text-anchor="start" x="69" y="-616.9" font-family="Times Roman,serif" font-size="14.00">calendar</text>
<text text-anchor="start" x="69" y="-598.9" font-family="Times Roman,serif" font-size="14.00">edit_text_box</text>
<text text-anchor="start" x="69" y="-580.9" font-family="Times Roman,serif" font-size="14.00">home</text>
<polyline fill="none" stroke="black" points="61,-571.5 226,-571.5 "/>
<polyline fill="none" stroke="black" points="61,-547.5 226,-547.5 "/>
<text text-anchor="start" x="69" y="-530.9" font-family="Times Roman,serif" font-size="14.00">_layout</text>
</g>
<!-- EventsController -->
<g id="node7" class="node"><title>EventsController</title>
<polyline fill="none" stroke="black" points="273,-421.5 382,-421.5 "/>
<path fill="none" stroke="black" d="M382,-421.5C388,-421.5 394,-427.5 394,-433.5"/>
<polyline fill="none" stroke="black" points="394,-433.5 394,-691.5 "/>
<path fill="none" stroke="black" d="M394,-691.5C394,-697.5 388,-703.5 382,-703.5"/>
<polyline fill="none" stroke="black" points="382,-703.5 273,-703.5 "/>
<path fill="none" stroke="black" d="M273,-703.5C267,-703.5 261,-697.5 261,-691.5"/>
<polyline fill="none" stroke="black" points="261,-691.5 261,-433.5 "/>
<path fill="none" stroke="black" d="M261,-433.5C261,-427.5 267,-421.5 273,-421.5"/>
<text text-anchor="middle" x="327.5" y="-686.9" font-family="Times Roman,serif" font-size="14.00">EventsController</text>
<polyline fill="none" stroke="black" points="261,-677.5 394,-677.5 "/>
<text text-anchor="start" x="269" y="-660.9" font-family="Times Roman,serif" font-size="14.00">add_time_slot</text>
<text text-anchor="start" x="269" y="-642.9" font-family="Times Roman,serif" font-size="14.00">create</text>
<text text-anchor="start" x="269" y="-624.9" font-family="Times Roman,serif" font-size="14.00">destroy</text>
<text text-anchor="start" x="269" y="-606.9" font-family="Times Roman,serif" font-size="14.00">edit</text>
<text text-anchor="start" x="269" y="-588.9" font-family="Times Roman,serif" font-size="14.00">index</text>
<text text-anchor="start" x="269" y="-570.9" font-family="Times Roman,serif" font-size="14.00">new</text>
<text text-anchor="start" x="269" y="-552.9" font-family="Times Roman,serif" font-size="14.00">register</text>
<text text-anchor="start" x="269" y="-534.9" font-family="Times Roman,serif" font-size="14.00">show</text>
<text text-anchor="start" x="269" y="-516.9" font-family="Times Roman,serif" font-size="14.00">show_roster</text>
<text text-anchor="start" x="269" y="-498.9" font-family="Times Roman,serif" font-size="14.00">update</text>
<polyline fill="none" stroke="black" points="261,-489.5 394,-489.5 "/>
<polyline fill="none" stroke="black" points="261,-465.5 394,-465.5 "/>
<text text-anchor="start" x="269" y="-448.9" font-family="Times Roman,serif" font-size="14.00">_layout</text>
<text text-anchor="start" x="269" y="-430.9" font-family="Times Roman,serif" font-size="14.00">event_params</text>
</g>
<!-- ApplicationController -->
<g id="node8" class="node"><title>ApplicationController</title>
<polyline fill="none" stroke="black" points="13,-161.5 150,-161.5 "/>
<path fill="none" stroke="black" d="M150,-161.5C156,-161.5 162,-167.5 162,-173.5"/>
<polyline fill="none" stroke="black" points="162,-173.5 162,-285.5 "/>
<path fill="none" stroke="black" d="M162,-285.5C162,-291.5 156,-297.5 150,-297.5"/>
<polyline fill="none" stroke="black" points="150,-297.5 13,-297.5 "/>
<path fill="none" stroke="black" d="M13,-297.5C7,-297.5 1,-291.5 1,-285.5"/>
<polyline fill="none" stroke="black" points="1,-285.5 1,-173.5 "/>
<path fill="none" stroke="black" d="M1,-173.5C1,-167.5 7,-161.5 13,-161.5"/>
<text text-anchor="middle" x="81.5" y="-280.9" font-family="Times Roman,serif" font-size="14.00">ApplicationController</text>
<polyline fill="none" stroke="black" points="1,-271.5 162,-271.5 "/>
<polyline fill="none" stroke="black" points="1,-247.5 162,-247.5 "/>
<polyline fill="none" stroke="black" points="1,-223.5 162,-223.5 "/>
<text text-anchor="start" x="9" y="-206.9" font-family="Times Roman,serif" font-size="14.00">_layout</text>
<text text-anchor="start" x="9" y="-188.9" font-family="Times Roman,serif" font-size="14.00">admin_user</text>
<text text-anchor="start" x="9" y="-170.9" font-family="Times Roman,serif" font-size="14.00">logged_in_user</text>
</g>
<!-- AccountActivationsController -->
<g id="node9" class="node"><title>AccountActivationsController</title>
<polyline fill="none" stroke="black" points="313,-1.5 507,-1.5 "/>
<path fill="none" stroke="black" d="M507,-1.5C513,-1.5 519,-7.5 519,-13.5"/>
<polyline fill="none" stroke="black" points="519,-13.5 519,-91.5 "/>
<path fill="none" stroke="black" d="M519,-91.5C519,-97.5 513,-103.5 507,-103.5"/>
<polyline fill="none" stroke="black" points="507,-103.5 313,-103.5 "/>
<path fill="none" stroke="black" d="M313,-103.5C307,-103.5 301,-97.5 301,-91.5"/>
<polyline fill="none" stroke="black" points="301,-91.5 301,-13.5 "/>
<path fill="none" stroke="black" d="M301,-13.5C301,-7.5 307,-1.5 313,-1.5"/>
<text text-anchor="middle" x="410" y="-86.9" font-family="Times Roman,serif" font-size="14.00">AccountActivationsController</text>
<polyline fill="none" stroke="black" points="301,-77.5 519,-77.5 "/>
<text text-anchor="start" x="309" y="-60.9" font-family="Times Roman,serif" font-size="14.00">edit</text>
<polyline fill="none" stroke="black" points="301,-51.5 519,-51.5 "/>
<polyline fill="none" stroke="black" points="301,-27.5 519,-27.5 "/>
<text text-anchor="start" x="309" y="-10.9" font-family="Times Roman,serif" font-size="14.00">_layout</text>
</g>
</g>
</svg>
