<?xml version="1.0" encoding="UTF-8" standalone="no"?>
<!DOCTYPE svg PUBLIC "-//W3C//DTD SVG 1.1//EN"
 "http://www.w3.org/Graphics/SVG/1.1/DTD/svg11.dtd">
<!-- Generated by graphviz version 2.26.3 (20100126.1600)
 -->
<!-- Title: controllers_diagram Pages: 1 -->
<svg width="900pt" height="908pt"
 viewBox="0.00 0.00 900.00 908.00" xmlns="http://www.w3.org/2000/svg" xmlns:xlink="http://www.w3.org/1999/xlink">
<g id="graph1" class="graph" transform="scale(1 1) rotate(0) translate(4 904)">
<title>controllers_diagram</title>
<polygon fill="white" stroke="white" points="-4,5 -4,-904 897,-904 897,5 -4,5"/>
<!-- _diagram_info -->
<g id="node1" class="node"><title>_diagram_info</title>
<text text-anchor="start" x="492" y="-183.3" font-family="Times Roman,serif" font-size="13.00">Controllers diagram</text>
<text text-anchor="start" x="492" y="-166.3" font-family="Times Roman,serif" font-size="13.00">Date: May 02 2015 &#45; 18:06</text>
<text text-anchor="start" x="492" y="-149.3" font-family="Times Roman,serif" font-size="13.00">Migration version: 20150502213339</text>
<text text-anchor="start" x="492" y="-132.3" font-family="Times Roman,serif" font-size="13.00">Generated by RailRoady 1.3.0</text>
<text text-anchor="start" x="492" y="-115.3" font-family="Times Roman,serif" font-size="13.00">http://railroady.prestonlee.com</text>
</g>
<!-- BuddyWalksController -->
<g id="node2" class="node"><title>BuddyWalksController</title>
<polyline fill="none" stroke="black" points="286,-190.5 432,-190.5 "/>
<path fill="none" stroke="black" d="M432,-190.5C438,-190.5 444,-196.5 444,-202.5"/>
<polyline fill="none" stroke="black" points="444,-202.5 444,-496.5 "/>
<path fill="none" stroke="black" d="M444,-496.5C444,-502.5 438,-508.5 432,-508.5"/>
<polyline fill="none" stroke="black" points="432,-508.5 286,-508.5 "/>
<path fill="none" stroke="black" d="M286,-508.5C280,-508.5 274,-502.5 274,-496.5"/>
<polyline fill="none" stroke="black" points="274,-496.5 274,-202.5 "/>
<path fill="none" stroke="black" d="M274,-202.5C274,-196.5 280,-190.5 286,-190.5"/>
<text text-anchor="middle" x="359" y="-491.9" font-family="Times Roman,serif" font-size="14.00">BuddyWalksController</text>
<polyline fill="none" stroke="black" points="274,-482.5 444,-482.5 "/>
<text text-anchor="start" x="282" y="-465.9" font-family="Times Roman,serif" font-size="14.00">add_time_slot</text>
<text text-anchor="start" x="282" y="-447.9" font-family="Times Roman,serif" font-size="14.00">create</text>
<text text-anchor="start" x="282" y="-429.9" font-family="Times Roman,serif" font-size="14.00">destroy</text>
<text text-anchor="start" x="282" y="-411.9" font-family="Times Roman,serif" font-size="14.00">edit</text>
<text text-anchor="start" x="282" y="-393.9" font-family="Times Roman,serif" font-size="14.00">index</text>
<text text-anchor="start" x="282" y="-375.9" font-family="Times Roman,serif" font-size="14.00">new</text>
<text text-anchor="start" x="282" y="-357.9" font-family="Times Roman,serif" font-size="14.00">register</text>
<text text-anchor="start" x="282" y="-339.9" font-family="Times Roman,serif" font-size="14.00">search</text>
<text text-anchor="start" x="282" y="-321.9" font-family="Times Roman,serif" font-size="14.00">show</text>
<text text-anchor="start" x="282" y="-303.9" font-family="Times Roman,serif" font-size="14.00">show_roster</text>
<text text-anchor="start" x="282" y="-285.9" font-family="Times Roman,serif" font-size="14.00">update</text>
<polyline fill="none" stroke="black" points="274,-276.5 444,-276.5 "/>
<polyline fill="none" stroke="black" points="274,-252.5 444,-252.5 "/>
<text text-anchor="start" x="282" y="-235.9" font-family="Times Roman,serif" font-size="14.00">_layout</text>
<text text-anchor="start" x="282" y="-217.9" font-family="Times Roman,serif" font-size="14.00">buddy_walk_params</text>
<text text-anchor="start" x="282" y="-199.9" font-family="Times Roman,serif" font-size="14.00">event_params</text>
</g>
<!-- PasswordResetsController -->
<g id="node3" class="node"><title>PasswordResetsController</title>
<polyline fill="none" stroke="black" points="76,-652.5 248,-652.5 "/>
<path fill="none" stroke="black" d="M248,-652.5C254,-652.5 260,-658.5 260,-664.5"/>
<polyline fill="none" stroke="black" points="260,-664.5 260,-886.5 "/>
<path fill="none" stroke="black" d="M260,-886.5C260,-892.5 254,-898.5 248,-898.5"/>
<polyline fill="none" stroke="black" points="248,-898.5 76,-898.5 "/>
<path fill="none" stroke="black" d="M76,-898.5C70,-898.5 64,-892.5 64,-886.5"/>
<polyline fill="none" stroke="black" points="64,-886.5 64,-664.5 "/>
<path fill="none" stroke="black" d="M64,-664.5C64,-658.5 70,-652.5 76,-652.5"/>
<text text-anchor="middle" x="162" y="-881.9" font-family="Times Roman,serif" font-size="14.00">PasswordResetsController</text>
<polyline fill="none" stroke="black" points="64,-872.5 260,-872.5 "/>
<text text-anchor="start" x="72" y="-855.9" font-family="Times Roman,serif" font-size="14.00">create</text>
<text text-anchor="start" x="72" y="-837.9" font-family="Times Roman,serif" font-size="14.00">edit</text>
<text text-anchor="start" x="72" y="-819.9" font-family="Times Roman,serif" font-size="14.00">new</text>
<text text-anchor="start" x="72" y="-801.9" font-family="Times Roman,serif" font-size="14.00">update</text>
<polyline fill="none" stroke="black" points="64,-792.5 260,-792.5 "/>
<polyline fill="none" stroke="black" points="64,-768.5 260,-768.5 "/>
<text text-anchor="start" x="72" y="-751.9" font-family="Times Roman,serif" font-size="14.00">_layout</text>
<text text-anchor="start" x="72" y="-733.9" font-family="Times Roman,serif" font-size="14.00">both_passwords_blank?</text>
<text text-anchor="start" x="72" y="-715.9" font-family="Times Roman,serif" font-size="14.00">check_expiration</text>
<text text-anchor="start" x="72" y="-697.9" font-family="Times Roman,serif" font-size="14.00">get_user</text>
<text text-anchor="start" x="72" y="-679.9" font-family="Times Roman,serif" font-size="14.00">user_params</text>
<text text-anchor="start" x="72" y="-661.9" font-family="Times Roman,serif" font-size="14.00">valid_user</text>
</g>
<!-- DsClassesController -->
<g id="node4" class="node"><title>DsClassesController</title>
<polyline fill="none" stroke="black" points="496,-232.5 626,-232.5 "/>
<path fill="none" stroke="black" d="M626,-232.5C632,-232.5 638,-238.5 638,-244.5"/>
<polyline fill="none" stroke="black" points="638,-244.5 638,-520.5 "/>
<path fill="none" stroke="black" d="M638,-520.5C638,-526.5 632,-532.5 626,-532.5"/>
<polyline fill="none" stroke="black" points="626,-532.5 496,-532.5 "/>
<path fill="none" stroke="black" d="M496,-532.5C490,-532.5 484,-526.5 484,-520.5"/>
<polyline fill="none" stroke="black" points="484,-520.5 484,-244.5 "/>
<path fill="none" stroke="black" d="M484,-244.5C484,-238.5 490,-232.5 496,-232.5"/>
<text text-anchor="middle" x="561" y="-515.9" font-family="Times Roman,serif" font-size="14.00">DsClassesController</text>
<polyline fill="none" stroke="black" points="484,-506.5 638,-506.5 "/>
<text text-anchor="start" x="492" y="-489.9" font-family="Times Roman,serif" font-size="14.00">add_time_slot</text>
<text text-anchor="start" x="492" y="-471.9" font-family="Times Roman,serif" font-size="14.00">create</text>
<text text-anchor="start" x="492" y="-453.9" font-family="Times Roman,serif" font-size="14.00">destroy</text>
<text text-anchor="start" x="492" y="-435.9" font-family="Times Roman,serif" font-size="14.00">edit</text>
<text text-anchor="start" x="492" y="-417.9" font-family="Times Roman,serif" font-size="14.00">index</text>
<text text-anchor="start" x="492" y="-399.9" font-family="Times Roman,serif" font-size="14.00">new</text>
<text text-anchor="start" x="492" y="-381.9" font-family="Times Roman,serif" font-size="14.00">register</text>
<text text-anchor="start" x="492" y="-363.9" font-family="Times Roman,serif" font-size="14.00">search</text>
<text text-anchor="start" x="492" y="-345.9" font-family="Times Roman,serif" font-size="14.00">show</text>
<text text-anchor="start" x="492" y="-327.9" font-family="Times Roman,serif" font-size="14.00">show_roster</text>
<text text-anchor="start" x="492" y="-309.9" font-family="Times Roman,serif" font-size="14.00">update</text>
<polyline fill="none" stroke="black" points="484,-300.5 638,-300.5 "/>
<polyline fill="none" stroke="black" points="484,-276.5 638,-276.5 "/>
<text text-anchor="start" x="492" y="-259.9" font-family="Times Roman,serif" font-size="14.00">_layout</text>
<text text-anchor="start" x="492" y="-241.9" font-family="Times Roman,serif" font-size="14.00">ds_class_params</text>
</g>
<!-- ArticlesController -->
<g id="node5" class="node"><title>ArticlesController</title>
<polyline fill="none" stroke="black" points="286,-1.5 399,-1.5 "/>
<path fill="none" stroke="black" d="M399,-1.5C405,-1.5 411,-7.5 411,-13.5"/>
<polyline fill="none" stroke="black" points="411,-13.5 411,-127.5 "/>
<path fill="none" stroke="black" d="M411,-127.5C411,-133.5 405,-139.5 399,-139.5"/>
<polyline fill="none" stroke="black" points="399,-139.5 286,-139.5 "/>
<path fill="none" stroke="black" d="M286,-139.5C280,-139.5 274,-133.5 274,-127.5"/>
<polyline fill="none" stroke="black" points="274,-127.5 274,-13.5 "/>
<path fill="none" stroke="black" d="M274,-13.5C274,-7.5 280,-1.5 286,-1.5"/>
<text text-anchor="middle" x="342.5" y="-122.9" font-family="Times Roman,serif" font-size="14.00">ArticlesController</text>
<polyline fill="none" stroke="black" points="274,-113.5 411,-113.5 "/>
<text text-anchor="start" x="282" y="-96.9" font-family="Times Roman,serif" font-size="14.00">edit</text>
<text text-anchor="start" x="282" y="-78.9" font-family="Times Roman,serif" font-size="14.00">update</text>
<polyline fill="none" stroke="black" points="274,-69.5 411,-69.5 "/>
<polyline fill="none" stroke="black" points="274,-45.5 411,-45.5 "/>
<text text-anchor="start" x="282" y="-28.9" font-family="Times Roman,serif" font-size="14.00">_layout</text>
<text text-anchor="start" x="282" y="-10.9" font-family="Times Roman,serif" font-size="14.00">article_params</text>
</g>
<!-- UsersController -->
<g id="node6" class="node"><title>UsersController</title>
<polyline fill="none" stroke="black" points="307,-547.5 431,-547.5 "/>
<path fill="none" stroke="black" d="M431,-547.5C437,-547.5 443,-553.5 443,-559.5"/>
<polyline fill="none" stroke="black" points="443,-559.5 443,-871.5 "/>
<path fill="none" stroke="black" d="M443,-871.5C443,-877.5 437,-883.5 431,-883.5"/>
<polyline fill="none" stroke="black" points="431,-883.5 307,-883.5 "/>
<path fill="none" stroke="black" d="M307,-883.5C301,-883.5 295,-877.5 295,-871.5"/>
<polyline fill="none" stroke="black" points="295,-871.5 295,-559.5 "/>
<path fill="none" stroke="black" d="M295,-559.5C295,-553.5 301,-547.5 307,-547.5"/>
<text text-anchor="middle" x="369" y="-866.9" font-family="Times Roman,serif" font-size="14.00">UsersController</text>
<polyline fill="none" stroke="black" points="295,-857.5 443,-857.5 "/>
<text text-anchor="start" x="303" y="-840.9" font-family="Times Roman,serif" font-size="14.00">checkin</text>
<text text-anchor="start" x="303" y="-822.9" font-family="Times Roman,serif" font-size="14.00">create</text>
<text text-anchor="start" x="303" y="-804.9" font-family="Times Roman,serif" font-size="14.00">destroy</text>
<text text-anchor="start" x="303" y="-786.9" font-family="Times Roman,serif" font-size="14.00">edit</text>
<text text-anchor="start" x="303" y="-768.9" font-family="Times Roman,serif" font-size="14.00">give_staff_role</text>
<text text-anchor="start" x="303" y="-750.9" font-family="Times Roman,serif" font-size="14.00">index</text>
<text text-anchor="start" x="303" y="-732.9" font-family="Times Roman,serif" font-size="14.00">new</text>
<text text-anchor="start" x="303" y="-714.9" font-family="Times Roman,serif" font-size="14.00">remove_staff_role</text>
<text text-anchor="start" x="303" y="-696.9" font-family="Times Roman,serif" font-size="14.00">search</text>
<text text-anchor="start" x="303" y="-678.9" font-family="Times Roman,serif" font-size="14.00">show</text>
<text text-anchor="start" x="303" y="-660.9" font-family="Times Roman,serif" font-size="14.00">show_registrations</text>
<text text-anchor="start" x="303" y="-642.9" font-family="Times Roman,serif" font-size="14.00">update</text>
<polyline fill="none" stroke="black" points="295,-633.5 443,-633.5 "/>
<polyline fill="none" stroke="black" points="295,-609.5 443,-609.5 "/>
<text text-anchor="start" x="303" y="-592.9" font-family="Times Roman,serif" font-size="14.00">_layout</text>
<text text-anchor="start" x="303" y="-574.9" font-family="Times Roman,serif" font-size="14.00">correct_user</text>
<text text-anchor="start" x="303" y="-556.9" font-family="Times Roman,serif" font-size="14.00">user_params</text>
</g>
<!-- SessionsController -->
<g id="node7" class="node"><title>SessionsController</title>
<polyline fill="none" stroke="black" points="748,-568.5 868,-568.5 "/>
<path fill="none" stroke="black" d="M868,-568.5C874,-568.5 880,-574.5 880,-580.5"/>
<polyline fill="none" stroke="black" points="880,-580.5 880,-694.5 "/>
<path fill="none" stroke="black" d="M880,-694.5C880,-700.5 874,-706.5 868,-706.5"/>
<polyline fill="none" stroke="black" points="868,-706.5 748,-706.5 "/>
<path fill="none" stroke="black" d="M748,-706.5C742,-706.5 736,-700.5 736,-694.5"/>
<polyline fill="none" stroke="black" points="736,-694.5 736,-580.5 "/>
<path fill="none" stroke="black" d="M736,-580.5C736,-574.5 742,-568.5 748,-568.5"/>
<text text-anchor="middle" x="808" y="-689.9" font-family="Times Roman,serif" font-size="14.00">SessionsController</text>
<polyline fill="none" stroke="black" points="736,-680.5 880,-680.5 "/>
<text text-anchor="start" x="744" y="-663.9" font-family="Times Roman,serif" font-size="14.00">create</text>
<text text-anchor="start" x="744" y="-645.9" font-family="Times Roman,serif" font-size="14.00">destroy</text>
<text text-anchor="start" x="744" y="-627.9" font-family="Times Roman,serif" font-size="14.00">new</text>
<polyline fill="none" stroke="black" points="736,-618.5 880,-618.5 "/>
<polyline fill="none" stroke="black" points="736,-594.5 880,-594.5 "/>
<text text-anchor="start" x="744" y="-577.9" font-family="Times Roman,serif" font-size="14.00">_layout</text>
</g>
<!-- ClassSlotsController -->
<g id="node8" class="node"><title>ClassSlotsController</title>
<polyline fill="none" stroke="black" points="97,-358.5 228,-358.5 "/>
<path fill="none" stroke="black" d="M228,-358.5C234,-358.5 240,-364.5 240,-370.5"/>
<polyline fill="none" stroke="black" points="240,-370.5 240,-520.5 "/>
<path fill="none" stroke="black" d="M240,-520.5C240,-526.5 234,-532.5 228,-532.5"/>
<polyline fill="none" stroke="black" points="228,-532.5 97,-532.5 "/>
<path fill="none" stroke="black" d="M97,-532.5C91,-532.5 85,-526.5 85,-520.5"/>
<polyline fill="none" stroke="black" points="85,-520.5 85,-370.5 "/>
<path fill="none" stroke="black" d="M85,-370.5C85,-364.5 91,-358.5 97,-358.5"/>
<text text-anchor="middle" x="162.5" y="-515.9" font-family="Times Roman,serif" font-size="14.00">ClassSlotsController</text>
<polyline fill="none" stroke="black" points="85,-506.5 240,-506.5 "/>
<text text-anchor="start" x="93" y="-489.9" font-family="Times Roman,serif" font-size="14.00">add_day</text>
<text text-anchor="start" x="93" y="-471.9" font-family="Times Roman,serif" font-size="14.00">create</text>
<text text-anchor="start" x="93" y="-453.9" font-family="Times Roman,serif" font-size="14.00">destroy</text>
<text text-anchor="start" x="93" y="-435.9" font-family="Times Roman,serif" font-size="14.00">remove_day</text>
<polyline fill="none" stroke="black" points="85,-426.5 240,-426.5 "/>
<polyline fill="none" stroke="black" points="85,-402.5 240,-402.5 "/>
<text text-anchor="start" x="93" y="-385.9" font-family="Times Roman,serif" font-size="14.00">_layout</text>
<text text-anchor="start" x="93" y="-367.9" font-family="Times Roman,serif" font-size="14.00">class_slot_params</text>
</g>
<!-- TimeSlotsController -->
<g id="node9" class="node"><title>TimeSlotsController</title>
<polyline fill="none" stroke="black" points="685,-379.5 813,-379.5 "/>
<path fill="none" stroke="black" d="M813,-379.5C819,-379.5 825,-385.5 825,-391.5"/>
<polyline fill="none" stroke="black" points="825,-391.5 825,-505.5 "/>
<path fill="none" stroke="black" d="M825,-505.5C825,-511.5 819,-517.5 813,-517.5"/>
<polyline fill="none" stroke="black" points="813,-517.5 685,-517.5 "/>
<path fill="none" stroke="black" d="M685,-517.5C679,-517.5 673,-511.5 673,-505.5"/>
<polyline fill="none" stroke="black" points="673,-505.5 673,-391.5 "/>
<path fill="none" stroke="black" d="M673,-391.5C673,-385.5 679,-379.5 685,-379.5"/>
<text text-anchor="middle" x="749" y="-500.9" font-family="Times Roman,serif" font-size="14.00">TimeSlotsController</text>
<polyline fill="none" stroke="black" points="673,-491.5 825,-491.5 "/>
<text text-anchor="start" x="681" y="-474.9" font-family="Times Roman,serif" font-size="14.00">create</text>
<text text-anchor="start" x="681" y="-456.9" font-family="Times Roman,serif" font-size="14.00">destroy</text>
<polyline fill="none" stroke="black" points="673,-447.5 825,-447.5 "/>
<polyline fill="none" stroke="black" points="673,-423.5 825,-423.5 "/>
<text text-anchor="start" x="681" y="-406.9" font-family="Times Roman,serif" font-size="14.00">_layout</text>
<text text-anchor="start" x="681" y="-388.9" font-family="Times Roman,serif" font-size="14.00">time_slot_params</text>
</g>
<!-- StaticPagesController -->
<g id="node10" class="node"><title>StaticPagesController</title>
<polyline fill="none" stroke="black" points="13,-1.5 154,-1.5 "/>
<path fill="none" stroke="black" d="M154,-1.5C160,-1.5 166,-7.5 166,-13.5"/>
<polyline fill="none" stroke="black" points="166,-13.5 166,-109.5 "/>
<path fill="none" stroke="black" d="M166,-109.5C166,-115.5 160,-121.5 154,-121.5"/>
<polyline fill="none" stroke="black" points="154,-121.5 13,-121.5 "/>
<path fill="none" stroke="black" d="M13,-121.5C7,-121.5 1,-115.5 1,-109.5"/>
<polyline fill="none" stroke="black" points="1,-109.5 1,-13.5 "/>
<path fill="none" stroke="black" d="M1,-13.5C1,-7.5 7,-1.5 13,-1.5"/>
<text text-anchor="middle" x="83.5" y="-104.9" font-family="Times Roman,serif" font-size="14.00">StaticPagesController</text>
<polyline fill="none" stroke="black" points="1,-95.5 166,-95.5 "/>
<text text-anchor="start" x="9" y="-78.9" font-family="Times Roman,serif" font-size="14.00">calendar</text>
<text text-anchor="start" x="9" y="-60.9" font-family="Times Roman,serif" font-size="14.00">home</text>
<polyline fill="none" stroke="black" points="1,-51.5 166,-51.5 "/>
<polyline fill="none" stroke="black" points="1,-27.5 166,-27.5 "/>
<text text-anchor="start" x="9" y="-10.9" font-family="Times Roman,serif" font-size="14.00">_layout</text>
</g>
<!-- EventsController -->
<g id="node11" class="node"><title>EventsController</title>
<polyline fill="none" stroke="black" points="580,-568.5 689,-568.5 "/>
<path fill="none" stroke="black" d="M689,-568.5C695,-568.5 701,-574.5 701,-580.5"/>
<polyline fill="none" stroke="black" points="701,-580.5 701,-874.5 "/>
<path fill="none" stroke="black" d="M701,-874.5C701,-880.5 695,-886.5 689,-886.5"/>
<polyline fill="none" stroke="black" points="689,-886.5 580,-886.5 "/>
<path fill="none" stroke="black" d="M580,-886.5C574,-886.5 568,-880.5 568,-874.5"/>
<polyline fill="none" stroke="black" points="568,-874.5 568,-580.5 "/>
<path fill="none" stroke="black" d="M568,-580.5C568,-574.5 574,-568.5 580,-568.5"/>
<text text-anchor="middle" x="634.5" y="-869.9" font-family="Times Roman,serif" font-size="14.00">EventsController</text>
<polyline fill="none" stroke="black" points="568,-860.5 701,-860.5 "/>
<text text-anchor="start" x="576" y="-843.9" font-family="Times Roman,serif" font-size="14.00">add_time_slot</text>
<text text-anchor="start" x="576" y="-825.9" font-family="Times Roman,serif" font-size="14.00">create</text>
<text text-anchor="start" x="576" y="-807.9" font-family="Times Roman,serif" font-size="14.00">destroy</text>
<text text-anchor="start" x="576" y="-789.9" font-family="Times Roman,serif" font-size="14.00">edit</text>
<text text-anchor="start" x="576" y="-771.9" font-family="Times Roman,serif" font-size="14.00">index</text>
<text text-anchor="start" x="576" y="-753.9" font-family="Times Roman,serif" font-size="14.00">new</text>
<text text-anchor="start" x="576" y="-735.9" font-family="Times Roman,serif" font-size="14.00">register</text>
<text text-anchor="start" x="576" y="-717.9" font-family="Times Roman,serif" font-size="14.00">search</text>
<text text-anchor="start" x="576" y="-699.9" font-family="Times Roman,serif" font-size="14.00">show</text>
<text text-anchor="start" x="576" y="-681.9" font-family="Times Roman,serif" font-size="14.00">show_roster</text>
<text text-anchor="start" x="576" y="-663.9" font-family="Times Roman,serif" font-size="14.00">unregister</text>
<text text-anchor="start" x="576" y="-645.9" font-family="Times Roman,serif" font-size="14.00">update</text>
<polyline fill="none" stroke="black" points="568,-636.5 701,-636.5 "/>
<polyline fill="none" stroke="black" points="568,-612.5 701,-612.5 "/>
<text text-anchor="start" x="576" y="-595.9" font-family="Times Roman,serif" font-size="14.00">_layout</text>
<text text-anchor="start" x="576" y="-577.9" font-family="Times Roman,serif" font-size="14.00">event_params</text>
</g>
<!-- ApplicationController -->
<g id="node12" class="node"><title>ApplicationController</title>
<polyline fill="none" stroke="black" points="76,-169.5 213,-169.5 "/>
<path fill="none" stroke="black" d="M213,-169.5C219,-169.5 225,-175.5 225,-181.5"/>
<polyline fill="none" stroke="black" points="225,-181.5 225,-311.5 "/>
<path fill="none" stroke="black" d="M225,-311.5C225,-317.5 219,-323.5 213,-323.5"/>
<polyline fill="none" stroke="black" points="213,-323.5 76,-323.5 "/>
<path fill="none" stroke="black" d="M76,-323.5C70,-323.5 64,-317.5 64,-311.5"/>
<polyline fill="none" stroke="black" points="64,-311.5 64,-181.5 "/>
<path fill="none" stroke="black" d="M64,-181.5C64,-175.5 70,-169.5 76,-169.5"/>
<text text-anchor="middle" x="144.5" y="-306.9" font-family="Times Roman,serif" font-size="14.00">ApplicationController</text>
<polyline fill="none" stroke="black" points="64,-297.5 225,-297.5 "/>
<polyline fill="none" stroke="black" points="64,-273.5 225,-273.5 "/>
<polyline fill="none" stroke="black" points="64,-249.5 225,-249.5 "/>
<text text-anchor="start" x="72" y="-232.9" font-family="Times Roman,serif" font-size="14.00">_layout</text>
<text text-anchor="start" x="72" y="-214.9" font-family="Times Roman,serif" font-size="14.00">admin_user</text>
<text text-anchor="start" x="72" y="-196.9" font-family="Times Roman,serif" font-size="14.00">logged_in_user</text>
<text text-anchor="start" x="72" y="-178.9" font-family="Times Roman,serif" font-size="14.00">staff_user</text>
</g>
<!-- AccountActivationsController -->
<g id="node13" class="node"><title>AccountActivationsController</title>
<polyline fill="none" stroke="black" points="685,-232.5 879,-232.5 "/>
<path fill="none" stroke="black" d="M879,-232.5C885,-232.5 891,-238.5 891,-244.5"/>
<polyline fill="none" stroke="black" points="891,-244.5 891,-322.5 "/>
<path fill="none" stroke="black" d="M891,-322.5C891,-328.5 885,-334.5 879,-334.5"/>
<polyline fill="none" stroke="black" points="879,-334.5 685,-334.5 "/>
<path fill="none" stroke="black" d="M685,-334.5C679,-334.5 673,-328.5 673,-322.5"/>
<polyline fill="none" stroke="black" points="673,-322.5 673,-244.5 "/>
<path fill="none" stroke="black" d="M673,-244.5C673,-238.5 679,-232.5 685,-232.5"/>
<text text-anchor="middle" x="782" y="-317.9" font-family="Times Roman,serif" font-size="14.00">AccountActivationsController</text>
<polyline fill="none" stroke="black" points="673,-308.5 891,-308.5 "/>
<text text-anchor="start" x="681" y="-291.9" font-family="Times Roman,serif" font-size="14.00">edit</text>
<polyline fill="none" stroke="black" points="673,-282.5 891,-282.5 "/>
<polyline fill="none" stroke="black" points="673,-258.5 891,-258.5 "/>
<text text-anchor="start" x="681" y="-241.9" font-family="Times Roman,serif" font-size="14.00">_layout</text>
</g>
</g>
</svg>
