<?xml version="1.0" encoding="UTF-8" standalone="no"?>
<!DOCTYPE svg PUBLIC "-//W3C//DTD SVG 1.1//EN"
 "http://www.w3.org/Graphics/SVG/1.1/DTD/svg11.dtd">
<!-- Generated by graphviz version 2.26.3 (20100126.1600)
 -->
<!-- Title: controllers_diagram Pages: 1 -->
<svg width="954pt" height="989pt"
 viewBox="0.00 0.00 954.00 989.00" xmlns="http://www.w3.org/2000/svg" xmlns:xlink="http://www.w3.org/1999/xlink">
<g id="graph1" class="graph" transform="scale(1 1) rotate(0) translate(4 985)">
<title>controllers_diagram</title>
<polygon fill="white" stroke="white" points="-4,5 -4,-985 951,-985 951,5 -4,5"/>
<!-- _diagram_info -->
<g id="node1" class="node"><title>_diagram_info</title>
<text text-anchor="start" x="515" y="-232.3" font-family="Times Roman,serif" font-size="13.00">Controllers diagram</text>
<text text-anchor="start" x="515" y="-215.3" font-family="Times Roman,serif" font-size="13.00">Date: May 04 2015 &#45; 23:01</text>
<text text-anchor="start" x="515" y="-198.3" font-family="Times Roman,serif" font-size="13.00">Migration version: 20150502213339</text>
<text text-anchor="start" x="515" y="-181.3" font-family="Times Roman,serif" font-size="13.00">Generated by RailRoady 1.3.0</text>
<text text-anchor="start" x="515" y="-164.3" font-family="Times Roman,serif" font-size="13.00">http://railroady.prestonlee.com</text>
</g>
<!-- BuddyWalksController -->
<g id="node2" class="node"><title>BuddyWalksController</title>
<polyline fill="none" stroke="black" points="519,-287.5 665,-287.5 "/>
<path fill="none" stroke="black" d="M665,-287.5C671,-287.5 677,-293.5 677,-299.5"/>
<polyline fill="none" stroke="black" points="677,-299.5 677,-593.5 "/>
<path fill="none" stroke="black" d="M677,-593.5C677,-599.5 671,-605.5 665,-605.5"/>
<polyline fill="none" stroke="black" points="665,-605.5 519,-605.5 "/>
<path fill="none" stroke="black" d="M519,-605.5C513,-605.5 507,-599.5 507,-593.5"/>
<polyline fill="none" stroke="black" points="507,-593.5 507,-299.5 "/>
<path fill="none" stroke="black" d="M507,-299.5C507,-293.5 513,-287.5 519,-287.5"/>
<text text-anchor="middle" x="592" y="-588.9" font-family="Times Roman,serif" font-size="14.00">BuddyWalksController</text>
<polyline fill="none" stroke="black" points="507,-579.5 677,-579.5 "/>
<text text-anchor="start" x="515" y="-562.9" font-family="Times Roman,serif" font-size="14.00">add_time_slot</text>
<text text-anchor="start" x="515" y="-544.9" font-family="Times Roman,serif" font-size="14.00">create</text>
<text text-anchor="start" x="515" y="-526.9" font-family="Times Roman,serif" font-size="14.00">destroy</text>
<text text-anchor="start" x="515" y="-508.9" font-family="Times Roman,serif" font-size="14.00">edit</text>
<text text-anchor="start" x="515" y="-490.9" font-family="Times Roman,serif" font-size="14.00">index</text>
<text text-anchor="start" x="515" y="-472.9" font-family="Times Roman,serif" font-size="14.00">new</text>
<text text-anchor="start" x="515" y="-454.9" font-family="Times Roman,serif" font-size="14.00">register</text>
<text text-anchor="start" x="515" y="-436.9" font-family="Times Roman,serif" font-size="14.00">search</text>
<text text-anchor="start" x="515" y="-418.9" font-family="Times Roman,serif" font-size="14.00">show</text>
<text text-anchor="start" x="515" y="-400.9" font-family="Times Roman,serif" font-size="14.00">show_roster</text>
<text text-anchor="start" x="515" y="-382.9" font-family="Times Roman,serif" font-size="14.00">update</text>
<polyline fill="none" stroke="black" points="507,-373.5 677,-373.5 "/>
<polyline fill="none" stroke="black" points="507,-349.5 677,-349.5 "/>
<text text-anchor="start" x="515" y="-332.9" font-family="Times Roman,serif" font-size="14.00">_layout</text>
<text text-anchor="start" x="515" y="-314.9" font-family="Times Roman,serif" font-size="14.00">buddy_walk_params</text>
<text text-anchor="start" x="515" y="-296.9" font-family="Times Roman,serif" font-size="14.00">event_params</text>
</g>
<!-- PasswordResetsController -->
<g id="node3" class="node"><title>PasswordResetsController</title>
<polyline fill="none" stroke="black" points="365,-661.5 537,-661.5 "/>
<path fill="none" stroke="black" d="M537,-661.5C543,-661.5 549,-667.5 549,-673.5"/>
<polyline fill="none" stroke="black" points="549,-673.5 549,-895.5 "/>
<path fill="none" stroke="black" d="M549,-895.5C549,-901.5 543,-907.5 537,-907.5"/>
<polyline fill="none" stroke="black" points="537,-907.5 365,-907.5 "/>
<path fill="none" stroke="black" d="M365,-907.5C359,-907.5 353,-901.5 353,-895.5"/>
<polyline fill="none" stroke="black" points="353,-895.5 353,-673.5 "/>
<path fill="none" stroke="black" d="M353,-673.5C353,-667.5 359,-661.5 365,-661.5"/>
<text text-anchor="middle" x="451" y="-890.9" font-family="Times Roman,serif" font-size="14.00">PasswordResetsController</text>
<polyline fill="none" stroke="black" points="353,-881.5 549,-881.5 "/>
<text text-anchor="start" x="361" y="-864.9" font-family="Times Roman,serif" font-size="14.00">create</text>
<text text-anchor="start" x="361" y="-846.9" font-family="Times Roman,serif" font-size="14.00">edit</text>
<text text-anchor="start" x="361" y="-828.9" font-family="Times Roman,serif" font-size="14.00">new</text>
<text text-anchor="start" x="361" y="-810.9" font-family="Times Roman,serif" font-size="14.00">update</text>
<polyline fill="none" stroke="black" points="353,-801.5 549,-801.5 "/>
<polyline fill="none" stroke="black" points="353,-777.5 549,-777.5 "/>
<text text-anchor="start" x="361" y="-760.9" font-family="Times Roman,serif" font-size="14.00">_layout</text>
<text text-anchor="start" x="361" y="-742.9" font-family="Times Roman,serif" font-size="14.00">both_passwords_blank?</text>
<text text-anchor="start" x="361" y="-724.9" font-family="Times Roman,serif" font-size="14.00">check_expiration</text>
<text text-anchor="start" x="361" y="-706.9" font-family="Times Roman,serif" font-size="14.00">get_user</text>
<text text-anchor="start" x="361" y="-688.9" font-family="Times Roman,serif" font-size="14.00">user_params</text>
<text text-anchor="start" x="361" y="-670.9" font-family="Times Roman,serif" font-size="14.00">valid_user</text>
</g>
<!-- DsClassesController -->
<g id="node4" class="node"><title>DsClassesController</title>
<polyline fill="none" stroke="black" points="607,-639.5 737,-639.5 "/>
<path fill="none" stroke="black" d="M737,-639.5C743,-639.5 749,-645.5 749,-651.5"/>
<polyline fill="none" stroke="black" points="749,-651.5 749,-945.5 "/>
<path fill="none" stroke="black" d="M749,-945.5C749,-951.5 743,-957.5 737,-957.5"/>
<polyline fill="none" stroke="black" points="737,-957.5 607,-957.5 "/>
<path fill="none" stroke="black" d="M607,-957.5C601,-957.5 595,-951.5 595,-945.5"/>
<polyline fill="none" stroke="black" points="595,-945.5 595,-651.5 "/>
<path fill="none" stroke="black" d="M595,-651.5C595,-645.5 601,-639.5 607,-639.5"/>
<text text-anchor="middle" x="672" y="-940.9" font-family="Times Roman,serif" font-size="14.00">DsClassesController</text>
<polyline fill="none" stroke="black" points="595,-931.5 749,-931.5 "/>
<text text-anchor="start" x="603" y="-914.9" font-family="Times Roman,serif" font-size="14.00">add_time_slot</text>
<text text-anchor="start" x="603" y="-896.9" font-family="Times Roman,serif" font-size="14.00">create</text>
<text text-anchor="start" x="603" y="-878.9" font-family="Times Roman,serif" font-size="14.00">destroy</text>
<text text-anchor="start" x="603" y="-860.9" font-family="Times Roman,serif" font-size="14.00">edit</text>
<text text-anchor="start" x="603" y="-842.9" font-family="Times Roman,serif" font-size="14.00">index</text>
<text text-anchor="start" x="603" y="-824.9" font-family="Times Roman,serif" font-size="14.00">new</text>
<text text-anchor="start" x="603" y="-806.9" font-family="Times Roman,serif" font-size="14.00">register</text>
<text text-anchor="start" x="603" y="-788.9" font-family="Times Roman,serif" font-size="14.00">search</text>
<text text-anchor="start" x="603" y="-770.9" font-family="Times Roman,serif" font-size="14.00">show</text>
<text text-anchor="start" x="603" y="-752.9" font-family="Times Roman,serif" font-size="14.00">show_roster</text>
<text text-anchor="start" x="603" y="-734.9" font-family="Times Roman,serif" font-size="14.00">unregister</text>
<text text-anchor="start" x="603" y="-716.9" font-family="Times Roman,serif" font-size="14.00">update</text>
<polyline fill="none" stroke="black" points="595,-707.5 749,-707.5 "/>
<polyline fill="none" stroke="black" points="595,-683.5 749,-683.5 "/>
<text text-anchor="start" x="603" y="-666.9" font-family="Times Roman,serif" font-size="14.00">_layout</text>
<text text-anchor="start" x="603" y="-648.9" font-family="Times Roman,serif" font-size="14.00">ds_class_params</text>
</g>
<!-- ArticlesController -->
<g id="node5" class="node"><title>ArticlesController</title>
<polyline fill="none" stroke="black" points="739,-441.5 852,-441.5 "/>
<path fill="none" stroke="black" d="M852,-441.5C858,-441.5 864,-447.5 864,-453.5"/>
<polyline fill="none" stroke="black" points="864,-453.5 864,-567.5 "/>
<path fill="none" stroke="black" d="M864,-567.5C864,-573.5 858,-579.5 852,-579.5"/>
<polyline fill="none" stroke="black" points="852,-579.5 739,-579.5 "/>
<path fill="none" stroke="black" d="M739,-579.5C733,-579.5 727,-573.5 727,-567.5"/>
<polyline fill="none" stroke="black" points="727,-567.5 727,-453.5 "/>
<path fill="none" stroke="black" d="M727,-453.5C727,-447.5 733,-441.5 739,-441.5"/>
<text text-anchor="middle" x="795.5" y="-562.9" font-family="Times Roman,serif" font-size="14.00">ArticlesController</text>
<polyline fill="none" stroke="black" points="727,-553.5 864,-553.5 "/>
<text text-anchor="start" x="735" y="-536.9" font-family="Times Roman,serif" font-size="14.00">edit</text>
<text text-anchor="start" x="735" y="-518.9" font-family="Times Roman,serif" font-size="14.00">update</text>
<polyline fill="none" stroke="black" points="727,-509.5 864,-509.5 "/>
<polyline fill="none" stroke="black" points="727,-485.5 864,-485.5 "/>
<text text-anchor="start" x="735" y="-468.9" font-family="Times Roman,serif" font-size="14.00">_layout</text>
<text text-anchor="start" x="735" y="-450.9" font-family="Times Roman,serif" font-size="14.00">article_params</text>
</g>
<!-- UsersController -->
<g id="node6" class="node"><title>UsersController</title>
<polyline fill="none" stroke="black" points="277,-221.5 444,-221.5 "/>
<path fill="none" stroke="black" d="M444,-221.5C450,-221.5 456,-227.5 456,-233.5"/>
<polyline fill="none" stroke="black" points="456,-233.5 456,-599.5 "/>
<path fill="none" stroke="black" d="M456,-599.5C456,-605.5 450,-611.5 444,-611.5"/>
<polyline fill="none" stroke="black" points="444,-611.5 277,-611.5 "/>
<path fill="none" stroke="black" d="M277,-611.5C271,-611.5 265,-605.5 265,-599.5"/>
<polyline fill="none" stroke="black" points="265,-599.5 265,-233.5 "/>
<path fill="none" stroke="black" d="M265,-233.5C265,-227.5 271,-221.5 277,-221.5"/>
<text text-anchor="middle" x="360.5" y="-594.9" font-family="Times Roman,serif" font-size="14.00">UsersController</text>
<polyline fill="none" stroke="black" points="265,-585.5 456,-585.5 "/>
<text text-anchor="start" x="273" y="-568.9" font-family="Times Roman,serif" font-size="14.00">checkin</text>
<text text-anchor="start" x="273" y="-550.9" font-family="Times Roman,serif" font-size="14.00">checkin_buddy_walk</text>
<text text-anchor="start" x="273" y="-532.9" font-family="Times Roman,serif" font-size="14.00">checkin_class</text>
<text text-anchor="start" x="273" y="-514.9" font-family="Times Roman,serif" font-size="14.00">create</text>
<text text-anchor="start" x="273" y="-496.9" font-family="Times Roman,serif" font-size="14.00">destroy</text>
<text text-anchor="start" x="273" y="-478.9" font-family="Times Roman,serif" font-size="14.00">edit</text>
<text text-anchor="start" x="273" y="-460.9" font-family="Times Roman,serif" font-size="14.00">give_staff_role</text>
<text text-anchor="start" x="273" y="-442.9" font-family="Times Roman,serif" font-size="14.00">index</text>
<text text-anchor="start" x="273" y="-424.9" font-family="Times Roman,serif" font-size="14.00">new</text>
<text text-anchor="start" x="273" y="-406.9" font-family="Times Roman,serif" font-size="14.00">registration_confirmation</text>
<text text-anchor="start" x="273" y="-388.9" font-family="Times Roman,serif" font-size="14.00">remove_staff_role</text>
<text text-anchor="start" x="273" y="-370.9" font-family="Times Roman,serif" font-size="14.00">search</text>
<text text-anchor="start" x="273" y="-352.9" font-family="Times Roman,serif" font-size="14.00">show</text>
<text text-anchor="start" x="273" y="-334.9" font-family="Times Roman,serif" font-size="14.00">show_registrations</text>
<text text-anchor="start" x="273" y="-316.9" font-family="Times Roman,serif" font-size="14.00">update</text>
<polyline fill="none" stroke="black" points="265,-307.5 456,-307.5 "/>
<polyline fill="none" stroke="black" points="265,-283.5 456,-283.5 "/>
<text text-anchor="start" x="273" y="-266.9" font-family="Times Roman,serif" font-size="14.00">_layout</text>
<text text-anchor="start" x="273" y="-248.9" font-family="Times Roman,serif" font-size="14.00">correct_user</text>
<text text-anchor="start" x="273" y="-230.9" font-family="Times Roman,serif" font-size="14.00">user_params</text>
</g>
<!-- SessionsController -->
<g id="node7" class="node"><title>SessionsController</title>
<polyline fill="none" stroke="black" points="13,-793.5 133,-793.5 "/>
<path fill="none" stroke="black" d="M133,-793.5C139,-793.5 145,-799.5 145,-805.5"/>
<polyline fill="none" stroke="black" points="145,-805.5 145,-919.5 "/>
<path fill="none" stroke="black" d="M145,-919.5C145,-925.5 139,-931.5 133,-931.5"/>
<polyline fill="none" stroke="black" points="133,-931.5 13,-931.5 "/>
<path fill="none" stroke="black" d="M13,-931.5C7,-931.5 1,-925.5 1,-919.5"/>
<polyline fill="none" stroke="black" points="1,-919.5 1,-805.5 "/>
<path fill="none" stroke="black" d="M1,-805.5C1,-799.5 7,-793.5 13,-793.5"/>
<text text-anchor="middle" x="73" y="-914.9" font-family="Times Roman,serif" font-size="14.00">SessionsController</text>
<polyline fill="none" stroke="black" points="1,-905.5 145,-905.5 "/>
<text text-anchor="start" x="9" y="-888.9" font-family="Times Roman,serif" font-size="14.00">create</text>
<text text-anchor="start" x="9" y="-870.9" font-family="Times Roman,serif" font-size="14.00">destroy</text>
<text text-anchor="start" x="9" y="-852.9" font-family="Times Roman,serif" font-size="14.00">new</text>
<polyline fill="none" stroke="black" points="1,-843.5 145,-843.5 "/>
<polyline fill="none" stroke="black" points="1,-819.5 145,-819.5 "/>
<text text-anchor="start" x="9" y="-802.9" font-family="Times Roman,serif" font-size="14.00">_layout</text>
</g>
<!-- DaysController -->
<g id="node8" class="node"><title>DaysController</title>
<polyline fill="none" stroke="black" points="805,-1.5 901,-1.5 "/>
<path fill="none" stroke="black" d="M901,-1.5C907,-1.5 913,-7.5 913,-13.5"/>
<polyline fill="none" stroke="black" points="913,-13.5 913,-127.5 "/>
<path fill="none" stroke="black" d="M913,-127.5C913,-133.5 907,-139.5 901,-139.5"/>
<polyline fill="none" stroke="black" points="901,-139.5 805,-139.5 "/>
<path fill="none" stroke="black" d="M805,-139.5C799,-139.5 793,-133.5 793,-127.5"/>
<polyline fill="none" stroke="black" points="793,-127.5 793,-13.5 "/>
<path fill="none" stroke="black" d="M793,-13.5C793,-7.5 799,-1.5 805,-1.5"/>
<text text-anchor="middle" x="853" y="-122.9" font-family="Times Roman,serif" font-size="14.00">DaysController</text>
<polyline fill="none" stroke="black" points="793,-113.5 913,-113.5 "/>
<text text-anchor="start" x="801" y="-96.9" font-family="Times Roman,serif" font-size="14.00">create</text>
<text text-anchor="start" x="801" y="-78.9" font-family="Times Roman,serif" font-size="14.00">destory</text>
<polyline fill="none" stroke="black" points="793,-69.5 913,-69.5 "/>
<polyline fill="none" stroke="black" points="793,-45.5 913,-45.5 "/>
<text text-anchor="start" x="801" y="-28.9" font-family="Times Roman,serif" font-size="14.00">_layout</text>
<text text-anchor="start" x="801" y="-10.9" font-family="Times Roman,serif" font-size="14.00">day_params</text>
</g>
<!-- ClassSlotsController -->
<g id="node9" class="node"><title>ClassSlotsController</title>
<polyline fill="none" stroke="black" points="79,-419.5 210,-419.5 "/>
<path fill="none" stroke="black" d="M210,-419.5C216,-419.5 222,-425.5 222,-431.5"/>
<polyline fill="none" stroke="black" points="222,-431.5 222,-581.5 "/>
<path fill="none" stroke="black" d="M222,-581.5C222,-587.5 216,-593.5 210,-593.5"/>
<polyline fill="none" stroke="black" points="210,-593.5 79,-593.5 "/>
<path fill="none" stroke="black" d="M79,-593.5C73,-593.5 67,-587.5 67,-581.5"/>
<polyline fill="none" stroke="black" points="67,-581.5 67,-431.5 "/>
<path fill="none" stroke="black" d="M67,-431.5C67,-425.5 73,-419.5 79,-419.5"/>
<text text-anchor="middle" x="144.5" y="-576.9" font-family="Times Roman,serif" font-size="14.00">ClassSlotsController</text>
<polyline fill="none" stroke="black" points="67,-567.5 222,-567.5 "/>
<text text-anchor="start" x="75" y="-550.9" font-family="Times Roman,serif" font-size="14.00">add_day</text>
<text text-anchor="start" x="75" y="-532.9" font-family="Times Roman,serif" font-size="14.00">create</text>
<text text-anchor="start" x="75" y="-514.9" font-family="Times Roman,serif" font-size="14.00">destroy</text>
<text text-anchor="start" x="75" y="-496.9" font-family="Times Roman,serif" font-size="14.00">remove_day</text>
<polyline fill="none" stroke="black" points="67,-487.5 222,-487.5 "/>
<polyline fill="none" stroke="black" points="67,-463.5 222,-463.5 "/>
<text text-anchor="start" x="75" y="-446.9" font-family="Times Roman,serif" font-size="14.00">_layout</text>
<text text-anchor="start" x="75" y="-428.9" font-family="Times Roman,serif" font-size="14.00">class_slot_params</text>
</g>
<!-- TimeSlotsController -->
<g id="node10" class="node"><title>TimeSlotsController</title>
<polyline fill="none" stroke="black" points="13,-45.5 141,-45.5 "/>
<path fill="none" stroke="black" d="M141,-45.5C147,-45.5 153,-51.5 153,-57.5"/>
<polyline fill="none" stroke="black" points="153,-57.5 153,-171.5 "/>
<path fill="none" stroke="black" d="M153,-171.5C153,-177.5 147,-183.5 141,-183.5"/>
<polyline fill="none" stroke="black" points="141,-183.5 13,-183.5 "/>
<path fill="none" stroke="black" d="M13,-183.5C7,-183.5 1,-177.5 1,-171.5"/>
<polyline fill="none" stroke="black" points="1,-171.5 1,-57.5 "/>
<path fill="none" stroke="black" d="M1,-57.5C1,-51.5 7,-45.5 13,-45.5"/>
<text text-anchor="middle" x="77" y="-166.9" font-family="Times Roman,serif" font-size="14.00">TimeSlotsController</text>
<polyline fill="none" stroke="black" points="1,-157.5 153,-157.5 "/>
<text text-anchor="start" x="9" y="-140.9" font-family="Times Roman,serif" font-size="14.00">create</text>
<text text-anchor="start" x="9" y="-122.9" font-family="Times Roman,serif" font-size="14.00">destroy</text>
<polyline fill="none" stroke="black" points="1,-113.5 153,-113.5 "/>
<polyline fill="none" stroke="black" points="1,-89.5 153,-89.5 "/>
<text text-anchor="start" x="9" y="-72.9" font-family="Times Roman,serif" font-size="14.00">_layout</text>
<text text-anchor="start" x="9" y="-54.9" font-family="Times Roman,serif" font-size="14.00">time_slot_params</text>
</g>
<!-- StaticPagesController -->
<g id="node11" class="node"><title>StaticPagesController</title>
<polyline fill="none" stroke="black" points="211,-67.5 352,-67.5 "/>
<path fill="none" stroke="black" d="M352,-67.5C358,-67.5 364,-73.5 364,-79.5"/>
<polyline fill="none" stroke="black" points="364,-79.5 364,-175.5 "/>
<path fill="none" stroke="black" d="M364,-175.5C364,-181.5 358,-187.5 352,-187.5"/>
<polyline fill="none" stroke="black" points="352,-187.5 211,-187.5 "/>
<path fill="none" stroke="black" d="M211,-187.5C205,-187.5 199,-181.5 199,-175.5"/>
<polyline fill="none" stroke="black" points="199,-175.5 199,-79.5 "/>
<path fill="none" stroke="black" d="M199,-79.5C199,-73.5 205,-67.5 211,-67.5"/>
<text text-anchor="middle" x="281.5" y="-170.9" font-family="Times Roman,serif" font-size="14.00">StaticPagesController</text>
<polyline fill="none" stroke="black" points="199,-161.5 364,-161.5 "/>
<text text-anchor="start" x="207" y="-144.9" font-family="Times Roman,serif" font-size="14.00">calendar</text>
<text text-anchor="start" x="207" y="-126.9" font-family="Times Roman,serif" font-size="14.00">home</text>
<polyline fill="none" stroke="black" points="199,-117.5 364,-117.5 "/>
<polyline fill="none" stroke="black" points="199,-93.5 364,-93.5 "/>
<text text-anchor="start" x="207" y="-76.9" font-family="Times Roman,serif" font-size="14.00">_layout</text>
</g>
<!-- EventsController -->
<g id="node12" class="node"><title>EventsController</title>
<polyline fill="none" stroke="black" points="189,-661.5 298,-661.5 "/>
<path fill="none" stroke="black" d="M298,-661.5C304,-661.5 310,-667.5 310,-673.5"/>
<polyline fill="none" stroke="black" points="310,-673.5 310,-967.5 "/>
<path fill="none" stroke="black" d="M310,-967.5C310,-973.5 304,-979.5 298,-979.5"/>
<polyline fill="none" stroke="black" points="298,-979.5 189,-979.5 "/>
<path fill="none" stroke="black" d="M189,-979.5C183,-979.5 177,-973.5 177,-967.5"/>
<polyline fill="none" stroke="black" points="177,-967.5 177,-673.5 "/>
<path fill="none" stroke="black" d="M177,-673.5C177,-667.5 183,-661.5 189,-661.5"/>
<text text-anchor="middle" x="243.5" y="-962.9" font-family="Times Roman,serif" font-size="14.00">EventsController</text>
<polyline fill="none" stroke="black" points="177,-953.5 310,-953.5 "/>
<text text-anchor="start" x="185" y="-936.9" font-family="Times Roman,serif" font-size="14.00">add_time_slot</text>
<text text-anchor="start" x="185" y="-918.9" font-family="Times Roman,serif" font-size="14.00">create</text>
<text text-anchor="start" x="185" y="-900.9" font-family="Times Roman,serif" font-size="14.00">destroy</text>
<text text-anchor="start" x="185" y="-882.9" font-family="Times Roman,serif" font-size="14.00">edit</text>
<text text-anchor="start" x="185" y="-864.9" font-family="Times Roman,serif" font-size="14.00">index</text>
<text text-anchor="start" x="185" y="-846.9" font-family="Times Roman,serif" font-size="14.00">new</text>
<text text-anchor="start" x="185" y="-828.9" font-family="Times Roman,serif" font-size="14.00">register</text>
<text text-anchor="start" x="185" y="-810.9" font-family="Times Roman,serif" font-size="14.00">search</text>
<text text-anchor="start" x="185" y="-792.9" font-family="Times Roman,serif" font-size="14.00">show</text>
<text text-anchor="start" x="185" y="-774.9" font-family="Times Roman,serif" font-size="14.00">show_roster</text>
<text text-anchor="start" x="185" y="-756.9" font-family="Times Roman,serif" font-size="14.00">unregister</text>
<text text-anchor="start" x="185" y="-738.9" font-family="Times Roman,serif" font-size="14.00">update</text>
<polyline fill="none" stroke="black" points="177,-729.5 310,-729.5 "/>
<polyline fill="none" stroke="black" points="177,-705.5 310,-705.5 "/>
<text text-anchor="start" x="185" y="-688.9" font-family="Times Roman,serif" font-size="14.00">_layout</text>
<text text-anchor="start" x="185" y="-670.9" font-family="Times Roman,serif" font-size="14.00">event_params</text>
</g>
<!-- ApplicationController -->
<g id="node13" class="node"><title>ApplicationController</title>
<polyline fill="none" stroke="black" points="79,-221.5 216,-221.5 "/>
<path fill="none" stroke="black" d="M216,-221.5C222,-221.5 228,-227.5 228,-233.5"/>
<polyline fill="none" stroke="black" points="228,-233.5 228,-363.5 "/>
<path fill="none" stroke="black" d="M228,-363.5C228,-369.5 222,-375.5 216,-375.5"/>
<polyline fill="none" stroke="black" points="216,-375.5 79,-375.5 "/>
<path fill="none" stroke="black" d="M79,-375.5C73,-375.5 67,-369.5 67,-363.5"/>
<polyline fill="none" stroke="black" points="67,-363.5 67,-233.5 "/>
<path fill="none" stroke="black" d="M67,-233.5C67,-227.5 73,-221.5 79,-221.5"/>
<text text-anchor="middle" x="147.5" y="-358.9" font-family="Times Roman,serif" font-size="14.00">ApplicationController</text>
<polyline fill="none" stroke="black" points="67,-349.5 228,-349.5 "/>
<polyline fill="none" stroke="black" points="67,-325.5 228,-325.5 "/>
<polyline fill="none" stroke="black" points="67,-301.5 228,-301.5 "/>
<text text-anchor="start" x="75" y="-284.9" font-family="Times Roman,serif" font-size="14.00">_layout</text>
<text text-anchor="start" x="75" y="-266.9" font-family="Times Roman,serif" font-size="14.00">admin_user</text>
<text text-anchor="start" x="75" y="-248.9" font-family="Times Roman,serif" font-size="14.00">logged_in_user</text>
<text text-anchor="start" x="75" y="-230.9" font-family="Times Roman,serif" font-size="14.00">staff_user</text>
</g>
<!-- AccountActivationsController -->
<g id="node14" class="node"><title>AccountActivationsController</title>
<polyline fill="none" stroke="black" points="739,-287.5 933,-287.5 "/>
<path fill="none" stroke="black" d="M933,-287.5C939,-287.5 945,-293.5 945,-299.5"/>
<polyline fill="none" stroke="black" points="945,-299.5 945,-377.5 "/>
<path fill="none" stroke="black" d="M945,-377.5C945,-383.5 939,-389.5 933,-389.5"/>
<polyline fill="none" stroke="black" points="933,-389.5 739,-389.5 "/>
<path fill="none" stroke="black" d="M739,-389.5C733,-389.5 727,-383.5 727,-377.5"/>
<polyline fill="none" stroke="black" points="727,-377.5 727,-299.5 "/>
<path fill="none" stroke="black" d="M727,-299.5C727,-293.5 733,-287.5 739,-287.5"/>
<text text-anchor="middle" x="836" y="-372.9" font-family="Times Roman,serif" font-size="14.00">AccountActivationsController</text>
<polyline fill="none" stroke="black" points="727,-363.5 945,-363.5 "/>
<text text-anchor="start" x="735" y="-346.9" font-family="Times Roman,serif" font-size="14.00">edit</text>
<polyline fill="none" stroke="black" points="727,-337.5 945,-337.5 "/>
<polyline fill="none" stroke="black" points="727,-313.5 945,-313.5 "/>
<text text-anchor="start" x="735" y="-296.9" font-family="Times Roman,serif" font-size="14.00">_layout</text>
</g>
</g>
</svg>
