<?xml version="1.0" encoding="UTF-8" standalone="no"?>
<!DOCTYPE svg PUBLIC "-//W3C//DTD SVG 1.1//EN"
 "http://www.w3.org/Graphics/SVG/1.1/DTD/svg11.dtd">
<!-- Generated by graphviz version 2.26.3 (20100126.1600)
 -->
<!-- Title: models_diagram Pages: 1 -->
<svg width="989pt" height="1034pt"
 viewBox="0.00 0.00 989.00 1034.00" xmlns="http://www.w3.org/2000/svg" xmlns:xlink="http://www.w3.org/1999/xlink">
<g id="graph1" class="graph" transform="scale(1 1) rotate(0) translate(4 1030)">
<title>models_diagram</title>
<polygon fill="white" stroke="white" points="-4,5 -4,-1030 986,-1030 986,5 -4,5"/>
<!-- _diagram_info -->
<g id="node1" class="node"><title>_diagram_info</title>
<text text-anchor="start" x="8" y="-948.8" font-family="Times Roman,serif" font-size="13.00">Models diagram</text>
<text text-anchor="start" x="8" y="-931.8" font-family="Times Roman,serif" font-size="13.00">Date: Apr 28 2015 &#45; 19:37</text>
<text text-anchor="start" x="8" y="-914.8" font-family="Times Roman,serif" font-size="13.00">Migration version: 20150428152403</text>
<text text-anchor="start" x="8" y="-897.8" font-family="Times Roman,serif" font-size="13.00">Generated by RailRoady 1.3.0</text>
<text text-anchor="start" x="8" y="-880.8" font-family="Times Roman,serif" font-size="13.00">http://railroady.prestonlee.com</text>
</g>
<!-- Event -->
<g id="node2" class="node"><title>Event</title>
<polyline fill="none" stroke="black" points="279.5,-838 420.5,-838 "/>
<path fill="none" stroke="black" d="M420.5,-838C426.5,-838 432.5,-844 432.5,-850"/>
<polyline fill="none" stroke="black" points="432.5,-850 432.5,-986 "/>
<path fill="none" stroke="black" d="M432.5,-986C432.5,-992 426.5,-998 420.5,-998"/>
<polyline fill="none" stroke="black" points="420.5,-998 279.5,-998 "/>
<path fill="none" stroke="black" d="M279.5,-998C273.5,-998 267.5,-992 267.5,-986"/>
<polyline fill="none" stroke="black" points="267.5,-986 267.5,-850 "/>
<path fill="none" stroke="black" d="M267.5,-850C267.5,-844 273.5,-838 279.5,-838"/>
<text text-anchor="middle" x="350" y="-981.4" font-family="Times Roman,serif" font-size="14.00">Event</text>
<polyline fill="none" stroke="black" points="267.5,-972 432.5,-972 "/>
<text text-anchor="start" x="275.5" y="-955.4" font-family="Times Roman,serif" font-size="14.00">id :integer</text>
<text text-anchor="start" x="275.5" y="-937.4" font-family="Times Roman,serif" font-size="14.00">title :string</text>
<text text-anchor="start" x="275.5" y="-919.4" font-family="Times Roman,serif" font-size="14.00">place :string</text>
<text text-anchor="start" x="275.5" y="-901.4" font-family="Times Roman,serif" font-size="14.00">description :text</text>
<text text-anchor="start" x="275.5" y="-883.4" font-family="Times Roman,serif" font-size="14.00">date :date</text>
<text text-anchor="start" x="275.5" y="-865.4" font-family="Times Roman,serif" font-size="14.00">created_at :datetime</text>
<text text-anchor="start" x="275.5" y="-847.4" font-family="Times Roman,serif" font-size="14.00">updated_at :datetime</text>
</g>
<!-- User -->
<g id="node7" class="node"><title>User</title>
<polyline fill="none" stroke="black" points="388.5,-397 643.5,-397 "/>
<path fill="none" stroke="black" d="M643.5,-397C649.5,-397 655.5,-403 655.5,-409"/>
<polyline fill="none" stroke="black" points="655.5,-409 655.5,-761 "/>
<path fill="none" stroke="black" d="M655.5,-761C655.5,-767 649.5,-773 643.5,-773"/>
<polyline fill="none" stroke="black" points="643.5,-773 388.5,-773 "/>
<path fill="none" stroke="black" d="M388.5,-773C382.5,-773 376.5,-767 376.5,-761"/>
<polyline fill="none" stroke="black" points="376.5,-761 376.5,-409 "/>
<path fill="none" stroke="black" d="M376.5,-409C376.5,-403 382.5,-397 388.5,-397"/>
<text text-anchor="middle" x="516" y="-756.4" font-family="Times Roman,serif" font-size="14.00">User</text>
<polyline fill="none" stroke="black" points="376.5,-747 655.5,-747 "/>
<text text-anchor="start" x="384.5" y="-730.4" font-family="Times Roman,serif" font-size="14.00">id :integer</text>
<text text-anchor="start" x="384.5" y="-712.4" font-family="Times Roman,serif" font-size="14.00">name :string</text>
<text text-anchor="start" x="384.5" y="-694.4" font-family="Times Roman,serif" font-size="14.00">email :string</text>
<text text-anchor="start" x="384.5" y="-676.4" font-family="Times Roman,serif" font-size="14.00">password_digest :string</text>
<text text-anchor="start" x="384.5" y="-658.4" font-family="Times Roman,serif" font-size="14.00">address :string</text>
<text text-anchor="start" x="384.5" y="-640.4" font-family="Times Roman,serif" font-size="14.00">phone :string</text>
<text text-anchor="start" x="384.5" y="-622.4" font-family="Times Roman,serif" font-size="14.00">emergency_contact_name :string</text>
<text text-anchor="start" x="384.5" y="-604.4" font-family="Times Roman,serif" font-size="14.00">emergency_contact_phone :string</text>
<text text-anchor="start" x="384.5" y="-586.4" font-family="Times Roman,serif" font-size="14.00">remember_digest :string</text>
<text text-anchor="start" x="384.5" y="-568.4" font-family="Times Roman,serif" font-size="14.00">activation_digest :string</text>
<text text-anchor="start" x="384.5" y="-550.4" font-family="Times Roman,serif" font-size="14.00">reset_digest :string</text>
<text text-anchor="start" x="384.5" y="-532.4" font-family="Times Roman,serif" font-size="14.00">activated_at :datetime</text>
<text text-anchor="start" x="384.5" y="-514.4" font-family="Times Roman,serif" font-size="14.00">reset_sent_at :datetime</text>
<text text-anchor="start" x="384.5" y="-496.4" font-family="Times Roman,serif" font-size="14.00">activated :boolean</text>
<text text-anchor="start" x="384.5" y="-478.4" font-family="Times Roman,serif" font-size="14.00">admin :boolean</text>
<text text-anchor="start" x="384.5" y="-460.4" font-family="Times Roman,serif" font-size="14.00">event_register_email_notify :datetime</text>
<text text-anchor="start" x="384.5" y="-442.4" font-family="Times Roman,serif" font-size="14.00">created_at :datetime</text>
<text text-anchor="start" x="384.5" y="-424.4" font-family="Times Roman,serif" font-size="14.00">updated_at :datetime</text>
<text text-anchor="start" x="384.5" y="-406.4" font-family="Times Roman,serif" font-size="14.00">staff :boolean</text>
</g>
<!-- Event&#45;&gt;User -->
<g id="edge4" class="edge"><title>Event&#45;&gt;User</title>
<path fill="none" stroke="#2439cd" d="M394.444,-828.844C401.77,-814.147 409.612,-798.417 417.653,-782.287"/>
<polygon fill="#2439cd" stroke="#2439cd" points="394.434,-828.865 385.945,-835.807 392.203,-833.34 389.972,-837.814 389.972,-837.814 389.972,-837.814 392.203,-833.34 394,-839.822 394.434,-828.865 394.434,-828.865"/>
<polygon fill="#2439cd" stroke="#2439cd" points="417.677,-782.239 426.165,-775.297 419.907,-777.764 422.138,-773.289 422.138,-773.289 422.138,-773.289 419.907,-777.764 418.111,-771.282 417.677,-782.239 417.677,-782.239"/>
</g>
<!-- TimeSlot -->
<g id="node8" class="node"><title>TimeSlot</title>
<polyline fill="none" stroke="black" points="556,-181 740,-181 "/>
<path fill="none" stroke="black" d="M740,-181C746,-181 752,-187 752,-193"/>
<polyline fill="none" stroke="black" points="752,-193 752,-347 "/>
<path fill="none" stroke="black" d="M752,-347C752,-353 746,-359 740,-359"/>
<polyline fill="none" stroke="black" points="740,-359 556,-359 "/>
<path fill="none" stroke="black" d="M556,-359C550,-359 544,-353 544,-347"/>
<polyline fill="none" stroke="black" points="544,-347 544,-193 "/>
<path fill="none" stroke="black" d="M544,-193C544,-187 550,-181 556,-181"/>
<text text-anchor="middle" x="648" y="-342.4" font-family="Times Roman,serif" font-size="14.00">TimeSlot</text>
<polyline fill="none" stroke="black" points="544,-333 752,-333 "/>
<text text-anchor="start" x="552" y="-316.4" font-family="Times Roman,serif" font-size="14.00">id :integer</text>
<text text-anchor="start" x="552" y="-298.4" font-family="Times Roman,serif" font-size="14.00">start_time :datetime</text>
<text text-anchor="start" x="552" y="-280.4" font-family="Times Roman,serif" font-size="14.00">end_time :datetime</text>
<text text-anchor="start" x="552" y="-262.4" font-family="Times Roman,serif" font-size="14.00">total_capacity :integer</text>
<text text-anchor="start" x="552" y="-244.4" font-family="Times Roman,serif" font-size="14.00">remaining_capacity :integer</text>
<text text-anchor="start" x="552" y="-226.4" font-family="Times Roman,serif" font-size="14.00">event_id :integer</text>
<text text-anchor="start" x="552" y="-208.4" font-family="Times Roman,serif" font-size="14.00">created_at :datetime</text>
<text text-anchor="start" x="552" y="-190.4" font-family="Times Roman,serif" font-size="14.00">updated_at :datetime</text>
</g>
<!-- Event&#45;&gt;TimeSlot -->
<g id="edge2" class="edge"><title>Event&#45;&gt;TimeSlot</title>
<path fill="none" stroke="#ad5ff0" d="M326.815,-829.754C303.044,-718.514 280.639,-526.136 368,-396 405.502,-340.135 474.093,-308.728 533.998,-291.242"/>
<ellipse fill="none" stroke="#ad5ff0" cx="327.677" cy="-833.713" rx="4.00001" ry="4.00001"/>
<polygon fill="#ad5ff0" stroke="#ad5ff0" points="534.289,-291.16 545.135,-292.781 539.102,-289.805 543.915,-288.449 543.915,-288.449 543.915,-288.449 539.102,-289.805 542.695,-284.118 534.289,-291.16 534.289,-291.16"/>
</g>
<!-- DsClass -->
<g id="node3" class="node"><title>DsClass</title>
<polyline fill="none" stroke="black" points="463.5,-811 604.5,-811 "/>
<path fill="none" stroke="black" d="M604.5,-811C610.5,-811 616.5,-817 616.5,-823"/>
<polyline fill="none" stroke="black" points="616.5,-823 616.5,-1013 "/>
<path fill="none" stroke="black" d="M616.5,-1013C616.5,-1019 610.5,-1025 604.5,-1025"/>
<polyline fill="none" stroke="black" points="604.5,-1025 463.5,-1025 "/>
<path fill="none" stroke="black" d="M463.5,-1025C457.5,-1025 451.5,-1019 451.5,-1013"/>
<polyline fill="none" stroke="black" points="451.5,-1013 451.5,-823 "/>
<path fill="none" stroke="black" d="M451.5,-823C451.5,-817 457.5,-811 463.5,-811"/>
<text text-anchor="middle" x="534" y="-1008.4" font-family="Times Roman,serif" font-size="14.00">DsClass</text>
<polyline fill="none" stroke="black" points="451.5,-999 616.5,-999 "/>
<text text-anchor="start" x="459.5" y="-982.4" font-family="Times Roman,serif" font-size="14.00">id :integer</text>
<text text-anchor="start" x="459.5" y="-964.4" font-family="Times Roman,serif" font-size="14.00">title :string</text>
<text text-anchor="start" x="459.5" y="-946.4" font-family="Times Roman,serif" font-size="14.00">place :string</text>
<text text-anchor="start" x="459.5" y="-928.4" font-family="Times Roman,serif" font-size="14.00">description :text</text>
<text text-anchor="start" x="459.5" y="-910.4" font-family="Times Roman,serif" font-size="14.00">start_time :datetime</text>
<text text-anchor="start" x="459.5" y="-892.4" font-family="Times Roman,serif" font-size="14.00">end_time :datetime</text>
<text text-anchor="start" x="459.5" y="-874.4" font-family="Times Roman,serif" font-size="14.00">start_date :date</text>
<text text-anchor="start" x="459.5" y="-856.4" font-family="Times Roman,serif" font-size="14.00">end_date :date</text>
<text text-anchor="start" x="459.5" y="-838.4" font-family="Times Roman,serif" font-size="14.00">created_at :datetime</text>
<text text-anchor="start" x="459.5" y="-820.4" font-family="Times Roman,serif" font-size="14.00">updated_at :datetime</text>
</g>
<!-- DsClass&#45;&gt;User -->
<g id="edge8" class="edge"><title>DsClass&#45;&gt;User</title>
<path fill="none" stroke="#34e58c" d="M527.66,-800.719C527.348,-794.943 527.031,-789.079 526.711,-783.16"/>
<polygon fill="#34e58c" stroke="#34e58c" points="527.666,-800.818 523.712,-811.047 527.936,-805.811 528.206,-810.804 528.206,-810.804 528.206,-810.804 527.936,-805.811 532.699,-810.561 527.666,-800.818 527.666,-800.818"/>
<polygon fill="#34e58c" stroke="#34e58c" points="526.71,-783.138 530.664,-772.909 526.44,-778.145 526.17,-773.152 526.17,-773.152 526.17,-773.152 526.44,-778.145 521.677,-773.395 526.71,-783.138 526.71,-783.138"/>
</g>
<!-- DsClass&#45;&gt;TimeSlot -->
<g id="edge6" class="edge"><title>DsClass&#45;&gt;TimeSlot</title>
<path fill="none" stroke="#1235c4" d="M622.166,-814.07C623.448,-812.7 624.726,-811.343 626,-810 642.01,-793.121 654.808,-795.371 664,-774 694.206,-703.775 675.752,-494.8 660.972,-369.072"/>
<ellipse fill="none" stroke="#1235c4" cx="619.251" cy="-817.214" rx="4.00002" ry="4.00002"/>
<polygon fill="#1235c4" stroke="#1235c4" points="660.961,-368.975 664.249,-358.513 660.371,-364.01 659.781,-359.045 659.781,-359.045 659.781,-359.045 660.371,-364.01 655.312,-359.576 660.961,-368.975 660.961,-368.975"/>
</g>
<!-- Article -->
<g id="node4" class="node"><title>Article</title>
<polyline fill="none" stroke="black" points="828.5,-865 969.5,-865 "/>
<path fill="none" stroke="black" d="M969.5,-865C975.5,-865 981.5,-871 981.5,-877"/>
<polyline fill="none" stroke="black" points="981.5,-877 981.5,-959 "/>
<path fill="none" stroke="black" d="M981.5,-959C981.5,-965 975.5,-971 969.5,-971"/>
<polyline fill="none" stroke="black" points="969.5,-971 828.5,-971 "/>
<path fill="none" stroke="black" d="M828.5,-971C822.5,-971 816.5,-965 816.5,-959"/>
<polyline fill="none" stroke="black" points="816.5,-959 816.5,-877 "/>
<path fill="none" stroke="black" d="M816.5,-877C816.5,-871 822.5,-865 828.5,-865"/>
<text text-anchor="middle" x="899" y="-954.4" font-family="Times Roman,serif" font-size="14.00">Article</text>
<polyline fill="none" stroke="black" points="816.5,-945 981.5,-945 "/>
<text text-anchor="start" x="824.5" y="-928.4" font-family="Times Roman,serif" font-size="14.00">id :integer</text>
<text text-anchor="start" x="824.5" y="-910.4" font-family="Times Roman,serif" font-size="14.00">text :text</text>
<text text-anchor="start" x="824.5" y="-892.4" font-family="Times Roman,serif" font-size="14.00">created_at :datetime</text>
<text text-anchor="start" x="824.5" y="-874.4" font-family="Times Roman,serif" font-size="14.00">updated_at :datetime</text>
</g>
<!-- BuddyWalk -->
<g id="node5" class="node"><title>BuddyWalk</title>
<polyline fill="none" stroke="black" points="646.5,-838 787.5,-838 "/>
<path fill="none" stroke="black" d="M787.5,-838C793.5,-838 799.5,-844 799.5,-850"/>
<polyline fill="none" stroke="black" points="799.5,-850 799.5,-986 "/>
<path fill="none" stroke="black" d="M799.5,-986C799.5,-992 793.5,-998 787.5,-998"/>
<polyline fill="none" stroke="black" points="787.5,-998 646.5,-998 "/>
<path fill="none" stroke="black" d="M646.5,-998C640.5,-998 634.5,-992 634.5,-986"/>
<polyline fill="none" stroke="black" points="634.5,-986 634.5,-850 "/>
<path fill="none" stroke="black" d="M634.5,-850C634.5,-844 640.5,-838 646.5,-838"/>
<text text-anchor="middle" x="717" y="-981.4" font-family="Times Roman,serif" font-size="14.00">BuddyWalk</text>
<polyline fill="none" stroke="black" points="634.5,-972 799.5,-972 "/>
<text text-anchor="start" x="642.5" y="-955.4" font-family="Times Roman,serif" font-size="14.00">id :integer</text>
<text text-anchor="start" x="642.5" y="-937.4" font-family="Times Roman,serif" font-size="14.00">title :string</text>
<text text-anchor="start" x="642.5" y="-919.4" font-family="Times Roman,serif" font-size="14.00">place :string</text>
<text text-anchor="start" x="642.5" y="-901.4" font-family="Times Roman,serif" font-size="14.00">description :text</text>
<text text-anchor="start" x="642.5" y="-883.4" font-family="Times Roman,serif" font-size="14.00">date :date</text>
<text text-anchor="start" x="642.5" y="-865.4" font-family="Times Roman,serif" font-size="14.00">created_at :datetime</text>
<text text-anchor="start" x="642.5" y="-847.4" font-family="Times Roman,serif" font-size="14.00">updated_at :datetime</text>
</g>
<!-- BuddyWalk&#45;&gt;User -->
<g id="edge12" class="edge"><title>BuddyWalk&#45;&gt;User</title>
<path fill="none" stroke="#a8cc04" d="M663.185,-828.844C654.314,-814.147 644.819,-798.417 635.083,-782.287"/>
<polygon fill="#a8cc04" stroke="#a8cc04" points="663.432,-829.253 664.747,-840.14 666.016,-833.534 668.6,-837.814 668.6,-837.814 668.6,-837.814 666.016,-833.534 672.452,-835.489 663.432,-829.253 663.432,-829.253"/>
<polygon fill="#a8cc04" stroke="#a8cc04" points="634.82,-781.851 633.505,-770.964 632.236,-777.57 629.652,-773.289 629.652,-773.289 629.652,-773.289 632.236,-777.57 625.799,-775.615 634.82,-781.851 634.82,-781.851"/>
</g>
<!-- BuddyWalk&#45;&gt;TimeSlot -->
<g id="edge10" class="edge"><title>BuddyWalk&#45;&gt;TimeSlot</title>
<path fill="none" stroke="#c14001" d="M722.441,-829.834C726.883,-725.177 728.112,-545.94 697,-396 695.144,-387.055 692.72,-377.918 689.943,-368.853"/>
<ellipse fill="none" stroke="#c14001" cx="722.264" cy="-833.864" rx="4" ry="4"/>
<polygon fill="#c14001" stroke="#c14001" points="689.855,-368.58 691.086,-357.683 688.328,-363.819 686.801,-359.058 686.801,-359.058 686.801,-359.058 688.328,-363.819 682.516,-360.432 689.855,-368.58 689.855,-368.58"/>
</g>
<!-- Appointment -->
<g id="node6" class="node"><title>Appointment</title>
<polyline fill="none" stroke="black" points="511.5,-1 652.5,-1 "/>
<path fill="none" stroke="black" d="M652.5,-1C658.5,-1 664.5,-7 664.5,-13"/>
<polyline fill="none" stroke="black" points="664.5,-13 664.5,-131 "/>
<path fill="none" stroke="black" d="M664.5,-131C664.5,-137 658.5,-143 652.5,-143"/>
<polyline fill="none" stroke="black" points="652.5,-143 511.5,-143 "/>
<path fill="none" stroke="black" d="M511.5,-143C505.5,-143 499.5,-137 499.5,-131"/>
<polyline fill="none" stroke="black" points="499.5,-131 499.5,-13 "/>
<path fill="none" stroke="black" d="M499.5,-13C499.5,-7 505.5,-1 511.5,-1"/>
<text text-anchor="middle" x="582" y="-126.4" font-family="Times Roman,serif" font-size="14.00">Appointment</text>
<polyline fill="none" stroke="black" points="499.5,-117 664.5,-117 "/>
<text text-anchor="start" x="507.5" y="-100.4" font-family="Times Roman,serif" font-size="14.00">id :integer</text>
<text text-anchor="start" x="507.5" y="-82.4" font-family="Times Roman,serif" font-size="14.00">user_id :integer</text>
<text text-anchor="start" x="507.5" y="-64.4" font-family="Times Roman,serif" font-size="14.00">time_slot_id :integer</text>
<text text-anchor="start" x="507.5" y="-46.4" font-family="Times Roman,serif" font-size="14.00">is_checkedin :boolean</text>
<text text-anchor="start" x="507.5" y="-28.4" font-family="Times Roman,serif" font-size="14.00">created_at :datetime</text>
<text text-anchor="start" x="507.5" y="-10.4" font-family="Times Roman,serif" font-size="14.00">updated_at :datetime</text>
</g>
<!-- User&#45;&gt;Appointment -->
<g id="edge14" class="edge"><title>User&#45;&gt;Appointment</title>
<path fill="none" stroke="#d72bd3" d="M510.93,-388.682C512.959,-321.756 519.418,-246.95 535,-180 537.116,-170.909 539.971,-161.627 543.235,-152.51"/>
<ellipse fill="none" stroke="#d72bd3" cx="510.816" cy="-392.805" rx="4" ry="4"/>
<polygon fill="#d72bd3" stroke="#d72bd3" points="543.259,-152.448 550.984,-144.665 545.015,-147.766 546.771,-143.085 546.771,-143.085 546.771,-143.085 545.015,-147.766 542.558,-141.504 543.259,-152.448 543.259,-152.448"/>
</g>
<!-- User&#45;&gt;TimeSlot -->
<g id="edge16" class="edge"><title>User&#45;&gt;TimeSlot</title>
<path fill="none" stroke="#0047bd" d="M598.778,-387.461C601.429,-381.136 604.04,-374.904 606.594,-368.809"/>
<polygon fill="#0047bd" stroke="#0047bd" points="598.746,-387.538 590.731,-395.022 596.814,-392.149 594.881,-396.761 594.881,-396.761 594.881,-396.761 596.814,-392.149 599.031,-398.5 598.746,-387.538 598.746,-387.538"/>
<polygon fill="#0047bd" stroke="#0047bd" points="606.693,-368.573 614.709,-361.089 608.626,-363.961 610.558,-359.35 610.558,-359.35 610.558,-359.35 608.626,-363.961 606.408,-357.611 606.693,-368.573 606.693,-368.573"/>
</g>
<!-- TimeSlot&#45;&gt;Appointment -->
<g id="edge18" class="edge"><title>TimeSlot&#45;&gt;Appointment</title>
<path fill="none" stroke="#235250" d="M615.711,-173.134C613.448,-166.345 611.181,-159.544 608.952,-152.857"/>
<ellipse fill="none" stroke="#235250" cx="617.017" cy="-177.052" rx="4.00001" ry="4.00001"/>
<polygon fill="#235250" stroke="#235250" points="608.881,-152.643 609.988,-141.733 607.3,-147.899 605.719,-143.156 605.719,-143.156 605.719,-143.156 607.3,-147.899 601.45,-144.579 608.881,-152.643 608.881,-152.643"/>
</g>
</g>
</svg>
