<?xml version="1.0" encoding="UTF-8" standalone="no"?>
<!DOCTYPE svg PUBLIC "-//W3C//DTD SVG 1.1//EN"
 "http://www.w3.org/Graphics/SVG/1.1/DTD/svg11.dtd">
<!-- Generated by graphviz version 2.26.3 (20100126.1600)
 -->
<!-- Title: models_diagram Pages: 1 -->
<svg width="460pt" height="324pt"
 viewBox="0.00 0.00 460.00 324.00" xmlns="http://www.w3.org/2000/svg" xmlns:xlink="http://www.w3.org/1999/xlink">
<g id="graph1" class="graph" transform="scale(1 1) rotate(0) translate(4 320)">
<title>models_diagram</title>
<polygon fill="white" stroke="white" points="-4,5 -4,-320 457,-320 457,5 -4,5"/>
<!-- _diagram_info -->
<g id="node1" class="node"><title>_diagram_info</title>
<text text-anchor="start" x="8" y="-299.8" font-family="Times Roman,serif" font-size="13.00">Models diagram</text>
<text text-anchor="start" x="8" y="-282.8" font-family="Times Roman,serif" font-size="13.00">Date: Apr 25 2015 &#45; 16:57</text>
<text text-anchor="start" x="8" y="-265.8" font-family="Times Roman,serif" font-size="13.00">Migration version: 20150414205121</text>
<text text-anchor="start" x="8" y="-248.8" font-family="Times Roman,serif" font-size="13.00">Generated by RailRoady 1.3.0</text>
<text text-anchor="start" x="8" y="-231.8" font-family="Times Roman,serif" font-size="13.00">http://railroady.prestonlee.com</text>
</g>
<!-- Event -->
<g id="node2" class="node"><title>Event</title>
<ellipse fill="none" stroke="black" cx="308" cy="-269" rx="39.8075" ry="18.3848"/>
<text text-anchor="middle" x="308" y="-265.4" font-family="Times Roman,serif" font-size="14.00">Event</text>
</g>
<!-- User -->
<g id="node5" class="node"><title>User</title>
<ellipse fill="none" stroke="black" cx="277" cy="-167" rx="33.9411" ry="18.3848"/>
<text text-anchor="middle" x="277" y="-163.4" font-family="Times Roman,serif" font-size="14.00">User</text>
</g>
<!-- Event&#45;&gt;User -->
<g id="edge4" class="edge"><title>Event&#45;&gt;User</title>
<path fill="none" stroke="#5c0c6f" d="M299.353,-240.548C295.056,-226.411 289.88,-209.379 285.591,-195.266"/>
<polygon fill="#5c0c6f" stroke="#5c0c6f" points="299.406,-240.724 298.009,-251.6 300.86,-245.508 302.314,-250.292 302.314,-250.292 302.314,-250.292 300.86,-245.508 306.62,-248.983 299.406,-240.724 299.406,-240.724"/>
<polygon fill="#5c0c6f" stroke="#5c0c6f" points="285.558,-195.158 286.955,-184.281 284.104,-190.374 282.65,-185.59 282.65,-185.59 282.65,-185.59 284.104,-190.374 278.344,-186.898 285.558,-195.158 285.558,-195.158"/>
</g>
<!-- TimeSlot -->
<g id="node6" class="node"><title>TimeSlot</title>
<ellipse fill="none" stroke="black" cx="339" cy="-93" rx="53.9477" ry="18.3848"/>
<text text-anchor="middle" x="339" y="-89.4" font-family="Times Roman,serif" font-size="14.00">TimeSlot</text>
</g>
<!-- Event&#45;&gt;TimeSlot -->
<g id="edge2" class="edge"><title>Event&#45;&gt;TimeSlot</title>
<path fill="none" stroke="#a902bf" d="M312.689,-242.381C318.422,-209.832 328.086,-154.961 333.97,-121.555"/>
<ellipse fill="none" stroke="#a902bf" cx="311.953" cy="-246.558" rx="4.00001" ry="4.00001"/>
<polygon fill="#a902bf" stroke="#a902bf" points="334.003,-121.367 340.17,-112.299 334.871,-116.443 335.738,-111.519 335.738,-111.519 335.738,-111.519 334.871,-116.443 331.306,-110.738 334.003,-121.367 334.003,-121.367"/>
</g>
<!-- Article -->
<g id="node3" class="node"><title>Article</title>
<ellipse fill="none" stroke="black" cx="409" cy="-269" rx="43.1335" ry="18.3848"/>
<text text-anchor="middle" x="409" y="-265.4" font-family="Times Roman,serif" font-size="14.00">Article</text>
</g>
<!-- Appointment -->
<g id="node4" class="node"><title>Appointment</title>
<ellipse fill="none" stroke="black" cx="298" cy="-19" rx="74.9533" ry="18.3848"/>
<text text-anchor="middle" x="298" y="-15.4" font-family="Times Roman,serif" font-size="14.00">Appointment</text>
</g>
<!-- User&#45;&gt;Appointment -->
<g id="edge6" class="edge"><title>User&#45;&gt;Appointment</title>
<path fill="none" stroke="#cefe21" d="M273.897,-140.189C272.413,-121.471 271.763,-95.9994 276,-74 277.747,-64.927 280.978,-55.4482 284.435,-46.9659"/>
<ellipse fill="none" stroke="#cefe21" cx="274.265" cy="-144.293" rx="4" ry="4"/>
<polygon fill="#cefe21" stroke="#cefe21" points="284.541,-46.723 292.651,-39.3423 286.532,-42.1366 288.523,-37.5502 288.523,-37.5502 288.523,-37.5502 286.532,-42.1366 284.395,-35.7581 284.541,-46.723 284.541,-46.723"/>
</g>
<!-- User&#45;&gt;TimeSlot -->
<g id="edge8" class="edge"><title>User&#45;&gt;TimeSlot</title>
<path fill="none" stroke="#79c6f2" d="M297.945,-142.002C304.234,-134.494 311.144,-126.248 317.471,-118.696"/>
<polygon fill="#79c6f2" stroke="#79c6f2" points="297.802,-142.172 287.931,-146.947 294.591,-146.004 291.38,-149.837 291.38,-149.837 291.38,-149.837 294.591,-146.004 294.829,-152.727 297.802,-142.172 297.802,-142.172"/>
<polygon fill="#79c6f2" stroke="#79c6f2" points="317.629,-118.508 327.5,-113.733 320.84,-114.675 324.051,-110.843 324.051,-110.843 324.051,-110.843 320.84,-114.675 320.601,-107.953 317.629,-118.508 317.629,-118.508"/>
</g>
<!-- TimeSlot&#45;&gt;Appointment -->
<g id="edge10" class="edge"><title>TimeSlot&#45;&gt;Appointment</title>
<path fill="none" stroke="#a4fd85" d="M324.831,-67.427C321.06,-60.6209 316.972,-53.2428 313.151,-46.3459"/>
<ellipse fill="none" stroke="#a4fd85" cx="326.927" cy="-71.209" rx="4.00002" ry="4.00002"/>
<polygon fill="#a4fd85" stroke="#a4fd85" points="313.007,-46.0853 312.097,-35.1573 310.584,-41.7118 308.16,-37.3382 308.16,-37.3382 308.16,-37.3382 310.584,-41.7118 304.224,-39.5191 313.007,-46.0853 313.007,-46.0853"/>
</g>
</g>
</svg>
