<?xml version="1.0" encoding="UTF-8" standalone="no"?>
<!DOCTYPE svg PUBLIC "-//W3C//DTD SVG 1.1//EN"
 "http://www.w3.org/Graphics/SVG/1.1/DTD/svg11.dtd">
<!-- Generated by graphviz version 2.26.3 (20100126.1600)
 -->
<!-- Title: models_diagram Pages: 1 -->
<svg width="460pt" height="250pt"
 viewBox="0.00 0.00 460.00 250.00" xmlns="http://www.w3.org/2000/svg" xmlns:xlink="http://www.w3.org/1999/xlink">
<g id="graph1" class="graph" transform="scale(1 1) rotate(0) translate(4 246)">
<title>models_diagram</title>
<polygon fill="white" stroke="white" points="-4,5 -4,-246 457,-246 457,5 -4,5"/>
<!-- _diagram_info -->
<g id="node1" class="node"><title>_diagram_info</title>
<text text-anchor="start" x="8" y="-225.8" font-family="Times Roman,serif" font-size="13.00">Models diagram</text>
<text text-anchor="start" x="8" y="-208.8" font-family="Times Roman,serif" font-size="13.00">Date: Apr 08 2015 &#45; 18:17</text>
<text text-anchor="start" x="8" y="-191.8" font-family="Times Roman,serif" font-size="13.00">Migration version: 20150405232100</text>
<text text-anchor="start" x="8" y="-174.8" font-family="Times Roman,serif" font-size="13.00">Generated by RailRoady 1.3.0</text>
<text text-anchor="start" x="8" y="-157.8" font-family="Times Roman,serif" font-size="13.00">http://railroady.prestonlee.com</text>
</g>
<!-- Event -->
<g id="node2" class="node"><title>Event</title>
<ellipse fill="none" stroke="black" cx="308" cy="-195" rx="39.8075" ry="18.3848"/>
<text text-anchor="middle" x="308" y="-191.4" font-family="Times Roman,serif" font-size="14.00">Event</text>
</g>
<!-- User -->
<g id="node4" class="node"><title>User</title>
<ellipse fill="none" stroke="black" cx="277" cy="-93" rx="33.9411" ry="18.3848"/>
<text text-anchor="middle" x="277" y="-89.4" font-family="Times Roman,serif" font-size="14.00">User</text>
</g>
<!-- Event&#45;&gt;User -->
<g id="edge4" class="edge"><title>Event&#45;&gt;User</title>
<path fill="none" stroke="#1163e9" d="M299.353,-166.548C295.056,-152.411 289.88,-135.379 285.591,-121.266"/>
<polygon fill="#1163e9" stroke="#1163e9" points="299.406,-166.724 298.009,-177.6 300.86,-171.508 302.314,-176.292 302.314,-176.292 302.314,-176.292 300.86,-171.508 306.62,-174.983 299.406,-166.724 299.406,-166.724"/>
<polygon fill="#1163e9" stroke="#1163e9" points="285.558,-121.158 286.955,-110.281 284.104,-116.374 282.65,-111.59 282.65,-111.59 282.65,-111.59 284.104,-116.374 278.344,-112.898 285.558,-121.158 285.558,-121.158"/>
</g>
<!-- TimeSlot -->
<g id="node5" class="node"><title>TimeSlot</title>
<ellipse fill="none" stroke="black" cx="308" cy="-19" rx="53.9477" ry="18.3848"/>
<text text-anchor="middle" x="308" y="-15.4" font-family="Times Roman,serif" font-size="14.00">TimeSlot</text>
</g>
<!-- Event&#45;&gt;TimeSlot -->
<g id="edge2" class="edge"><title>Event&#45;&gt;TimeSlot</title>
<path fill="none" stroke="#24fe40" d="M313.79,-168.433C318.385,-143.908 323.502,-106.48 320,-74 319.054,-65.2267 317.283,-55.8004 315.386,-47.273"/>
<ellipse fill="none" stroke="#24fe40" cx="312.97" cy="-172.615" rx="4.00001" ry="4.00001"/>
<polygon fill="#24fe40" stroke="#24fe40" points="315.358,-47.1534 317.436,-36.3863 314.207,-42.2876 313.057,-37.4217 313.057,-37.4217 313.057,-37.4217 314.207,-42.2876 308.677,-38.4571 315.358,-47.1534 315.358,-47.1534"/>
</g>
<!-- Article -->
<g id="node3" class="node"><title>Article</title>
<ellipse fill="none" stroke="black" cx="409" cy="-195" rx="43.1335" ry="18.3848"/>
<text text-anchor="middle" x="409" y="-191.4" font-family="Times Roman,serif" font-size="14.00">Article</text>
</g>
<!-- User&#45;&gt;TimeSlot -->
<g id="edge6" class="edge"><title>User&#45;&gt;TimeSlot</title>
<path fill="none" stroke="#862f7d" d="M288.574,-65.3728C291.147,-59.2297 293.875,-52.7176 296.448,-46.5766"/>
<polygon fill="#862f7d" stroke="#862f7d" points="288.527,-65.4845 280.512,-72.9691 286.595,-70.0962 284.663,-74.7079 284.663,-74.7079 284.663,-74.7079 286.595,-70.0962 288.813,-76.4466 288.527,-65.4845 288.527,-65.4845"/>
<polygon fill="#862f7d" stroke="#862f7d" points="296.454,-46.5616 304.468,-39.0769 298.386,-41.9499 300.318,-37.3382 300.318,-37.3382 300.318,-37.3382 298.386,-41.9499 296.167,-35.5994 296.454,-46.5616 296.454,-46.5616"/>
</g>
</g>
</svg>
