<?xml version="1.0" encoding="UTF-8" standalone="no"?>
<!DOCTYPE svg PUBLIC "-//W3C//DTD SVG 1.1//EN"
 "http://www.w3.org/Graphics/SVG/1.1/DTD/svg11.dtd">
<!-- Generated by graphviz version 2.26.3 (20100126.1600)
 -->
<!-- Title: models_diagram Pages: 1 -->
<svg width="736pt" height="782pt"
 viewBox="0.00 0.00 736.00 782.00" xmlns="http://www.w3.org/2000/svg" xmlns:xlink="http://www.w3.org/1999/xlink">
<g id="graph1" class="graph" transform="scale(1 1) rotate(0) translate(4 778)">
<title>models_diagram</title>
<polygon fill="white" stroke="white" points="-4,5 -4,-778 733,-778 733,5 -4,5"/>
<!-- _diagram_info -->
<g id="node1" class="node"><title>_diagram_info</title>
<text text-anchor="start" x="8" y="-624.8" font-family="Times Roman,serif" font-size="13.00">Models diagram</text>
<text text-anchor="start" x="8" y="-607.8" font-family="Times Roman,serif" font-size="13.00">Date: Apr 06 2015 &#45; 12:23</text>
<text text-anchor="start" x="8" y="-590.8" font-family="Times Roman,serif" font-size="13.00">Migration version: 20150405232100</text>
<text text-anchor="start" x="8" y="-573.8" font-family="Times Roman,serif" font-size="13.00">Generated by RailRoady 1.3.0</text>
<text text-anchor="start" x="8" y="-556.8" font-family="Times Roman,serif" font-size="13.00">http://railroady.prestonlee.com</text>
</g>
<!-- Event -->
<g id="node2" class="node"><title>Event</title>
<polyline fill="none" stroke="black" points="281.5,-217 422.5,-217 "/>
<path fill="none" stroke="black" d="M422.5,-217C428.5,-217 434.5,-223 434.5,-229"/>
<polyline fill="none" stroke="black" points="434.5,-229 434.5,-365 "/>
<path fill="none" stroke="black" d="M434.5,-365C434.5,-371 428.5,-377 422.5,-377"/>
<polyline fill="none" stroke="black" points="422.5,-377 281.5,-377 "/>
<path fill="none" stroke="black" d="M281.5,-377C275.5,-377 269.5,-371 269.5,-365"/>
<polyline fill="none" stroke="black" points="269.5,-365 269.5,-229 "/>
<path fill="none" stroke="black" d="M269.5,-229C269.5,-223 275.5,-217 281.5,-217"/>
<text text-anchor="middle" x="352" y="-360.4" font-family="Times Roman,serif" font-size="14.00">Event</text>
<polyline fill="none" stroke="black" points="269.5,-351 434.5,-351 "/>
<text text-anchor="start" x="277.5" y="-334.4" font-family="Times Roman,serif" font-size="14.00">id :integer</text>
<text text-anchor="start" x="277.5" y="-316.4" font-family="Times Roman,serif" font-size="14.00">title :string</text>
<text text-anchor="start" x="277.5" y="-298.4" font-family="Times Roman,serif" font-size="14.00">place :string</text>
<text text-anchor="start" x="277.5" y="-280.4" font-family="Times Roman,serif" font-size="14.00">description :text</text>
<text text-anchor="start" x="277.5" y="-262.4" font-family="Times Roman,serif" font-size="14.00">date :date</text>
<text text-anchor="start" x="277.5" y="-244.4" font-family="Times Roman,serif" font-size="14.00">created_at :datetime</text>
<text text-anchor="start" x="277.5" y="-226.4" font-family="Times Roman,serif" font-size="14.00">updated_at :datetime</text>
</g>
<!-- TimeSlot -->
<g id="node5" class="node"><title>TimeSlot</title>
<polyline fill="none" stroke="black" points="315,-1 499,-1 "/>
<path fill="none" stroke="black" d="M499,-1C505,-1 511,-7 511,-13"/>
<polyline fill="none" stroke="black" points="511,-13 511,-167 "/>
<path fill="none" stroke="black" d="M511,-167C511,-173 505,-179 499,-179"/>
<polyline fill="none" stroke="black" points="499,-179 315,-179 "/>
<path fill="none" stroke="black" d="M315,-179C309,-179 303,-173 303,-167"/>
<polyline fill="none" stroke="black" points="303,-167 303,-13 "/>
<path fill="none" stroke="black" d="M303,-13C303,-7 309,-1 315,-1"/>
<text text-anchor="middle" x="407" y="-162.4" font-family="Times Roman,serif" font-size="14.00">TimeSlot</text>
<polyline fill="none" stroke="black" points="303,-153 511,-153 "/>
<text text-anchor="start" x="311" y="-136.4" font-family="Times Roman,serif" font-size="14.00">id :integer</text>
<text text-anchor="start" x="311" y="-118.4" font-family="Times Roman,serif" font-size="14.00">start_time :datetime</text>
<text text-anchor="start" x="311" y="-100.4" font-family="Times Roman,serif" font-size="14.00">end_time :datetime</text>
<text text-anchor="start" x="311" y="-82.4" font-family="Times Roman,serif" font-size="14.00">total_capacity :integer</text>
<text text-anchor="start" x="311" y="-64.4" font-family="Times Roman,serif" font-size="14.00">remaining_capacity :integer</text>
<text text-anchor="start" x="311" y="-46.4" font-family="Times Roman,serif" font-size="14.00">event_id :integer</text>
<text text-anchor="start" x="311" y="-28.4" font-family="Times Roman,serif" font-size="14.00">created_at :datetime</text>
<text text-anchor="start" x="311" y="-10.4" font-family="Times Roman,serif" font-size="14.00">updated_at :datetime</text>
</g>
<!-- Event&#45;&gt;TimeSlot -->
<g id="edge2" class="edge"><title>Event&#45;&gt;TimeSlot</title>
<path fill="none" stroke="#d23876" d="M375.364,-209.065C377.135,-202.402 378.928,-195.652 380.715,-188.927"/>
<ellipse fill="none" stroke="#d23876" cx="374.292" cy="-213.103" rx="4.00001" ry="4.00001"/>
<polygon fill="#d23876" stroke="#d23876" points="380.756,-188.771 387.673,-180.262 382.04,-183.939 383.324,-179.107 383.324,-179.107 383.324,-179.107 382.04,-183.939 378.975,-177.951 380.756,-188.771 380.756,-188.771"/>
</g>
<!-- Article -->
<g id="node3" class="node"><title>Article</title>
<polyline fill="none" stroke="black" points="575.5,-541 716.5,-541 "/>
<path fill="none" stroke="black" d="M716.5,-541C722.5,-541 728.5,-547 728.5,-553"/>
<polyline fill="none" stroke="black" points="728.5,-553 728.5,-635 "/>
<path fill="none" stroke="black" d="M728.5,-635C728.5,-641 722.5,-647 716.5,-647"/>
<polyline fill="none" stroke="black" points="716.5,-647 575.5,-647 "/>
<path fill="none" stroke="black" d="M575.5,-647C569.5,-647 563.5,-641 563.5,-635"/>
<polyline fill="none" stroke="black" points="563.5,-635 563.5,-553 "/>
<path fill="none" stroke="black" d="M563.5,-553C563.5,-547 569.5,-541 575.5,-541"/>
<text text-anchor="middle" x="646" y="-630.4" font-family="Times Roman,serif" font-size="14.00">Article</text>
<polyline fill="none" stroke="black" points="563.5,-621 728.5,-621 "/>
<text text-anchor="start" x="571.5" y="-604.4" font-family="Times Roman,serif" font-size="14.00">id :integer</text>
<text text-anchor="start" x="571.5" y="-586.4" font-family="Times Roman,serif" font-size="14.00">text :text</text>
<text text-anchor="start" x="571.5" y="-568.4" font-family="Times Roman,serif" font-size="14.00">created_at :datetime</text>
<text text-anchor="start" x="571.5" y="-550.4" font-family="Times Roman,serif" font-size="14.00">updated_at :datetime</text>
</g>
<!-- User -->
<g id="node4" class="node"><title>User</title>
<polyline fill="none" stroke="black" points="279.5,-415 534.5,-415 "/>
<path fill="none" stroke="black" d="M534.5,-415C540.5,-415 546.5,-421 546.5,-427"/>
<polyline fill="none" stroke="black" points="546.5,-427 546.5,-761 "/>
<path fill="none" stroke="black" d="M546.5,-761C546.5,-767 540.5,-773 534.5,-773"/>
<polyline fill="none" stroke="black" points="534.5,-773 279.5,-773 "/>
<path fill="none" stroke="black" d="M279.5,-773C273.5,-773 267.5,-767 267.5,-761"/>
<polyline fill="none" stroke="black" points="267.5,-761 267.5,-427 "/>
<path fill="none" stroke="black" d="M267.5,-427C267.5,-421 273.5,-415 279.5,-415"/>
<text text-anchor="middle" x="407" y="-756.4" font-family="Times Roman,serif" font-size="14.00">User</text>
<polyline fill="none" stroke="black" points="267.5,-747 546.5,-747 "/>
<text text-anchor="start" x="275.5" y="-730.4" font-family="Times Roman,serif" font-size="14.00">id :integer</text>
<text text-anchor="start" x="275.5" y="-712.4" font-family="Times Roman,serif" font-size="14.00">name :string</text>
<text text-anchor="start" x="275.5" y="-694.4" font-family="Times Roman,serif" font-size="14.00">email :string</text>
<text text-anchor="start" x="275.5" y="-676.4" font-family="Times Roman,serif" font-size="14.00">password_digest :string</text>
<text text-anchor="start" x="275.5" y="-658.4" font-family="Times Roman,serif" font-size="14.00">address :string</text>
<text text-anchor="start" x="275.5" y="-640.4" font-family="Times Roman,serif" font-size="14.00">phone :string</text>
<text text-anchor="start" x="275.5" y="-622.4" font-family="Times Roman,serif" font-size="14.00">emergency_contact_name :string</text>
<text text-anchor="start" x="275.5" y="-604.4" font-family="Times Roman,serif" font-size="14.00">emergency_contact_phone :string</text>
<text text-anchor="start" x="275.5" y="-586.4" font-family="Times Roman,serif" font-size="14.00">remember_digest :string</text>
<text text-anchor="start" x="275.5" y="-568.4" font-family="Times Roman,serif" font-size="14.00">activation_digest :string</text>
<text text-anchor="start" x="275.5" y="-550.4" font-family="Times Roman,serif" font-size="14.00">reset_digest :string</text>
<text text-anchor="start" x="275.5" y="-532.4" font-family="Times Roman,serif" font-size="14.00">activated_at :datetime</text>
<text text-anchor="start" x="275.5" y="-514.4" font-family="Times Roman,serif" font-size="14.00">reset_sent_at :datetime</text>
<text text-anchor="start" x="275.5" y="-496.4" font-family="Times Roman,serif" font-size="14.00">activated :boolean</text>
<text text-anchor="start" x="275.5" y="-478.4" font-family="Times Roman,serif" font-size="14.00">admin :boolean</text>
<text text-anchor="start" x="275.5" y="-460.4" font-family="Times Roman,serif" font-size="14.00">event_register_email_notify :datetime</text>
<text text-anchor="start" x="275.5" y="-442.4" font-family="Times Roman,serif" font-size="14.00">created_at :datetime</text>
<text text-anchor="start" x="275.5" y="-424.4" font-family="Times Roman,serif" font-size="14.00">updated_at :datetime</text>
</g>
<!-- User&#45;&gt;Event -->
<g id="edge6" class="edge"><title>User&#45;&gt;Event</title>
<path fill="none" stroke="#ceb4bf" d="M371.97,-404.838C370.871,-398.905 369.79,-393.067 368.734,-387.364"/>
<polygon fill="#ceb4bf" stroke="#ceb4bf" points="371.995,-404.976 369.392,-415.628 372.906,-409.892 373.816,-414.809 373.816,-414.809 373.816,-414.809 372.906,-409.892 378.241,-413.989 371.995,-404.976 371.995,-404.976"/>
<polygon fill="#ceb4bf" stroke="#ceb4bf" points="368.683,-387.088 371.287,-376.435 367.772,-382.171 366.862,-377.255 366.862,-377.255 366.862,-377.255 367.772,-382.171 362.437,-378.074 368.683,-387.088 368.683,-387.088"/>
</g>
<!-- User&#45;&gt;TimeSlot -->
<g id="edge4" class="edge"><title>User&#45;&gt;TimeSlot</title>
<path fill="none" stroke="#4cd887" d="M442.376,-404.764C449.036,-344.317 451.575,-277.224 443,-216 441.76,-207.148 440.053,-198.045 438.051,-188.977"/>
<polygon fill="#4cd887" stroke="#4cd887" points="442.365,-404.86 436.756,-414.283 441.796,-409.828 441.226,-414.795 441.226,-414.795 441.226,-414.795 441.796,-409.828 445.697,-415.308 442.365,-404.86 442.365,-404.86"/>
<polygon fill="#4cd887" stroke="#4cd887" points="438.035,-188.905 440.155,-178.146 436.903,-184.035 435.771,-179.165 435.771,-179.165 435.771,-179.165 436.903,-184.035 431.388,-180.183 438.035,-188.905 438.035,-188.905"/>
</g>
</g>
</svg>
