<?xml version="1.0" encoding="UTF-8" standalone="no"?>
<!DOCTYPE svg PUBLIC "-//W3C//DTD SVG 1.1//EN"
 "http://www.w3.org/Graphics/SVG/1.1/DTD/svg11.dtd">
<!-- Generated by graphviz version 2.26.3 (20100126.1600)
 -->
<!-- Title: models_diagram Pages: 1 -->
<svg width="798pt" height="1268pt"
 viewBox="0.00 0.00 798.00 1268.00" xmlns="http://www.w3.org/2000/svg" xmlns:xlink="http://www.w3.org/1999/xlink">
<g id="graph1" class="graph" transform="scale(1 1) rotate(0) translate(4 1264)">
<title>models_diagram</title>
<polygon fill="white" stroke="white" points="-4,5 -4,-1264 795,-1264 795,5 -4,5"/>
<!-- _diagram_info -->
<g id="node1" class="node"><title>_diagram_info</title>
<text text-anchor="start" x="8" y="-1182.8" font-family="Times Roman,serif" font-size="13.00">Models diagram</text>
<text text-anchor="start" x="8" y="-1165.8" font-family="Times Roman,serif" font-size="13.00">Date: May 02 2015 &#45; 18:05</text>
<text text-anchor="start" x="8" y="-1148.8" font-family="Times Roman,serif" font-size="13.00">Migration version: 20150502213339</text>
<text text-anchor="start" x="8" y="-1131.8" font-family="Times Roman,serif" font-size="13.00">Generated by RailRoady 1.3.0</text>
<text text-anchor="start" x="8" y="-1114.8" font-family="Times Roman,serif" font-size="13.00">http://railroady.prestonlee.com</text>
</g>
<!-- Event -->
<g id="node2" class="node"><title>Event</title>
<polyline fill="none" stroke="black" points="637.5,-838 778.5,-838 "/>
<path fill="none" stroke="black" d="M778.5,-838C784.5,-838 790.5,-844 790.5,-850"/>
<polyline fill="none" stroke="black" points="790.5,-850 790.5,-986 "/>
<path fill="none" stroke="black" d="M790.5,-986C790.5,-992 784.5,-998 778.5,-998"/>
<polyline fill="none" stroke="black" points="778.5,-998 637.5,-998 "/>
<path fill="none" stroke="black" d="M637.5,-998C631.5,-998 625.5,-992 625.5,-986"/>
<polyline fill="none" stroke="black" points="625.5,-986 625.5,-850 "/>
<path fill="none" stroke="black" d="M625.5,-850C625.5,-844 631.5,-838 637.5,-838"/>
<text text-anchor="middle" x="708" y="-981.4" font-family="Times Roman,serif" font-size="14.00">Event</text>
<polyline fill="none" stroke="black" points="625.5,-972 790.5,-972 "/>
<text text-anchor="start" x="633.5" y="-955.4" font-family="Times Roman,serif" font-size="14.00">id :integer</text>
<text text-anchor="start" x="633.5" y="-937.4" font-family="Times Roman,serif" font-size="14.00">title :string</text>
<text text-anchor="start" x="633.5" y="-919.4" font-family="Times Roman,serif" font-size="14.00">place :string</text>
<text text-anchor="start" x="633.5" y="-901.4" font-family="Times Roman,serif" font-size="14.00">description :text</text>
<text text-anchor="start" x="633.5" y="-883.4" font-family="Times Roman,serif" font-size="14.00">date :date</text>
<text text-anchor="start" x="633.5" y="-865.4" font-family="Times Roman,serif" font-size="14.00">created_at :datetime</text>
<text text-anchor="start" x="633.5" y="-847.4" font-family="Times Roman,serif" font-size="14.00">updated_at :datetime</text>
</g>
<!-- User -->
<g id="node9" class="node"><title>User</title>
<polyline fill="none" stroke="black" points="336.5,-415 591.5,-415 "/>
<path fill="none" stroke="black" d="M591.5,-415C597.5,-415 603.5,-421 603.5,-427"/>
<polyline fill="none" stroke="black" points="603.5,-427 603.5,-779 "/>
<path fill="none" stroke="black" d="M603.5,-779C603.5,-785 597.5,-791 591.5,-791"/>
<polyline fill="none" stroke="black" points="591.5,-791 336.5,-791 "/>
<path fill="none" stroke="black" d="M336.5,-791C330.5,-791 324.5,-785 324.5,-779"/>
<polyline fill="none" stroke="black" points="324.5,-779 324.5,-427 "/>
<path fill="none" stroke="black" d="M324.5,-427C324.5,-421 330.5,-415 336.5,-415"/>
<text text-anchor="middle" x="464" y="-774.4" font-family="Times Roman,serif" font-size="14.00">User</text>
<polyline fill="none" stroke="black" points="324.5,-765 603.5,-765 "/>
<text text-anchor="start" x="332.5" y="-748.4" font-family="Times Roman,serif" font-size="14.00">id :integer</text>
<text text-anchor="start" x="332.5" y="-730.4" font-family="Times Roman,serif" font-size="14.00">name :string</text>
<text text-anchor="start" x="332.5" y="-712.4" font-family="Times Roman,serif" font-size="14.00">email :string</text>
<text text-anchor="start" x="332.5" y="-694.4" font-family="Times Roman,serif" font-size="14.00">password_digest :string</text>
<text text-anchor="start" x="332.5" y="-676.4" font-family="Times Roman,serif" font-size="14.00">address :string</text>
<text text-anchor="start" x="332.5" y="-658.4" font-family="Times Roman,serif" font-size="14.00">phone :string</text>
<text text-anchor="start" x="332.5" y="-640.4" font-family="Times Roman,serif" font-size="14.00">emergency_contact_name :string</text>
<text text-anchor="start" x="332.5" y="-622.4" font-family="Times Roman,serif" font-size="14.00">emergency_contact_phone :string</text>
<text text-anchor="start" x="332.5" y="-604.4" font-family="Times Roman,serif" font-size="14.00">remember_digest :string</text>
<text text-anchor="start" x="332.5" y="-586.4" font-family="Times Roman,serif" font-size="14.00">activation_digest :string</text>
<text text-anchor="start" x="332.5" y="-568.4" font-family="Times Roman,serif" font-size="14.00">reset_digest :string</text>
<text text-anchor="start" x="332.5" y="-550.4" font-family="Times Roman,serif" font-size="14.00">activated_at :datetime</text>
<text text-anchor="start" x="332.5" y="-532.4" font-family="Times Roman,serif" font-size="14.00">reset_sent_at :datetime</text>
<text text-anchor="start" x="332.5" y="-514.4" font-family="Times Roman,serif" font-size="14.00">activated :boolean</text>
<text text-anchor="start" x="332.5" y="-496.4" font-family="Times Roman,serif" font-size="14.00">admin :boolean</text>
<text text-anchor="start" x="332.5" y="-478.4" font-family="Times Roman,serif" font-size="14.00">event_register_email_notify :datetime</text>
<text text-anchor="start" x="332.5" y="-460.4" font-family="Times Roman,serif" font-size="14.00">created_at :datetime</text>
<text text-anchor="start" x="332.5" y="-442.4" font-family="Times Roman,serif" font-size="14.00">updated_at :datetime</text>
<text text-anchor="start" x="332.5" y="-424.4" font-family="Times Roman,serif" font-size="14.00">staff :boolean</text>
</g>
<!-- Event&#45;&gt;User -->
<g id="edge4" class="edge"><title>Event&#45;&gt;User</title>
<path fill="none" stroke="#81526e" d="M639.555,-829.639C630.127,-817.468 620.167,-804.609 609.974,-791.45"/>
<polygon fill="#81526e" stroke="#81526e" points="639.673,-829.791 642.24,-840.453 642.735,-833.744 645.797,-837.697 645.797,-837.697 645.797,-837.697 642.735,-833.744 649.355,-834.941 639.673,-829.791 639.673,-829.791"/>
<polygon fill="#81526e" stroke="#81526e" points="609.724,-791.127 607.157,-780.465 606.662,-787.174 603.6,-783.221 603.6,-783.221 603.6,-783.221 606.662,-787.174 600.042,-785.977 609.724,-791.127 609.724,-791.127"/>
</g>
<!-- TimeSlot -->
<g id="node10" class="node"><title>TimeSlot</title>
<polyline fill="none" stroke="black" points="521,-199 705,-199 "/>
<path fill="none" stroke="black" d="M705,-199C711,-199 717,-205 717,-211"/>
<polyline fill="none" stroke="black" points="717,-211 717,-365 "/>
<path fill="none" stroke="black" d="M717,-365C717,-371 711,-377 705,-377"/>
<polyline fill="none" stroke="black" points="705,-377 521,-377 "/>
<path fill="none" stroke="black" d="M521,-377C515,-377 509,-371 509,-365"/>
<polyline fill="none" stroke="black" points="509,-365 509,-211 "/>
<path fill="none" stroke="black" d="M509,-211C509,-205 515,-199 521,-199"/>
<text text-anchor="middle" x="613" y="-360.4" font-family="Times Roman,serif" font-size="14.00">TimeSlot</text>
<polyline fill="none" stroke="black" points="509,-351 717,-351 "/>
<text text-anchor="start" x="517" y="-334.4" font-family="Times Roman,serif" font-size="14.00">id :integer</text>
<text text-anchor="start" x="517" y="-316.4" font-family="Times Roman,serif" font-size="14.00">start_time :datetime</text>
<text text-anchor="start" x="517" y="-298.4" font-family="Times Roman,serif" font-size="14.00">end_time :datetime</text>
<text text-anchor="start" x="517" y="-280.4" font-family="Times Roman,serif" font-size="14.00">total_capacity :integer</text>
<text text-anchor="start" x="517" y="-262.4" font-family="Times Roman,serif" font-size="14.00">remaining_capacity :integer</text>
<text text-anchor="start" x="517" y="-244.4" font-family="Times Roman,serif" font-size="14.00">event_id :integer</text>
<text text-anchor="start" x="517" y="-226.4" font-family="Times Roman,serif" font-size="14.00">created_at :datetime</text>
<text text-anchor="start" x="517" y="-208.4" font-family="Times Roman,serif" font-size="14.00">updated_at :datetime</text>
</g>
<!-- Event&#45;&gt;TimeSlot -->
<g id="edge2" class="edge"><title>Event&#45;&gt;TimeSlot</title>
<path fill="none" stroke="#eccaf8" d="M698.185,-829.797C686.478,-728.937 665.284,-559.027 640,-414 638.476,-405.26 636.777,-396.204 634.992,-387.14"/>
<ellipse fill="none" stroke="#eccaf8" cx="698.655" cy="-833.864" rx="4.00001" ry="4.00001"/>
<polygon fill="#eccaf8" stroke="#eccaf8" points="634.989,-387.122 637.44,-376.434 634.008,-382.219 633.027,-377.317 633.027,-377.317 633.027,-377.317 634.008,-382.219 628.615,-378.199 634.989,-387.122 634.989,-387.122"/>
</g>
<!-- DsClass -->
<g id="node3" class="node"><title>DsClass</title>
<polyline fill="none" stroke="black" points="279.5,-1045 420.5,-1045 "/>
<path fill="none" stroke="black" d="M420.5,-1045C426.5,-1045 432.5,-1051 432.5,-1057"/>
<polyline fill="none" stroke="black" points="432.5,-1057 432.5,-1247 "/>
<path fill="none" stroke="black" d="M432.5,-1247C432.5,-1253 426.5,-1259 420.5,-1259"/>
<polyline fill="none" stroke="black" points="420.5,-1259 279.5,-1259 "/>
<path fill="none" stroke="black" d="M279.5,-1259C273.5,-1259 267.5,-1253 267.5,-1247"/>
<polyline fill="none" stroke="black" points="267.5,-1247 267.5,-1057 "/>
<path fill="none" stroke="black" d="M267.5,-1057C267.5,-1051 273.5,-1045 279.5,-1045"/>
<text text-anchor="middle" x="350" y="-1242.4" font-family="Times Roman,serif" font-size="14.00">DsClass</text>
<polyline fill="none" stroke="black" points="267.5,-1233 432.5,-1233 "/>
<text text-anchor="start" x="275.5" y="-1216.4" font-family="Times Roman,serif" font-size="14.00">id :integer</text>
<text text-anchor="start" x="275.5" y="-1198.4" font-family="Times Roman,serif" font-size="14.00">title :string</text>
<text text-anchor="start" x="275.5" y="-1180.4" font-family="Times Roman,serif" font-size="14.00">place :string</text>
<text text-anchor="start" x="275.5" y="-1162.4" font-family="Times Roman,serif" font-size="14.00">description :text</text>
<text text-anchor="start" x="275.5" y="-1144.4" font-family="Times Roman,serif" font-size="14.00">start_time :datetime</text>
<text text-anchor="start" x="275.5" y="-1126.4" font-family="Times Roman,serif" font-size="14.00">end_time :datetime</text>
<text text-anchor="start" x="275.5" y="-1108.4" font-family="Times Roman,serif" font-size="14.00">start_date :date</text>
<text text-anchor="start" x="275.5" y="-1090.4" font-family="Times Roman,serif" font-size="14.00">end_date :date</text>
<text text-anchor="start" x="275.5" y="-1072.4" font-family="Times Roman,serif" font-size="14.00">created_at :datetime</text>
<text text-anchor="start" x="275.5" y="-1054.4" font-family="Times Roman,serif" font-size="14.00">updated_at :datetime</text>
</g>
<!-- ClassSlot -->
<g id="node7" class="node"><title>ClassSlot</title>
<polyline fill="none" stroke="black" points="192,-829 376,-829 "/>
<path fill="none" stroke="black" d="M376,-829C382,-829 388,-835 388,-841"/>
<polyline fill="none" stroke="black" points="388,-841 388,-995 "/>
<path fill="none" stroke="black" d="M388,-995C388,-1001 382,-1007 376,-1007"/>
<polyline fill="none" stroke="black" points="376,-1007 192,-1007 "/>
<path fill="none" stroke="black" d="M192,-1007C186,-1007 180,-1001 180,-995"/>
<polyline fill="none" stroke="black" points="180,-995 180,-841 "/>
<path fill="none" stroke="black" d="M180,-841C180,-835 186,-829 192,-829"/>
<text text-anchor="middle" x="284" y="-990.4" font-family="Times Roman,serif" font-size="14.00">ClassSlot</text>
<polyline fill="none" stroke="black" points="180,-981 388,-981 "/>
<text text-anchor="start" x="188" y="-964.4" font-family="Times Roman,serif" font-size="14.00">id :integer</text>
<text text-anchor="start" x="188" y="-946.4" font-family="Times Roman,serif" font-size="14.00">start_time :datetime</text>
<text text-anchor="start" x="188" y="-928.4" font-family="Times Roman,serif" font-size="14.00">end_time :datetime</text>
<text text-anchor="start" x="188" y="-910.4" font-family="Times Roman,serif" font-size="14.00">total_capacity :integer</text>
<text text-anchor="start" x="188" y="-892.4" font-family="Times Roman,serif" font-size="14.00">remaining_capacity :integer</text>
<text text-anchor="start" x="188" y="-874.4" font-family="Times Roman,serif" font-size="14.00">ds_class_id :integer</text>
<text text-anchor="start" x="188" y="-856.4" font-family="Times Roman,serif" font-size="14.00">created_at :datetime</text>
<text text-anchor="start" x="188" y="-838.4" font-family="Times Roman,serif" font-size="14.00">updated_at :datetime</text>
</g>
<!-- DsClass&#45;&gt;ClassSlot -->
<g id="edge6" class="edge"><title>DsClass&#45;&gt;ClassSlot</title>
<path fill="none" stroke="#cb0786" d="M317.625,-1037.22C315.711,-1030.43 313.794,-1023.63 311.9,-1016.92"/>
<ellipse fill="none" stroke="#cb0786" cx="318.715" cy="-1041.08" rx="4.00001" ry="4.00001"/>
<polygon fill="#cb0786" stroke="#cb0786" points="311.86,-1016.78 313.476,-1005.93 310.502,-1011.96 309.145,-1007.15 309.145,-1007.15 309.145,-1007.15 310.502,-1011.96 304.814,-1008.37 311.86,-1016.78 311.86,-1016.78"/>
</g>
<!-- DsClass&#45;&gt;User -->
<g id="edge8" class="edge"><title>DsClass&#45;&gt;User</title>
<path fill="none" stroke="#77eeb3" d="M389.828,-1034.95C392.417,-1025.87 394.845,-1016.82 397,-1008 413.296,-941.327 426.813,-867.501 437.336,-801.34"/>
<polygon fill="#77eeb3" stroke="#77eeb3" points="389.758,-1035.19 382.641,-1043.53 388.36,-1039.99 386.961,-1044.79 386.961,-1044.79 386.961,-1044.79 388.36,-1039.99 391.282,-1046.05 389.758,-1035.19 389.758,-1035.19"/>
<polygon fill="#77eeb3" stroke="#77eeb3" points="437.375,-801.092 443.378,-791.915 438.154,-796.153 438.933,-791.214 438.933,-791.214 438.933,-791.214 438.154,-796.153 434.488,-790.513 437.375,-801.092 437.375,-801.092"/>
</g>
<!-- Day -->
<g id="node4" class="node"><title>Day</title>
<polyline fill="none" stroke="black" points="116.5,-541 257.5,-541 "/>
<path fill="none" stroke="black" d="M257.5,-541C263.5,-541 269.5,-547 269.5,-553"/>
<polyline fill="none" stroke="black" points="269.5,-553 269.5,-653 "/>
<path fill="none" stroke="black" d="M269.5,-653C269.5,-659 263.5,-665 257.5,-665"/>
<polyline fill="none" stroke="black" points="257.5,-665 116.5,-665 "/>
<path fill="none" stroke="black" d="M116.5,-665C110.5,-665 104.5,-659 104.5,-653"/>
<polyline fill="none" stroke="black" points="104.5,-653 104.5,-553 "/>
<path fill="none" stroke="black" d="M104.5,-553C104.5,-547 110.5,-541 116.5,-541"/>
<text text-anchor="middle" x="187" y="-648.4" font-family="Times Roman,serif" font-size="14.00">Day</text>
<polyline fill="none" stroke="black" points="104.5,-639 269.5,-639 "/>
<text text-anchor="start" x="112.5" y="-622.4" font-family="Times Roman,serif" font-size="14.00">id :integer</text>
<text text-anchor="start" x="112.5" y="-604.4" font-family="Times Roman,serif" font-size="14.00">day :string</text>
<text text-anchor="start" x="112.5" y="-586.4" font-family="Times Roman,serif" font-size="14.00">created_at :datetime</text>
<text text-anchor="start" x="112.5" y="-568.4" font-family="Times Roman,serif" font-size="14.00">updated_at :datetime</text>
<text text-anchor="start" x="112.5" y="-550.4" font-family="Times Roman,serif" font-size="14.00">class_slot_id :integer</text>
</g>
<!-- Article -->
<g id="node5" class="node"><title>Article</title>
<polyline fill="none" stroke="black" points="461.5,-1099 602.5,-1099 "/>
<path fill="none" stroke="black" d="M602.5,-1099C608.5,-1099 614.5,-1105 614.5,-1111"/>
<polyline fill="none" stroke="black" points="614.5,-1111 614.5,-1193 "/>
<path fill="none" stroke="black" d="M614.5,-1193C614.5,-1199 608.5,-1205 602.5,-1205"/>
<polyline fill="none" stroke="black" points="602.5,-1205 461.5,-1205 "/>
<path fill="none" stroke="black" d="M461.5,-1205C455.5,-1205 449.5,-1199 449.5,-1193"/>
<polyline fill="none" stroke="black" points="449.5,-1193 449.5,-1111 "/>
<path fill="none" stroke="black" d="M449.5,-1111C449.5,-1105 455.5,-1099 461.5,-1099"/>
<text text-anchor="middle" x="532" y="-1188.4" font-family="Times Roman,serif" font-size="14.00">Article</text>
<polyline fill="none" stroke="black" points="449.5,-1179 614.5,-1179 "/>
<text text-anchor="start" x="457.5" y="-1162.4" font-family="Times Roman,serif" font-size="14.00">id :integer</text>
<text text-anchor="start" x="457.5" y="-1144.4" font-family="Times Roman,serif" font-size="14.00">text :text</text>
<text text-anchor="start" x="457.5" y="-1126.4" font-family="Times Roman,serif" font-size="14.00">created_at :datetime</text>
<text text-anchor="start" x="457.5" y="-1108.4" font-family="Times Roman,serif" font-size="14.00">updated_at :datetime</text>
</g>
<!-- BuddyWalk -->
<g id="node6" class="node"><title>BuddyWalk</title>
<polyline fill="none" stroke="black" points="455.5,-838 596.5,-838 "/>
<path fill="none" stroke="black" d="M596.5,-838C602.5,-838 608.5,-844 608.5,-850"/>
<polyline fill="none" stroke="black" points="608.5,-850 608.5,-986 "/>
<path fill="none" stroke="black" d="M608.5,-986C608.5,-992 602.5,-998 596.5,-998"/>
<polyline fill="none" stroke="black" points="596.5,-998 455.5,-998 "/>
<path fill="none" stroke="black" d="M455.5,-998C449.5,-998 443.5,-992 443.5,-986"/>
<polyline fill="none" stroke="black" points="443.5,-986 443.5,-850 "/>
<path fill="none" stroke="black" d="M443.5,-850C443.5,-844 449.5,-838 455.5,-838"/>
<text text-anchor="middle" x="526" y="-981.4" font-family="Times Roman,serif" font-size="14.00">BuddyWalk</text>
<polyline fill="none" stroke="black" points="443.5,-972 608.5,-972 "/>
<text text-anchor="start" x="451.5" y="-955.4" font-family="Times Roman,serif" font-size="14.00">id :integer</text>
<text text-anchor="start" x="451.5" y="-937.4" font-family="Times Roman,serif" font-size="14.00">title :string</text>
<text text-anchor="start" x="451.5" y="-919.4" font-family="Times Roman,serif" font-size="14.00">place :string</text>
<text text-anchor="start" x="451.5" y="-901.4" font-family="Times Roman,serif" font-size="14.00">description :text</text>
<text text-anchor="start" x="451.5" y="-883.4" font-family="Times Roman,serif" font-size="14.00">date :date</text>
<text text-anchor="start" x="451.5" y="-865.4" font-family="Times Roman,serif" font-size="14.00">created_at :datetime</text>
<text text-anchor="start" x="451.5" y="-847.4" font-family="Times Roman,serif" font-size="14.00">updated_at :datetime</text>
</g>
<!-- BuddyWalk&#45;&gt;User -->
<g id="edge12" class="edge"><title>BuddyWalk&#45;&gt;User</title>
<path fill="none" stroke="#66d8ca" d="M508.21,-827.614C506.524,-819.05 504.775,-810.161 502.987,-801.079"/>
<polygon fill="#66d8ca" stroke="#66d8ca" points="508.263,-827.885 505.779,-838.566 509.229,-832.791 510.194,-837.697 510.194,-837.697 510.194,-837.697 509.229,-832.791 514.61,-836.828 508.263,-827.885 508.263,-827.885"/>
<polygon fill="#66d8ca" stroke="#66d8ca" points="502.965,-800.966 505.449,-790.285 501.999,-796.06 501.033,-791.154 501.033,-791.154 501.033,-791.154 501.999,-796.06 496.618,-792.023 502.965,-800.966 502.965,-800.966"/>
</g>
<!-- BuddyWalk&#45;&gt;TimeSlot -->
<g id="edge10" class="edge"><title>BuddyWalk&#45;&gt;TimeSlot</title>
<path fill="none" stroke="#3dcd0e" d="M594.934,-830.721C601.899,-818.288 607.905,-805.217 612,-792 653.914,-656.716 643.227,-491.024 629.698,-387.457"/>
<ellipse fill="none" stroke="#3dcd0e" cx="592.737" cy="-834.504" rx="4.00002" ry="4.00002"/>
<polygon fill="#3dcd0e" stroke="#3dcd0e" points="629.668,-387.232 632.799,-376.723 629.003,-382.276 628.339,-377.321 628.339,-377.321 628.339,-377.321 629.003,-382.276 623.879,-377.919 629.668,-387.232 629.668,-387.232"/>
</g>
<!-- ClassSlot&#45;&gt;Day -->
<g id="edge18" class="edge"><title>ClassSlot&#45;&gt;Day</title>
<path fill="none" stroke="#5e27da" d="M254.211,-821.262C239.681,-774.076 222.504,-718.297 209.152,-674.938"/>
<ellipse fill="none" stroke="#5e27da" cx="255.415" cy="-825.174" rx="4.00001" ry="4.00001"/>
<polygon fill="#5e27da" stroke="#5e27da" points="209.135,-674.88 210.492,-663.998 207.663,-670.101 206.191,-665.323 206.191,-665.323 206.191,-665.323 207.663,-670.101 201.891,-666.647 209.135,-674.88 209.135,-674.88"/>
</g>
<!-- Appointment -->
<g id="node8" class="node"><title>Appointment</title>
<polyline fill="none" stroke="black" points="393.5,-1 534.5,-1 "/>
<path fill="none" stroke="black" d="M534.5,-1C540.5,-1 546.5,-7 546.5,-13"/>
<polyline fill="none" stroke="black" points="546.5,-13 546.5,-149 "/>
<path fill="none" stroke="black" d="M546.5,-149C546.5,-155 540.5,-161 534.5,-161"/>
<polyline fill="none" stroke="black" points="534.5,-161 393.5,-161 "/>
<path fill="none" stroke="black" d="M393.5,-161C387.5,-161 381.5,-155 381.5,-149"/>
<polyline fill="none" stroke="black" points="381.5,-149 381.5,-13 "/>
<path fill="none" stroke="black" d="M381.5,-13C381.5,-7 387.5,-1 393.5,-1"/>
<text text-anchor="middle" x="464" y="-144.4" font-family="Times Roman,serif" font-size="14.00">Appointment</text>
<polyline fill="none" stroke="black" points="381.5,-135 546.5,-135 "/>
<text text-anchor="start" x="389.5" y="-118.4" font-family="Times Roman,serif" font-size="14.00">id :integer</text>
<text text-anchor="start" x="389.5" y="-100.4" font-family="Times Roman,serif" font-size="14.00">user_id :integer</text>
<text text-anchor="start" x="389.5" y="-82.4" font-family="Times Roman,serif" font-size="14.00">time_slot_id :integer</text>
<text text-anchor="start" x="389.5" y="-64.4" font-family="Times Roman,serif" font-size="14.00">is_checkedin :boolean</text>
<text text-anchor="start" x="389.5" y="-46.4" font-family="Times Roman,serif" font-size="14.00">created_at :datetime</text>
<text text-anchor="start" x="389.5" y="-28.4" font-family="Times Roman,serif" font-size="14.00">updated_at :datetime</text>
<text text-anchor="start" x="389.5" y="-10.4" font-family="Times Roman,serif" font-size="14.00">class_slot_id :integer</text>
</g>
<!-- ClassSlot&#45;&gt;Appointment -->
<g id="edge14" class="edge"><title>ClassSlot&#45;&gt;Appointment</title>
<path fill="none" stroke="#8623bd" d="M280.085,-820.509C278.292,-717.846 282.051,-552.238 316,-414 337.22,-327.594 379.79,-235.627 413.849,-170.285"/>
<ellipse fill="none" stroke="#8623bd" cx="280.165" cy="-824.71" rx="4" ry="4"/>
<polygon fill="#8623bd" stroke="#8623bd" points="413.947,-170.099 422.58,-163.337 416.271,-165.672 418.596,-161.245 418.596,-161.245 418.596,-161.245 416.271,-165.672 414.611,-159.153 413.947,-170.099 413.947,-170.099"/>
</g>
<!-- ClassSlot&#45;&gt;User -->
<g id="edge16" class="edge"><title>ClassSlot&#45;&gt;User</title>
<path fill="none" stroke="#e4ca35" d="M339.946,-820.094C343.722,-813.486 347.592,-806.715 351.522,-799.836"/>
<polygon fill="#e4ca35" stroke="#e4ca35" points="339.82,-820.314 330.952,-826.764 337.34,-824.655 334.859,-828.997 334.859,-828.997 334.859,-828.997 337.34,-824.655 338.766,-831.229 339.82,-820.314 339.82,-820.314"/>
<polygon fill="#e4ca35" stroke="#e4ca35" points="351.57,-799.753 360.438,-793.303 354.051,-795.412 356.531,-791.07 356.531,-791.07 356.531,-791.07 354.051,-795.412 352.624,-788.838 351.57,-799.753 351.57,-799.753"/>
</g>
<!-- User&#45;&gt;Appointment -->
<g id="edge20" class="edge"><title>User&#45;&gt;Appointment</title>
<path fill="none" stroke="#69caa9" d="M464,-406.706C464,-325.871 464,-236.199 464,-171.444"/>
<ellipse fill="none" stroke="#69caa9" cx="464" cy="-410.915" rx="4" ry="4"/>
<polygon fill="#69caa9" stroke="#69caa9" points="464,-171.27 468.5,-161.27 464,-166.27 464,-161.27 464,-161.27 464,-161.27 464,-166.27 459.5,-161.27 464,-171.27 464,-171.27"/>
</g>
<!-- User&#45;&gt;TimeSlot -->
<g id="edge22" class="edge"><title>User&#45;&gt;TimeSlot</title>
<path fill="none" stroke="#cb9f56" d="M557.439,-405.461C560.431,-399.136 563.379,-392.904 566.262,-386.809"/>
<polygon fill="#cb9f56" stroke="#cb9f56" points="557.316,-405.721 548.972,-412.837 555.178,-410.241 553.04,-414.761 553.04,-414.761 553.04,-414.761 555.178,-410.241 557.108,-416.685 557.316,-405.721 557.316,-405.721"/>
<polygon fill="#cb9f56" stroke="#cb9f56" points="566.46,-386.39 574.804,-379.274 568.598,-381.87 570.736,-377.35 570.736,-377.35 570.736,-377.35 568.598,-381.87 566.668,-375.426 566.46,-386.39 566.46,-386.39"/>
</g>
<!-- TimeSlot&#45;&gt;Appointment -->
<g id="edge24" class="edge"><title>TimeSlot&#45;&gt;Appointment</title>
<path fill="none" stroke="#a9022a" d="M543.873,-191.964C538.546,-184.564 533.183,-177.113 527.892,-169.763"/>
<ellipse fill="none" stroke="#a9022a" cx="546.393" cy="-195.465" rx="4.00002" ry="4.00002"/>
<polygon fill="#a9022a" stroke="#a9022a" points="527.563,-169.306 525.374,-158.561 524.642,-165.248 521.721,-161.19 521.721,-161.19 521.721,-161.19 524.642,-165.248 518.069,-163.819 527.563,-169.306 527.563,-169.306"/>
</g>
</g>
</svg>
