<?xml version="1.0" encoding="UTF-8" standalone="no"?>
<!DOCTYPE svg PUBLIC "-//W3C//DTD SVG 1.1//EN"
 "http://www.w3.org/Graphics/SVG/1.1/DTD/svg11.dtd">
<!-- Generated by graphviz version 2.26.3 (20100126.1600)
 -->
<!-- Title: models_diagram Pages: 1 -->
<svg width="622pt" height="980pt"
 viewBox="0.00 0.00 622.00 980.00" xmlns="http://www.w3.org/2000/svg" xmlns:xlink="http://www.w3.org/1999/xlink">
<g id="graph1" class="graph" transform="scale(1 1) rotate(0) translate(4 976)">
<title>models_diagram</title>
<polygon fill="white" stroke="white" points="-4,5 -4,-976 619,-976 619,5 -4,5"/>
<!-- _diagram_info -->
<g id="node1" class="node"><title>_diagram_info</title>
<text text-anchor="start" x="8" y="-921.8" font-family="Times Roman,serif" font-size="13.00">Models diagram</text>
<text text-anchor="start" x="8" y="-904.8" font-family="Times Roman,serif" font-size="13.00">Date: Apr 15 2015 &#45; 16:13</text>
<text text-anchor="start" x="8" y="-887.8" font-family="Times Roman,serif" font-size="13.00">Migration version: 20150414205121</text>
<text text-anchor="start" x="8" y="-870.8" font-family="Times Roman,serif" font-size="13.00">Generated by RailRoady 1.3.0</text>
<text text-anchor="start" x="8" y="-853.8" font-family="Times Roman,serif" font-size="13.00">http://railroady.prestonlee.com</text>
</g>
<!-- Event -->
<g id="node2" class="node"><title>Event</title>
<polyline fill="none" stroke="black" points="279.5,-811 420.5,-811 "/>
<path fill="none" stroke="black" d="M420.5,-811C426.5,-811 432.5,-817 432.5,-823"/>
<polyline fill="none" stroke="black" points="432.5,-823 432.5,-959 "/>
<path fill="none" stroke="black" d="M432.5,-959C432.5,-965 426.5,-971 420.5,-971"/>
<polyline fill="none" stroke="black" points="420.5,-971 279.5,-971 "/>
<path fill="none" stroke="black" d="M279.5,-971C273.5,-971 267.5,-965 267.5,-959"/>
<polyline fill="none" stroke="black" points="267.5,-959 267.5,-823 "/>
<path fill="none" stroke="black" d="M267.5,-823C267.5,-817 273.5,-811 279.5,-811"/>
<text text-anchor="middle" x="350" y="-954.4" font-family="Times Roman,serif" font-size="14.00">Event</text>
<polyline fill="none" stroke="black" points="267.5,-945 432.5,-945 "/>
<text text-anchor="start" x="275.5" y="-928.4" font-family="Times Roman,serif" font-size="14.00">id :integer</text>
<text text-anchor="start" x="275.5" y="-910.4" font-family="Times Roman,serif" font-size="14.00">title :string</text>
<text text-anchor="start" x="275.5" y="-892.4" font-family="Times Roman,serif" font-size="14.00">place :string</text>
<text text-anchor="start" x="275.5" y="-874.4" font-family="Times Roman,serif" font-size="14.00">description :text</text>
<text text-anchor="start" x="275.5" y="-856.4" font-family="Times Roman,serif" font-size="14.00">date :date</text>
<text text-anchor="start" x="275.5" y="-838.4" font-family="Times Roman,serif" font-size="14.00">created_at :datetime</text>
<text text-anchor="start" x="275.5" y="-820.4" font-family="Times Roman,serif" font-size="14.00">updated_at :datetime</text>
</g>
<!-- User -->
<g id="node5" class="node"><title>User</title>
<polyline fill="none" stroke="black" points="138.5,-397 393.5,-397 "/>
<path fill="none" stroke="black" d="M393.5,-397C399.5,-397 405.5,-403 405.5,-409"/>
<polyline fill="none" stroke="black" points="405.5,-409 405.5,-761 "/>
<path fill="none" stroke="black" d="M405.5,-761C405.5,-767 399.5,-773 393.5,-773"/>
<polyline fill="none" stroke="black" points="393.5,-773 138.5,-773 "/>
<path fill="none" stroke="black" d="M138.5,-773C132.5,-773 126.5,-767 126.5,-761"/>
<polyline fill="none" stroke="black" points="126.5,-761 126.5,-409 "/>
<path fill="none" stroke="black" d="M126.5,-409C126.5,-403 132.5,-397 138.5,-397"/>
<text text-anchor="middle" x="266" y="-756.4" font-family="Times Roman,serif" font-size="14.00">User</text>
<polyline fill="none" stroke="black" points="126.5,-747 405.5,-747 "/>
<text text-anchor="start" x="134.5" y="-730.4" font-family="Times Roman,serif" font-size="14.00">id :integer</text>
<text text-anchor="start" x="134.5" y="-712.4" font-family="Times Roman,serif" font-size="14.00">name :string</text>
<text text-anchor="start" x="134.5" y="-694.4" font-family="Times Roman,serif" font-size="14.00">email :string</text>
<text text-anchor="start" x="134.5" y="-676.4" font-family="Times Roman,serif" font-size="14.00">password_digest :string</text>
<text text-anchor="start" x="134.5" y="-658.4" font-family="Times Roman,serif" font-size="14.00">address :string</text>
<text text-anchor="start" x="134.5" y="-640.4" font-family="Times Roman,serif" font-size="14.00">phone :string</text>
<text text-anchor="start" x="134.5" y="-622.4" font-family="Times Roman,serif" font-size="14.00">emergency_contact_name :string</text>
<text text-anchor="start" x="134.5" y="-604.4" font-family="Times Roman,serif" font-size="14.00">emergency_contact_phone :string</text>
<text text-anchor="start" x="134.5" y="-586.4" font-family="Times Roman,serif" font-size="14.00">remember_digest :string</text>
<text text-anchor="start" x="134.5" y="-568.4" font-family="Times Roman,serif" font-size="14.00">activation_digest :string</text>
<text text-anchor="start" x="134.5" y="-550.4" font-family="Times Roman,serif" font-size="14.00">reset_digest :string</text>
<text text-anchor="start" x="134.5" y="-532.4" font-family="Times Roman,serif" font-size="14.00">activated_at :datetime</text>
<text text-anchor="start" x="134.5" y="-514.4" font-family="Times Roman,serif" font-size="14.00">reset_sent_at :datetime</text>
<text text-anchor="start" x="134.5" y="-496.4" font-family="Times Roman,serif" font-size="14.00">activated :boolean</text>
<text text-anchor="start" x="134.5" y="-478.4" font-family="Times Roman,serif" font-size="14.00">admin :boolean</text>
<text text-anchor="start" x="134.5" y="-460.4" font-family="Times Roman,serif" font-size="14.00">event_register_email_notify :datetime</text>
<text text-anchor="start" x="134.5" y="-442.4" font-family="Times Roman,serif" font-size="14.00">created_at :datetime</text>
<text text-anchor="start" x="134.5" y="-424.4" font-family="Times Roman,serif" font-size="14.00">updated_at :datetime</text>
<text text-anchor="start" x="134.5" y="-406.4" font-family="Times Roman,serif" font-size="14.00">staff :boolean</text>
</g>
<!-- Event&#45;&gt;User -->
<g id="edge4" class="edge"><title>Event&#45;&gt;User</title>
<path fill="none" stroke="#b3902a" d="M325.214,-800.708C323.611,-794.868 321.967,-788.88 320.295,-782.789"/>
<polygon fill="#b3902a" stroke="#b3902a" points="325.283,-800.959 323.591,-811.793 326.606,-805.78 327.93,-810.602 327.93,-810.602 327.93,-810.602 326.606,-805.78 332.269,-809.411 325.283,-800.959 325.283,-800.959"/>
<polygon fill="#b3902a" stroke="#b3902a" points="320.293,-782.78 321.985,-771.946 318.969,-777.959 317.645,-773.137 317.645,-773.137 317.645,-773.137 318.969,-777.959 313.306,-774.328 320.293,-782.78 320.293,-782.78"/>
</g>
<!-- TimeSlot -->
<g id="node6" class="node"><title>TimeSlot</title>
<polyline fill="none" stroke="black" points="306,-181 490,-181 "/>
<path fill="none" stroke="black" d="M490,-181C496,-181 502,-187 502,-193"/>
<polyline fill="none" stroke="black" points="502,-193 502,-347 "/>
<path fill="none" stroke="black" d="M502,-347C502,-353 496,-359 490,-359"/>
<polyline fill="none" stroke="black" points="490,-359 306,-359 "/>
<path fill="none" stroke="black" d="M306,-359C300,-359 294,-353 294,-347"/>
<polyline fill="none" stroke="black" points="294,-347 294,-193 "/>
<path fill="none" stroke="black" d="M294,-193C294,-187 300,-181 306,-181"/>
<text text-anchor="middle" x="398" y="-342.4" font-family="Times Roman,serif" font-size="14.00">TimeSlot</text>
<polyline fill="none" stroke="black" points="294,-333 502,-333 "/>
<text text-anchor="start" x="302" y="-316.4" font-family="Times Roman,serif" font-size="14.00">id :integer</text>
<text text-anchor="start" x="302" y="-298.4" font-family="Times Roman,serif" font-size="14.00">start_time :datetime</text>
<text text-anchor="start" x="302" y="-280.4" font-family="Times Roman,serif" font-size="14.00">end_time :datetime</text>
<text text-anchor="start" x="302" y="-262.4" font-family="Times Roman,serif" font-size="14.00">total_capacity :integer</text>
<text text-anchor="start" x="302" y="-244.4" font-family="Times Roman,serif" font-size="14.00">remaining_capacity :integer</text>
<text text-anchor="start" x="302" y="-226.4" font-family="Times Roman,serif" font-size="14.00">event_id :integer</text>
<text text-anchor="start" x="302" y="-208.4" font-family="Times Roman,serif" font-size="14.00">created_at :datetime</text>
<text text-anchor="start" x="302" y="-190.4" font-family="Times Roman,serif" font-size="14.00">updated_at :datetime</text>
</g>
<!-- Event&#45;&gt;TimeSlot -->
<g id="edge2" class="edge"><title>Event&#45;&gt;TimeSlot</title>
<path fill="none" stroke="#cb2f91" d="M403.836,-803.373C407.958,-793.726 411.487,-783.831 414,-774 449.042,-636.921 433.461,-472.046 417.21,-369.107"/>
<ellipse fill="none" stroke="#cb2f91" cx="402.201" cy="-807.044" rx="4.00002" ry="4.00002"/>
<polygon fill="#cb2f91" stroke="#cb2f91" points="417.177,-368.905 420.029,-358.317 416.382,-363.969 415.586,-359.033 415.586,-359.033 415.586,-359.033 416.382,-363.969 411.143,-359.749 417.177,-368.905 417.177,-368.905"/>
</g>
<!-- Article -->
<g id="node3" class="node"><title>Article</title>
<polyline fill="none" stroke="black" points="461.5,-838 602.5,-838 "/>
<path fill="none" stroke="black" d="M602.5,-838C608.5,-838 614.5,-844 614.5,-850"/>
<polyline fill="none" stroke="black" points="614.5,-850 614.5,-932 "/>
<path fill="none" stroke="black" d="M614.5,-932C614.5,-938 608.5,-944 602.5,-944"/>
<polyline fill="none" stroke="black" points="602.5,-944 461.5,-944 "/>
<path fill="none" stroke="black" d="M461.5,-944C455.5,-944 449.5,-938 449.5,-932"/>
<polyline fill="none" stroke="black" points="449.5,-932 449.5,-850 "/>
<path fill="none" stroke="black" d="M449.5,-850C449.5,-844 455.5,-838 461.5,-838"/>
<text text-anchor="middle" x="532" y="-927.4" font-family="Times Roman,serif" font-size="14.00">Article</text>
<polyline fill="none" stroke="black" points="449.5,-918 614.5,-918 "/>
<text text-anchor="start" x="457.5" y="-901.4" font-family="Times Roman,serif" font-size="14.00">id :integer</text>
<text text-anchor="start" x="457.5" y="-883.4" font-family="Times Roman,serif" font-size="14.00">text :text</text>
<text text-anchor="start" x="457.5" y="-865.4" font-family="Times Roman,serif" font-size="14.00">created_at :datetime</text>
<text text-anchor="start" x="457.5" y="-847.4" font-family="Times Roman,serif" font-size="14.00">updated_at :datetime</text>
</g>
<!-- Appointment -->
<g id="node4" class="node"><title>Appointment</title>
<polyline fill="none" stroke="black" points="261.5,-1 402.5,-1 "/>
<path fill="none" stroke="black" d="M402.5,-1C408.5,-1 414.5,-7 414.5,-13"/>
<polyline fill="none" stroke="black" points="414.5,-13 414.5,-131 "/>
<path fill="none" stroke="black" d="M414.5,-131C414.5,-137 408.5,-143 402.5,-143"/>
<polyline fill="none" stroke="black" points="402.5,-143 261.5,-143 "/>
<path fill="none" stroke="black" d="M261.5,-143C255.5,-143 249.5,-137 249.5,-131"/>
<polyline fill="none" stroke="black" points="249.5,-131 249.5,-13 "/>
<path fill="none" stroke="black" d="M249.5,-13C249.5,-7 255.5,-1 261.5,-1"/>
<text text-anchor="middle" x="332" y="-126.4" font-family="Times Roman,serif" font-size="14.00">Appointment</text>
<polyline fill="none" stroke="black" points="249.5,-117 414.5,-117 "/>
<text text-anchor="start" x="257.5" y="-100.4" font-family="Times Roman,serif" font-size="14.00">id :integer</text>
<text text-anchor="start" x="257.5" y="-82.4" font-family="Times Roman,serif" font-size="14.00">user_id :integer</text>
<text text-anchor="start" x="257.5" y="-64.4" font-family="Times Roman,serif" font-size="14.00">time_slot_id :integer</text>
<text text-anchor="start" x="257.5" y="-46.4" font-family="Times Roman,serif" font-size="14.00">is_checkedin :boolean</text>
<text text-anchor="start" x="257.5" y="-28.4" font-family="Times Roman,serif" font-size="14.00">created_at :datetime</text>
<text text-anchor="start" x="257.5" y="-10.4" font-family="Times Roman,serif" font-size="14.00">updated_at :datetime</text>
</g>
<!-- User&#45;&gt;Appointment -->
<g id="edge6" class="edge"><title>User&#45;&gt;Appointment</title>
<path fill="none" stroke="#92b1cc" d="M260.93,-388.682C262.959,-321.756 269.418,-246.95 285,-180 287.116,-170.909 289.971,-161.627 293.235,-152.51"/>
<ellipse fill="none" stroke="#92b1cc" cx="260.816" cy="-392.805" rx="4" ry="4"/>
<polygon fill="#92b1cc" stroke="#92b1cc" points="293.259,-152.448 300.984,-144.665 295.015,-147.766 296.771,-143.085 296.771,-143.085 296.771,-143.085 295.015,-147.766 292.558,-141.504 293.259,-152.448 293.259,-152.448"/>
</g>
<!-- User&#45;&gt;TimeSlot -->
<g id="edge8" class="edge"><title>User&#45;&gt;TimeSlot</title>
<path fill="none" stroke="#7f3534" d="M348.778,-387.461C351.429,-381.136 354.04,-374.904 356.594,-368.809"/>
<polygon fill="#7f3534" stroke="#7f3534" points="348.746,-387.538 340.731,-395.022 346.814,-392.149 344.881,-396.761 344.881,-396.761 344.881,-396.761 346.814,-392.149 349.031,-398.5 348.746,-387.538 348.746,-387.538"/>
<polygon fill="#7f3534" stroke="#7f3534" points="356.693,-368.573 364.709,-361.089 358.626,-363.961 360.558,-359.35 360.558,-359.35 360.558,-359.35 358.626,-363.961 356.408,-357.611 356.693,-368.573 356.693,-368.573"/>
</g>
<!-- TimeSlot&#45;&gt;Appointment -->
<g id="edge10" class="edge"><title>TimeSlot&#45;&gt;Appointment</title>
<path fill="none" stroke="#5f32d0" d="M365.711,-173.134C363.448,-166.345 361.181,-159.544 358.952,-152.857"/>
<ellipse fill="none" stroke="#5f32d0" cx="367.017" cy="-177.052" rx="4.00001" ry="4.00001"/>
<polygon fill="#5f32d0" stroke="#5f32d0" points="358.881,-152.643 359.988,-141.733 357.3,-147.899 355.719,-143.156 355.719,-143.156 355.719,-143.156 357.3,-147.899 351.45,-144.579 358.881,-152.643 358.881,-152.643"/>
</g>
</g>
</svg>
