<?xml version="1.0" encoding="UTF-8" standalone="no"?>
<!DOCTYPE svg PUBLIC "-//W3C//DTD SVG 1.1//EN"
 "http://www.w3.org/Graphics/SVG/1.1/DTD/svg11.dtd">
<!-- Generated by graphviz version 2.26.3 (20100126.1600)
 -->
<!-- Title: models_diagram Pages: 1 -->
<svg width="728pt" height="324pt"
 viewBox="0.00 0.00 728.00 324.00" xmlns="http://www.w3.org/2000/svg" xmlns:xlink="http://www.w3.org/1999/xlink">
<g id="graph1" class="graph" transform="scale(1 1) rotate(0) translate(4 320)">
<title>models_diagram</title>
<polygon fill="white" stroke="white" points="-4,5 -4,-320 725,-320 725,5 -4,5"/>
<!-- _diagram_info -->
<g id="node1" class="node"><title>_diagram_info</title>
<text text-anchor="start" x="8" y="-299.8" font-family="Times Roman,serif" font-size="13.00">Models diagram</text>
<text text-anchor="start" x="8" y="-282.8" font-family="Times Roman,serif" font-size="13.00">Date: Apr 28 2015 &#45; 19:38</text>
<text text-anchor="start" x="8" y="-265.8" font-family="Times Roman,serif" font-size="13.00">Migration version: 20150428152403</text>
<text text-anchor="start" x="8" y="-248.8" font-family="Times Roman,serif" font-size="13.00">Generated by RailRoady 1.3.0</text>
<text text-anchor="start" x="8" y="-231.8" font-family="Times Roman,serif" font-size="13.00">http://railroady.prestonlee.com</text>
</g>
<!-- Event -->
<g id="node2" class="node"><title>Event</title>
<ellipse fill="none" stroke="black" cx="308" cy="-269" rx="39.8075" ry="18.3848"/>
<text text-anchor="middle" x="308" y="-265.4" font-family="Times Roman,serif" font-size="14.00">Event</text>
</g>
<!-- User -->
<g id="node7" class="node"><title>User</title>
<ellipse fill="none" stroke="black" cx="400" cy="-167" rx="33.9411" ry="18.3848"/>
<text text-anchor="middle" x="400" y="-163.4" font-family="Times Roman,serif" font-size="14.00">User</text>
</g>
<!-- Event&#45;&gt;User -->
<g id="edge4" class="edge"><title>Event&#45;&gt;User</title>
<path fill="none" stroke="#915848" d="M330.464,-244.094C344.878,-228.114 363.511,-207.455 377.86,-191.546"/>
<polygon fill="#915848" stroke="#915848" points="330.304,-244.271 320.265,-248.683 326.955,-247.984 323.607,-251.697 323.607,-251.697 323.607,-251.697 326.955,-247.984 326.948,-254.711 330.304,-244.271 330.304,-244.271"/>
<polygon fill="#915848" stroke="#915848" points="378.231,-191.135 388.27,-186.723 381.58,-187.422 384.929,-183.709 384.929,-183.709 384.929,-183.709 381.58,-187.422 381.587,-180.695 378.231,-191.135 378.231,-191.135"/>
</g>
<!-- TimeSlot -->
<g id="node8" class="node"><title>TimeSlot</title>
<ellipse fill="none" stroke="black" cx="462" cy="-93" rx="53.9477" ry="18.3848"/>
<text text-anchor="middle" x="462" y="-89.4" font-family="Times Roman,serif" font-size="14.00">TimeSlot</text>
</g>
<!-- Event&#45;&gt;TimeSlot -->
<g id="edge2" class="edge"><title>Event&#45;&gt;TimeSlot</title>
<path fill="none" stroke="#e683b6" d="M313.154,-242.355C319.49,-215.726 332.548,-174.967 357,-148 372.205,-131.231 393.73,-118.718 413.336,-109.9"/>
<ellipse fill="none" stroke="#e683b6" cx="312.206" cy="-246.567" rx="4.00001" ry="4.00001"/>
<polygon fill="#e683b6" stroke="#e683b6" points="413.576,-109.797 424.54,-110.003 418.173,-107.831 422.77,-105.865 422.77,-105.865 422.77,-105.865 418.173,-107.831 421.001,-101.728 413.576,-109.797 413.576,-109.797"/>
</g>
<!-- DsClass -->
<g id="node3" class="node"><title>DsClass</title>
<ellipse fill="none" stroke="black" cx="415" cy="-269" rx="48.9975" ry="18.3848"/>
<text text-anchor="middle" x="415" y="-265.4" font-family="Times Roman,serif" font-size="14.00">DsClass</text>
</g>
<!-- DsClass&#45;&gt;User -->
<g id="edge8" class="edge"><title>DsClass&#45;&gt;User</title>
<path fill="none" stroke="#95b91c" d="M410.743,-240.054C408.694,-226.12 406.245,-209.464 404.203,-195.578"/>
<polygon fill="#95b91c" stroke="#95b91c" points="410.794,-240.398 407.797,-250.946 411.521,-245.345 412.249,-250.292 412.249,-250.292 412.249,-250.292 411.521,-245.345 416.701,-249.637 410.794,-240.398 410.794,-240.398"/>
<polygon fill="#95b91c" stroke="#95b91c" points="404.189,-195.483 407.186,-184.935 403.461,-190.537 402.734,-185.59 402.734,-185.59 402.734,-185.59 403.461,-190.537 398.282,-186.245 404.189,-195.483 404.189,-195.483"/>
</g>
<!-- DsClass&#45;&gt;TimeSlot -->
<g id="edge6" class="edge"><title>DsClass&#45;&gt;TimeSlot</title>
<path fill="none" stroke="#03053f" d="M424.892,-242.452C430.68,-226.287 437.84,-205.13 443,-186 448.766,-164.62 453.714,-140.061 457.114,-121.551"/>
<ellipse fill="none" stroke="#03053f" cx="423.37" cy="-246.653" rx="4.00001" ry="4.00001"/>
<polygon fill="#03053f" stroke="#03053f" points="457.118,-121.529 463.314,-112.481 458.001,-116.607 458.885,-111.686 458.885,-111.686 458.885,-111.686 458.001,-116.607 454.456,-110.891 457.118,-121.529 457.118,-121.529"/>
</g>
<!-- Article -->
<g id="node4" class="node"><title>Article</title>
<ellipse fill="none" stroke="black" cx="677" cy="-269" rx="43.1335" ry="18.3848"/>
<text text-anchor="middle" x="677" y="-265.4" font-family="Times Roman,serif" font-size="14.00">Article</text>
</g>
<!-- BuddyWalk -->
<g id="node5" class="node"><title>BuddyWalk</title>
<ellipse fill="none" stroke="black" cx="549" cy="-269" rx="67.1751" ry="18.3848"/>
<text text-anchor="middle" x="549" y="-265.4" font-family="Times Roman,serif" font-size="14.00">BuddyWalk</text>
</g>
<!-- BuddyWalk&#45;&gt;User -->
<g id="edge12" class="edge"><title>BuddyWalk&#45;&gt;User</title>
<path fill="none" stroke="#7f490c" d="M515.209,-245.868C489.497,-228.267 454.45,-204.275 429.784,-187.389"/>
<polygon fill="#7f490c" stroke="#7f490c" points="515.472,-246.048 521.182,-255.41 519.598,-248.873 523.724,-251.697 523.724,-251.697 523.724,-251.697 519.598,-248.873 526.266,-247.984 515.472,-246.048 515.472,-246.048"/>
<polygon fill="#7f490c" stroke="#7f490c" points="429.776,-187.384 424.066,-178.021 425.65,-184.559 421.524,-181.735 421.524,-181.735 421.524,-181.735 425.65,-184.559 418.982,-185.448 429.776,-187.384 429.776,-187.384"/>
</g>
<!-- BuddyWalk&#45;&gt;TimeSlot -->
<g id="edge10" class="edge"><title>BuddyWalk&#45;&gt;TimeSlot</title>
<path fill="none" stroke="#3b2215" d="M536.281,-243.269C520.079,-210.494 492.197,-154.088 475.59,-120.492"/>
<ellipse fill="none" stroke="#3b2215" cx="538.081" cy="-246.912" rx="4.00002" ry="4.00002"/>
<polygon fill="#3b2215" stroke="#3b2215" points="475.455,-120.219 475.058,-109.26 473.239,-115.737 471.024,-111.255 471.024,-111.255 471.024,-111.255 473.239,-115.737 466.989,-113.249 475.455,-120.219 475.455,-120.219"/>
</g>
<!-- Appointment -->
<g id="node6" class="node"><title>Appointment</title>
<ellipse fill="none" stroke="black" cx="421" cy="-19" rx="74.9533" ry="18.3848"/>
<text text-anchor="middle" x="421" y="-15.4" font-family="Times Roman,serif" font-size="14.00">Appointment</text>
</g>
<!-- User&#45;&gt;Appointment -->
<g id="edge14" class="edge"><title>User&#45;&gt;Appointment</title>
<path fill="none" stroke="#0fbacd" d="M396.897,-140.189C395.413,-121.471 394.763,-95.9994 399,-74 400.747,-64.927 403.978,-55.4482 407.435,-46.9659"/>
<ellipse fill="none" stroke="#0fbacd" cx="397.265" cy="-144.293" rx="4" ry="4"/>
<polygon fill="#0fbacd" stroke="#0fbacd" points="407.541,-46.723 415.651,-39.3423 409.532,-42.1366 411.523,-37.5502 411.523,-37.5502 411.523,-37.5502 409.532,-42.1366 407.395,-35.7581 407.541,-46.723 407.541,-46.723"/>
</g>
<!-- User&#45;&gt;TimeSlot -->
<g id="edge16" class="edge"><title>User&#45;&gt;TimeSlot</title>
<path fill="none" stroke="#771c99" d="M420.945,-142.002C427.234,-134.494 434.144,-126.248 440.471,-118.696"/>
<polygon fill="#771c99" stroke="#771c99" points="420.802,-142.172 410.931,-146.947 417.591,-146.004 414.38,-149.837 414.38,-149.837 414.38,-149.837 417.591,-146.004 417.829,-152.727 420.802,-142.172 420.802,-142.172"/>
<polygon fill="#771c99" stroke="#771c99" points="440.629,-118.508 450.5,-113.733 443.84,-114.675 447.051,-110.843 447.051,-110.843 447.051,-110.843 443.84,-114.675 443.601,-107.953 440.629,-118.508 440.629,-118.508"/>
</g>
<!-- TimeSlot&#45;&gt;Appointment -->
<g id="edge18" class="edge"><title>TimeSlot&#45;&gt;Appointment</title>
<path fill="none" stroke="#8d026b" d="M447.831,-67.427C444.06,-60.6209 439.972,-53.2428 436.151,-46.3459"/>
<ellipse fill="none" stroke="#8d026b" cx="449.927" cy="-71.209" rx="4.00002" ry="4.00002"/>
<polygon fill="#8d026b" stroke="#8d026b" points="436.007,-46.0853 435.097,-35.1573 433.584,-41.7118 431.16,-37.3382 431.16,-37.3382 431.16,-37.3382 433.584,-41.7118 427.224,-39.5191 436.007,-46.0853 436.007,-46.0853"/>
</g>
</g>
</svg>
