<?xml version="1.0" encoding="UTF-8" standalone="no"?>
<!DOCTYPE svg PUBLIC "-//W3C//DTD SVG 1.1//EN"
 "http://www.w3.org/Graphics/SVG/1.1/DTD/svg11.dtd">
<!-- Generated by graphviz version 2.26.3 (20100126.1600)
 -->
<!-- Title: models_diagram Pages: 1 -->
<svg width="627pt" height="398pt"
 viewBox="0.00 0.00 627.00 398.00" xmlns="http://www.w3.org/2000/svg" xmlns:xlink="http://www.w3.org/1999/xlink">
<g id="graph1" class="graph" transform="scale(1 1) rotate(0) translate(4 394)">
<title>models_diagram</title>
<polygon fill="white" stroke="white" points="-4,5 -4,-394 624,-394 624,5 -4,5"/>
<!-- _diagram_info -->
<g id="node1" class="node"><title>_diagram_info</title>
<text text-anchor="start" x="8" y="-373.8" font-family="Times Roman,serif" font-size="13.00">Models diagram</text>
<text text-anchor="start" x="8" y="-356.8" font-family="Times Roman,serif" font-size="13.00">Date: May 02 2015 &#45; 18:06</text>
<text text-anchor="start" x="8" y="-339.8" font-family="Times Roman,serif" font-size="13.00">Migration version: 20150502213339</text>
<text text-anchor="start" x="8" y="-322.8" font-family="Times Roman,serif" font-size="13.00">Generated by RailRoady 1.3.0</text>
<text text-anchor="start" x="8" y="-305.8" font-family="Times Roman,serif" font-size="13.00">http://railroady.prestonlee.com</text>
</g>
<!-- Event -->
<g id="node2" class="node"><title>Event</title>
<ellipse fill="none" stroke="black" cx="579" cy="-241" rx="39.8075" ry="18.3848"/>
<text text-anchor="middle" x="579" y="-237.4" font-family="Times Roman,serif" font-size="14.00">Event</text>
</g>
<!-- User -->
<g id="node9" class="node"><title>User</title>
<ellipse fill="none" stroke="black" cx="394" cy="-167" rx="33.9411" ry="18.3848"/>
<text text-anchor="middle" x="394" y="-163.4" font-family="Times Roman,serif" font-size="14.00">User</text>
</g>
<!-- Event&#45;&gt;User -->
<g id="edge4" class="edge"><title>Event&#45;&gt;User</title>
<path fill="none" stroke="#9d98c6" d="M538.885,-224.954C506.887,-212.155 462.413,-194.365 431.205,-181.882"/>
<polygon fill="#9d98c6" stroke="#9d98c6" points="539.166,-225.066 546.78,-232.959 543.809,-226.923 548.451,-228.78 548.451,-228.78 548.451,-228.78 543.809,-226.923 550.122,-224.602 539.166,-225.066 539.166,-225.066"/>
<polygon fill="#9d98c6" stroke="#9d98c6" points="430.856,-181.743 423.243,-173.85 426.214,-179.886 421.571,-178.029 421.571,-178.029 421.571,-178.029 426.214,-179.886 419.9,-182.207 430.856,-181.743 430.856,-181.743"/>
</g>
<!-- TimeSlot -->
<g id="node10" class="node"><title>TimeSlot</title>
<ellipse fill="none" stroke="black" cx="456" cy="-93" rx="53.9477" ry="18.3848"/>
<text text-anchor="middle" x="456" y="-89.4" font-family="Times Roman,serif" font-size="14.00">TimeSlot</text>
</g>
<!-- Event&#45;&gt;TimeSlot -->
<g id="edge2" class="edge"><title>Event&#45;&gt;TimeSlot</title>
<path fill="none" stroke="#1e9c32" d="M559.121,-217.081C536.699,-190.101 500.369,-146.388 477.357,-118.698"/>
<ellipse fill="none" stroke="#1e9c32" cx="561.851" cy="-220.365" rx="4.00002" ry="4.00002"/>
<polygon fill="#1e9c32" stroke="#1e9c32" points="477.349,-118.688 474.418,-108.121 474.153,-114.843 470.957,-110.997 470.957,-110.997 470.957,-110.997 474.153,-114.843 467.496,-113.874 477.349,-118.688 477.349,-118.688"/>
</g>
<!-- DsClass -->
<g id="node3" class="node"><title>DsClass</title>
<ellipse fill="none" stroke="black" cx="317" cy="-343" rx="48.9975" ry="18.3848"/>
<text text-anchor="middle" x="317" y="-339.4" font-family="Times Roman,serif" font-size="14.00">DsClass</text>
</g>
<!-- ClassSlot -->
<g id="node7" class="node"><title>ClassSlot</title>
<ellipse fill="none" stroke="black" cx="275" cy="-241" rx="55.8614" ry="18.3848"/>
<text text-anchor="middle" x="275" y="-237.4" font-family="Times Roman,serif" font-size="14.00">ClassSlot</text>
</g>
<!-- DsClass&#45;&gt;ClassSlot -->
<g id="edge6" class="edge"><title>DsClass&#45;&gt;ClassSlot</title>
<path fill="none" stroke="#7b09a3" d="M306.088,-316.499C300.112,-301.986 292.706,-284 286.622,-269.224"/>
<ellipse fill="none" stroke="#7b09a3" cx="307.774" cy="-320.593" rx="4.00001" ry="4.00001"/>
<polygon fill="#7b09a3" stroke="#7b09a3" points="286.462,-268.837 286.816,-257.876 284.558,-264.213 282.655,-259.59 282.655,-259.59 282.655,-259.59 284.558,-264.213 278.494,-261.303 286.462,-268.837 286.462,-268.837"/>
</g>
<!-- DsClass&#45;&gt;User -->
<g id="edge8" class="edge"><title>DsClass&#45;&gt;User</title>
<path fill="none" stroke="#bf4ac6" d="M329.262,-314.972C343.694,-281.985 367.507,-227.554 381.878,-194.708"/>
<polygon fill="#bf4ac6" stroke="#bf4ac6" points="329.103,-315.336 320.972,-322.694 327.099,-319.917 325.095,-324.498 325.095,-324.498 325.095,-324.498 327.099,-319.917 329.218,-326.301 329.103,-315.336 329.103,-315.336"/>
<polygon fill="#bf4ac6" stroke="#bf4ac6" points="382.005,-194.416 390.136,-187.058 384.01,-189.835 386.014,-185.255 386.014,-185.255 386.014,-185.255 384.01,-189.835 381.891,-183.451 382.005,-194.416 382.005,-194.416"/>
</g>
<!-- Day -->
<g id="node4" class="node"><title>Day</title>
<ellipse fill="none" stroke="black" cx="273" cy="-167" rx="31.1127" ry="18.3848"/>
<text text-anchor="middle" x="273" y="-163.4" font-family="Times Roman,serif" font-size="14.00">Day</text>
</g>
<!-- Article -->
<g id="node5" class="node"><title>Article</title>
<ellipse fill="none" stroke="black" cx="427" cy="-343" rx="43.1335" ry="18.3848"/>
<text text-anchor="middle" x="427" y="-339.4" font-family="Times Roman,serif" font-size="14.00">Article</text>
</g>
<!-- BuddyWalk -->
<g id="node6" class="node"><title>BuddyWalk</title>
<ellipse fill="none" stroke="black" cx="454" cy="-241" rx="67.1751" ry="18.3848"/>
<text text-anchor="middle" x="454" y="-237.4" font-family="Times Roman,serif" font-size="14.00">BuddyWalk</text>
</g>
<!-- BuddyWalk&#45;&gt;User -->
<g id="edge12" class="edge"><title>BuddyWalk&#45;&gt;User</title>
<path fill="none" stroke="#c45c29" d="M432.788,-214.839C426.833,-207.494 420.371,-199.524 414.46,-192.234"/>
<polygon fill="#c45c29" stroke="#c45c29" points="432.87,-214.94 435.673,-225.542 436.02,-218.824 439.169,-222.708 439.169,-222.708 439.169,-222.708 436.02,-218.824 442.664,-219.874 432.87,-214.94 432.87,-214.94"/>
<polygon fill="#c45c29" stroke="#c45c29" points="414.136,-191.835 411.334,-181.233 410.987,-187.951 407.838,-184.067 407.838,-184.067 407.838,-184.067 410.987,-187.951 404.343,-186.901 414.136,-191.835 414.136,-191.835"/>
</g>
<!-- BuddyWalk&#45;&gt;TimeSlot -->
<g id="edge10" class="edge"><title>BuddyWalk&#45;&gt;TimeSlot</title>
<path fill="none" stroke="#7a48a1" d="M454.365,-214.006C454.717,-187.917 455.25,-148.527 455.61,-121.834"/>
<ellipse fill="none" stroke="#7a48a1" cx="454.307" cy="-218.256" rx="4" ry="4"/>
<polygon fill="#7a48a1" stroke="#7a48a1" points="455.614,-121.591 460.248,-111.653 455.681,-116.592 455.749,-111.592 455.749,-111.592 455.749,-111.592 455.681,-116.592 451.249,-111.531 455.614,-121.591 455.614,-121.591"/>
</g>
<!-- ClassSlot&#45;&gt;Day -->
<g id="edge18" class="edge"><title>ClassSlot&#45;&gt;Day</title>
<path fill="none" stroke="#c6745c" d="M274.279,-214.309C274.118,-208.377 273.948,-202.061 273.785,-196.04"/>
<ellipse fill="none" stroke="#c6745c" cx="274.387" cy="-218.328" rx="4" ry="4"/>
<polygon fill="#c6745c" stroke="#c6745c" points="273.775,-195.664 278.003,-185.546 273.64,-190.666 273.505,-185.667 273.505,-185.667 273.505,-185.667 273.64,-190.666 269.006,-185.789 273.775,-195.664 273.775,-195.664"/>
</g>
<!-- Appointment -->
<g id="node8" class="node"><title>Appointment</title>
<ellipse fill="none" stroke="black" cx="374" cy="-19" rx="74.9533" ry="18.3848"/>
<text text-anchor="middle" x="374" y="-15.4" font-family="Times Roman,serif" font-size="14.00">Appointment</text>
</g>
<!-- ClassSlot&#45;&gt;Appointment -->
<g id="edge14" class="edge"><title>ClassSlot&#45;&gt;Appointment</title>
<path fill="none" stroke="#b1efd9" d="M294.115,-216.216C300.646,-207.042 307.646,-196.35 313,-186 337.035,-139.539 355.98,-81.4075 366.041,-47.4171"/>
<ellipse fill="none" stroke="#b1efd9" cx="291.601" cy="-219.67" rx="4.00002" ry="4.00002"/>
<polygon fill="#b1efd9" stroke="#b1efd9" points="366.08,-47.2847 373.195,-38.9406 367.477,-42.4839 368.875,-37.6831 368.875,-37.6831 368.875,-37.6831 367.477,-42.4839 364.554,-36.4255 366.08,-47.2847 366.08,-47.2847"/>
</g>
<!-- ClassSlot&#45;&gt;User -->
<g id="edge16" class="edge"><title>ClassSlot&#45;&gt;User</title>
<path fill="none" stroke="#9cb9d0" d="M310.143,-219.146C326.814,-208.78 346.568,-196.496 362.714,-186.455"/>
<polygon fill="#9cb9d0" stroke="#9cb9d0" points="309.902,-219.296 299.034,-220.756 305.656,-221.937 301.41,-224.577 301.41,-224.577 301.41,-224.577 305.656,-221.937 303.786,-228.398 309.902,-219.296 309.902,-219.296"/>
<polygon fill="#9cb9d0" stroke="#9cb9d0" points="362.779,-186.415 373.647,-184.955 367.025,-183.774 371.271,-181.134 371.271,-181.134 371.271,-181.134 367.025,-183.774 368.895,-177.313 362.779,-186.415 362.779,-186.415"/>
</g>
<!-- User&#45;&gt;Appointment -->
<g id="edge20" class="edge"><title>User&#45;&gt;Appointment</title>
<path fill="none" stroke="#24e433" d="M390.352,-140.006C386.827,-113.917 381.504,-74.5269 377.896,-47.8341"/>
<ellipse fill="none" stroke="#24e433" cx="390.931" cy="-144.292" rx="4.00001" ry="4.00001"/>
<polygon fill="#24e433" stroke="#24e433" points="377.852,-47.502 380.972,-36.9894 377.182,-42.5471 376.512,-37.5921 376.512,-37.5921 376.512,-37.5921 377.182,-42.5471 372.053,-38.1948 377.852,-47.502 377.852,-47.502"/>
</g>
<!-- User&#45;&gt;TimeSlot -->
<g id="edge22" class="edge"><title>User&#45;&gt;TimeSlot</title>
<path fill="none" stroke="#9fe561" d="M414.945,-142.002C421.234,-134.494 428.144,-126.248 434.471,-118.696"/>
<polygon fill="#9fe561" stroke="#9fe561" points="414.802,-142.172 404.931,-146.947 411.591,-146.004 408.38,-149.837 408.38,-149.837 408.38,-149.837 411.591,-146.004 411.829,-152.727 414.802,-142.172 414.802,-142.172"/>
<polygon fill="#9fe561" stroke="#9fe561" points="434.629,-118.508 444.5,-113.733 437.84,-114.675 441.051,-110.843 441.051,-110.843 441.051,-110.843 437.84,-114.675 437.601,-107.953 434.629,-118.508 434.629,-118.508"/>
</g>
<!-- TimeSlot&#45;&gt;Appointment -->
<g id="edge24" class="edge"><title>TimeSlot&#45;&gt;Appointment</title>
<path fill="none" stroke="#45e593" d="M430.594,-70.0725C421.354,-61.7345 410.874,-52.2762 401.464,-43.7847"/>
<ellipse fill="none" stroke="#45e593" cx="433.598" cy="-72.7832" rx="4.00002" ry="4.00002"/>
<polygon fill="#45e593" stroke="#45e593" points="401.287,-43.6248 396.878,-33.5844 397.575,-40.275 393.863,-36.9251 393.863,-36.9251 393.863,-36.9251 397.575,-40.275 390.848,-40.2659 401.287,-43.6248 401.287,-43.6248"/>
</g>
</g>
</svg>
