<?xml version="1.0" encoding="UTF-8" standalone="no"?>
<!DOCTYPE svg PUBLIC "-//W3C//DTD SVG 1.1//EN"
 "http://www.w3.org/Graphics/SVG/1.1/DTD/svg11.dtd">
<!-- Generated by graphviz version 2.26.3 (20100126.1600)
 -->
<!-- Title: models_diagram Pages: 1 -->
<svg width="889pt" height="1286pt"
 viewBox="0.00 0.00 889.00 1286.00" xmlns="http://www.w3.org/2000/svg" xmlns:xlink="http://www.w3.org/1999/xlink">
<g id="graph1" class="graph" transform="scale(1 1) rotate(0) translate(4 1282)">
<title>models_diagram</title>
<polygon fill="white" stroke="white" points="-4,5 -4,-1282 886,-1282 886,5 -4,5"/>
<!-- _diagram_info -->
<g id="node1" class="node"><title>_diagram_info</title>
<text text-anchor="start" x="8" y="-1200.8" font-family="Times Roman,serif" font-size="13.00">Models diagram</text>
<text text-anchor="start" x="8" y="-1183.8" font-family="Times Roman,serif" font-size="13.00">Date: May 05 2015 &#45; 21:45</text>
<text text-anchor="start" x="8" y="-1166.8" font-family="Times Roman,serif" font-size="13.00">Migration version: 20150505220955</text>
<text text-anchor="start" x="8" y="-1149.8" font-family="Times Roman,serif" font-size="13.00">Generated by RailRoady 1.3.0</text>
<text text-anchor="start" x="8" y="-1132.8" font-family="Times Roman,serif" font-size="13.00">http://railroady.prestonlee.com</text>
</g>
<!-- Event -->
<g id="node2" class="node"><title>Event</title>
<polyline fill="none" stroke="black" points="485.5,-856 626.5,-856 "/>
<path fill="none" stroke="black" d="M626.5,-856C632.5,-856 638.5,-862 638.5,-868"/>
<polyline fill="none" stroke="black" points="638.5,-868 638.5,-1004 "/>
<path fill="none" stroke="black" d="M638.5,-1004C638.5,-1010 632.5,-1016 626.5,-1016"/>
<polyline fill="none" stroke="black" points="626.5,-1016 485.5,-1016 "/>
<path fill="none" stroke="black" d="M485.5,-1016C479.5,-1016 473.5,-1010 473.5,-1004"/>
<polyline fill="none" stroke="black" points="473.5,-1004 473.5,-868 "/>
<path fill="none" stroke="black" d="M473.5,-868C473.5,-862 479.5,-856 485.5,-856"/>
<text text-anchor="middle" x="556" y="-999.4" font-family="Times Roman,serif" font-size="14.00">Event</text>
<polyline fill="none" stroke="black" points="473.5,-990 638.5,-990 "/>
<text text-anchor="start" x="481.5" y="-973.4" font-family="Times Roman,serif" font-size="14.00">id :integer</text>
<text text-anchor="start" x="481.5" y="-955.4" font-family="Times Roman,serif" font-size="14.00">title :string</text>
<text text-anchor="start" x="481.5" y="-937.4" font-family="Times Roman,serif" font-size="14.00">place :string</text>
<text text-anchor="start" x="481.5" y="-919.4" font-family="Times Roman,serif" font-size="14.00">description :text</text>
<text text-anchor="start" x="481.5" y="-901.4" font-family="Times Roman,serif" font-size="14.00">date :date</text>
<text text-anchor="start" x="481.5" y="-883.4" font-family="Times Roman,serif" font-size="14.00">created_at :datetime</text>
<text text-anchor="start" x="481.5" y="-865.4" font-family="Times Roman,serif" font-size="14.00">updated_at :datetime</text>
</g>
<!-- User -->
<g id="node10" class="node"><title>User</title>
<polyline fill="none" stroke="black" points="318.5,-433 573.5,-433 "/>
<path fill="none" stroke="black" d="M573.5,-433C579.5,-433 585.5,-439 585.5,-445"/>
<polyline fill="none" stroke="black" points="585.5,-445 585.5,-797 "/>
<path fill="none" stroke="black" d="M585.5,-797C585.5,-803 579.5,-809 573.5,-809"/>
<polyline fill="none" stroke="black" points="573.5,-809 318.5,-809 "/>
<path fill="none" stroke="black" d="M318.5,-809C312.5,-809 306.5,-803 306.5,-797"/>
<polyline fill="none" stroke="black" points="306.5,-797 306.5,-445 "/>
<path fill="none" stroke="black" d="M306.5,-445C306.5,-439 312.5,-433 318.5,-433"/>
<text text-anchor="middle" x="446" y="-792.4" font-family="Times Roman,serif" font-size="14.00">User</text>
<polyline fill="none" stroke="black" points="306.5,-783 585.5,-783 "/>
<text text-anchor="start" x="314.5" y="-766.4" font-family="Times Roman,serif" font-size="14.00">id :integer</text>
<text text-anchor="start" x="314.5" y="-748.4" font-family="Times Roman,serif" font-size="14.00">name :string</text>
<text text-anchor="start" x="314.5" y="-730.4" font-family="Times Roman,serif" font-size="14.00">email :string</text>
<text text-anchor="start" x="314.5" y="-712.4" font-family="Times Roman,serif" font-size="14.00">password_digest :string</text>
<text text-anchor="start" x="314.5" y="-694.4" font-family="Times Roman,serif" font-size="14.00">address :string</text>
<text text-anchor="start" x="314.5" y="-676.4" font-family="Times Roman,serif" font-size="14.00">phone :string</text>
<text text-anchor="start" x="314.5" y="-658.4" font-family="Times Roman,serif" font-size="14.00">emergency_contact_name :string</text>
<text text-anchor="start" x="314.5" y="-640.4" font-family="Times Roman,serif" font-size="14.00">emergency_contact_phone :string</text>
<text text-anchor="start" x="314.5" y="-622.4" font-family="Times Roman,serif" font-size="14.00">remember_digest :string</text>
<text text-anchor="start" x="314.5" y="-604.4" font-family="Times Roman,serif" font-size="14.00">activation_digest :string</text>
<text text-anchor="start" x="314.5" y="-586.4" font-family="Times Roman,serif" font-size="14.00">reset_digest :string</text>
<text text-anchor="start" x="314.5" y="-568.4" font-family="Times Roman,serif" font-size="14.00">activated_at :datetime</text>
<text text-anchor="start" x="314.5" y="-550.4" font-family="Times Roman,serif" font-size="14.00">reset_sent_at :datetime</text>
<text text-anchor="start" x="314.5" y="-532.4" font-family="Times Roman,serif" font-size="14.00">activated :boolean</text>
<text text-anchor="start" x="314.5" y="-514.4" font-family="Times Roman,serif" font-size="14.00">admin :boolean</text>
<text text-anchor="start" x="314.5" y="-496.4" font-family="Times Roman,serif" font-size="14.00">event_register_email_notify :datetime</text>
<text text-anchor="start" x="314.5" y="-478.4" font-family="Times Roman,serif" font-size="14.00">created_at :datetime</text>
<text text-anchor="start" x="314.5" y="-460.4" font-family="Times Roman,serif" font-size="14.00">updated_at :datetime</text>
<text text-anchor="start" x="314.5" y="-442.4" font-family="Times Roman,serif" font-size="14.00">staff :boolean</text>
</g>
<!-- Event&#45;&gt;User -->
<g id="edge4" class="edge"><title>Event&#45;&gt;User</title>
<path fill="none" stroke="#fd529f" d="M524.56,-845.967C521.51,-837.234 518.342,-828.16 515.103,-818.886"/>
<polygon fill="#fd529f" stroke="#fd529f" points="524.661,-846.256 523.709,-857.181 526.309,-850.977 527.958,-855.697 527.958,-855.697 527.958,-855.697 526.309,-850.977 532.206,-854.214 524.661,-846.256 524.661,-846.256"/>
<polygon fill="#fd529f" stroke="#fd529f" points="515.001,-818.595 515.953,-807.67 513.353,-813.874 511.705,-809.154 511.705,-809.154 511.705,-809.154 513.353,-813.874 507.456,-810.638 515.001,-818.595 515.001,-818.595"/>
</g>
<!-- TimeSlot -->
<g id="node11" class="node"><title>TimeSlot</title>
<polyline fill="none" stroke="black" points="486,-217 670,-217 "/>
<path fill="none" stroke="black" d="M670,-217C676,-217 682,-223 682,-229"/>
<polyline fill="none" stroke="black" points="682,-229 682,-383 "/>
<path fill="none" stroke="black" d="M682,-383C682,-389 676,-395 670,-395"/>
<polyline fill="none" stroke="black" points="670,-395 486,-395 "/>
<path fill="none" stroke="black" d="M486,-395C480,-395 474,-389 474,-383"/>
<polyline fill="none" stroke="black" points="474,-383 474,-229 "/>
<path fill="none" stroke="black" d="M474,-229C474,-223 480,-217 486,-217"/>
<text text-anchor="middle" x="578" y="-378.4" font-family="Times Roman,serif" font-size="14.00">TimeSlot</text>
<polyline fill="none" stroke="black" points="474,-369 682,-369 "/>
<text text-anchor="start" x="482" y="-352.4" font-family="Times Roman,serif" font-size="14.00">id :integer</text>
<text text-anchor="start" x="482" y="-334.4" font-family="Times Roman,serif" font-size="14.00">start_time :datetime</text>
<text text-anchor="start" x="482" y="-316.4" font-family="Times Roman,serif" font-size="14.00">end_time :datetime</text>
<text text-anchor="start" x="482" y="-298.4" font-family="Times Roman,serif" font-size="14.00">total_capacity :integer</text>
<text text-anchor="start" x="482" y="-280.4" font-family="Times Roman,serif" font-size="14.00">remaining_capacity :integer</text>
<text text-anchor="start" x="482" y="-262.4" font-family="Times Roman,serif" font-size="14.00">event_id :integer</text>
<text text-anchor="start" x="482" y="-244.4" font-family="Times Roman,serif" font-size="14.00">created_at :datetime</text>
<text text-anchor="start" x="482" y="-226.4" font-family="Times Roman,serif" font-size="14.00">updated_at :datetime</text>
</g>
<!-- Event&#45;&gt;TimeSlot -->
<g id="edge2" class="edge"><title>Event&#45;&gt;TimeSlot</title>
<path fill="none" stroke="#ce5601" d="M586.088,-847.989C589.359,-835.371 592.164,-822.448 594,-810 614.555,-670.656 602.953,-507.386 591.495,-405.305"/>
<ellipse fill="none" stroke="#ce5601" cx="585.03" cy="-851.935" rx="4.00001" ry="4.00001"/>
<polygon fill="#ce5601" stroke="#ce5601" points="591.489,-405.249 594.823,-394.802 590.921,-400.281 590.352,-395.314 590.352,-395.314 590.352,-395.314 590.921,-400.281 585.882,-395.825 591.489,-405.249 591.489,-405.249"/>
</g>
<!-- DsClass -->
<g id="node3" class="node"><title>DsClass</title>
<polyline fill="none" stroke="black" points="546.5,-1063 687.5,-1063 "/>
<path fill="none" stroke="black" d="M687.5,-1063C693.5,-1063 699.5,-1069 699.5,-1075"/>
<polyline fill="none" stroke="black" points="699.5,-1075 699.5,-1265 "/>
<path fill="none" stroke="black" d="M699.5,-1265C699.5,-1271 693.5,-1277 687.5,-1277"/>
<polyline fill="none" stroke="black" points="687.5,-1277 546.5,-1277 "/>
<path fill="none" stroke="black" d="M546.5,-1277C540.5,-1277 534.5,-1271 534.5,-1265"/>
<polyline fill="none" stroke="black" points="534.5,-1265 534.5,-1075 "/>
<path fill="none" stroke="black" d="M534.5,-1075C534.5,-1069 540.5,-1063 546.5,-1063"/>
<text text-anchor="middle" x="617" y="-1260.4" font-family="Times Roman,serif" font-size="14.00">DsClass</text>
<polyline fill="none" stroke="black" points="534.5,-1251 699.5,-1251 "/>
<text text-anchor="start" x="542.5" y="-1234.4" font-family="Times Roman,serif" font-size="14.00">id :integer</text>
<text text-anchor="start" x="542.5" y="-1216.4" font-family="Times Roman,serif" font-size="14.00">title :string</text>
<text text-anchor="start" x="542.5" y="-1198.4" font-family="Times Roman,serif" font-size="14.00">place :string</text>
<text text-anchor="start" x="542.5" y="-1180.4" font-family="Times Roman,serif" font-size="14.00">description :text</text>
<text text-anchor="start" x="542.5" y="-1162.4" font-family="Times Roman,serif" font-size="14.00">start_time :datetime</text>
<text text-anchor="start" x="542.5" y="-1144.4" font-family="Times Roman,serif" font-size="14.00">end_time :datetime</text>
<text text-anchor="start" x="542.5" y="-1126.4" font-family="Times Roman,serif" font-size="14.00">start_date :date</text>
<text text-anchor="start" x="542.5" y="-1108.4" font-family="Times Roman,serif" font-size="14.00">end_date :date</text>
<text text-anchor="start" x="542.5" y="-1090.4" font-family="Times Roman,serif" font-size="14.00">created_at :datetime</text>
<text text-anchor="start" x="542.5" y="-1072.4" font-family="Times Roman,serif" font-size="14.00">updated_at :datetime</text>
</g>
<!-- ClassSlot -->
<g id="node8" class="node"><title>ClassSlot</title>
<polyline fill="none" stroke="black" points="668,-847 852,-847 "/>
<path fill="none" stroke="black" d="M852,-847C858,-847 864,-853 864,-859"/>
<polyline fill="none" stroke="black" points="864,-859 864,-1013 "/>
<path fill="none" stroke="black" d="M864,-1013C864,-1019 858,-1025 852,-1025"/>
<polyline fill="none" stroke="black" points="852,-1025 668,-1025 "/>
<path fill="none" stroke="black" d="M668,-1025C662,-1025 656,-1019 656,-1013"/>
<polyline fill="none" stroke="black" points="656,-1013 656,-859 "/>
<path fill="none" stroke="black" d="M656,-859C656,-853 662,-847 668,-847"/>
<text text-anchor="middle" x="760" y="-1008.4" font-family="Times Roman,serif" font-size="14.00">ClassSlot</text>
<polyline fill="none" stroke="black" points="656,-999 864,-999 "/>
<text text-anchor="start" x="664" y="-982.4" font-family="Times Roman,serif" font-size="14.00">id :integer</text>
<text text-anchor="start" x="664" y="-964.4" font-family="Times Roman,serif" font-size="14.00">start_time :datetime</text>
<text text-anchor="start" x="664" y="-946.4" font-family="Times Roman,serif" font-size="14.00">end_time :datetime</text>
<text text-anchor="start" x="664" y="-928.4" font-family="Times Roman,serif" font-size="14.00">total_capacity :integer</text>
<text text-anchor="start" x="664" y="-910.4" font-family="Times Roman,serif" font-size="14.00">remaining_capacity :integer</text>
<text text-anchor="start" x="664" y="-892.4" font-family="Times Roman,serif" font-size="14.00">ds_class_id :integer</text>
<text text-anchor="start" x="664" y="-874.4" font-family="Times Roman,serif" font-size="14.00">created_at :datetime</text>
<text text-anchor="start" x="664" y="-856.4" font-family="Times Roman,serif" font-size="14.00">updated_at :datetime</text>
</g>
<!-- DsClass&#45;&gt;ClassSlot -->
<g id="edge6" class="edge"><title>DsClass&#45;&gt;ClassSlot</title>
<path fill="none" stroke="#4e3575" d="M686.783,-1055.81C691.208,-1048.57 695.641,-1041.31 700.015,-1034.16"/>
<ellipse fill="none" stroke="#4e3575" cx="684.518" cy="-1059.52" rx="4.00002" ry="4.00002"/>
<polygon fill="#4e3575" stroke="#4e3575" points="700.305,-1033.68 709.359,-1027.5 702.912,-1029.42 705.519,-1025.15 705.519,-1025.15 705.519,-1025.15 702.912,-1029.42 701.679,-1022.8 700.305,-1033.68 700.305,-1033.68"/>
</g>
<!-- DsClass&#45;&gt;User -->
<g id="edge8" class="edge"><title>DsClass&#45;&gt;User</title>
<path fill="none" stroke="#7ef36c" d="M526.561,-1105.52C502.24,-1083.27 478.86,-1056.25 465,-1026 435.901,-962.491 426.508,-887.357 425.915,-819.154"/>
<polygon fill="#7ef36c" stroke="#7ef36c" points="526.665,-1105.61 531.135,-1115.62 530.397,-1108.94 534.129,-1112.26 534.129,-1112.26 534.129,-1112.26 530.397,-1108.94 537.124,-1108.91 526.665,-1105.61 526.665,-1105.61"/>
<polygon fill="#7ef36c" stroke="#7ef36c" points="425.916,-819.144 430.391,-809.133 425.903,-814.144 425.891,-809.144 425.891,-809.144 425.891,-809.144 425.903,-814.144 421.391,-809.155 425.916,-819.144 425.916,-819.144"/>
</g>
<!-- Day -->
<g id="node4" class="node"><title>Day</title>
<polyline fill="none" stroke="black" points="652.5,-559 793.5,-559 "/>
<path fill="none" stroke="black" d="M793.5,-559C799.5,-559 805.5,-565 805.5,-571"/>
<polyline fill="none" stroke="black" points="805.5,-571 805.5,-671 "/>
<path fill="none" stroke="black" d="M805.5,-671C805.5,-677 799.5,-683 793.5,-683"/>
<polyline fill="none" stroke="black" points="793.5,-683 652.5,-683 "/>
<path fill="none" stroke="black" d="M652.5,-683C646.5,-683 640.5,-677 640.5,-671"/>
<polyline fill="none" stroke="black" points="640.5,-671 640.5,-571 "/>
<path fill="none" stroke="black" d="M640.5,-571C640.5,-565 646.5,-559 652.5,-559"/>
<text text-anchor="middle" x="723" y="-666.4" font-family="Times Roman,serif" font-size="14.00">Day</text>
<polyline fill="none" stroke="black" points="640.5,-657 805.5,-657 "/>
<text text-anchor="start" x="648.5" y="-640.4" font-family="Times Roman,serif" font-size="14.00">id :integer</text>
<text text-anchor="start" x="648.5" y="-622.4" font-family="Times Roman,serif" font-size="14.00">day :string</text>
<text text-anchor="start" x="648.5" y="-604.4" font-family="Times Roman,serif" font-size="14.00">created_at :datetime</text>
<text text-anchor="start" x="648.5" y="-586.4" font-family="Times Roman,serif" font-size="14.00">updated_at :datetime</text>
<text text-anchor="start" x="648.5" y="-568.4" font-family="Times Roman,serif" font-size="14.00">class_slot_id :integer</text>
</g>
<!-- BuddySlot -->
<g id="node5" class="node"><title>BuddySlot</title>
<polyline fill="none" stroke="black" points="215.5,-865 368.5,-865 "/>
<path fill="none" stroke="black" d="M368.5,-865C374.5,-865 380.5,-871 380.5,-877"/>
<polyline fill="none" stroke="black" points="380.5,-877 380.5,-995 "/>
<path fill="none" stroke="black" d="M380.5,-995C380.5,-1001 374.5,-1007 368.5,-1007"/>
<polyline fill="none" stroke="black" points="368.5,-1007 215.5,-1007 "/>
<path fill="none" stroke="black" d="M215.5,-1007C209.5,-1007 203.5,-1001 203.5,-995"/>
<polyline fill="none" stroke="black" points="203.5,-995 203.5,-877 "/>
<path fill="none" stroke="black" d="M203.5,-877C203.5,-871 209.5,-865 215.5,-865"/>
<text text-anchor="middle" x="292" y="-990.4" font-family="Times Roman,serif" font-size="14.00">BuddySlot</text>
<polyline fill="none" stroke="black" points="203.5,-981 380.5,-981 "/>
<text text-anchor="start" x="211.5" y="-964.4" font-family="Times Roman,serif" font-size="14.00">id :integer</text>
<text text-anchor="start" x="211.5" y="-946.4" font-family="Times Roman,serif" font-size="14.00">created_at :datetime</text>
<text text-anchor="start" x="211.5" y="-928.4" font-family="Times Roman,serif" font-size="14.00">updated_at :datetime</text>
<text text-anchor="start" x="211.5" y="-910.4" font-family="Times Roman,serif" font-size="14.00">buddy_walk_id :integer</text>
<text text-anchor="start" x="211.5" y="-892.4" font-family="Times Roman,serif" font-size="14.00">start_time :datetime</text>
<text text-anchor="start" x="211.5" y="-874.4" font-family="Times Roman,serif" font-size="14.00">end_time :datetime</text>
</g>
<!-- Appointment -->
<g id="node9" class="node"><title>Appointment</title>
<polyline fill="none" stroke="black" points="439.5,-1 584.5,-1 "/>
<path fill="none" stroke="black" d="M584.5,-1C590.5,-1 596.5,-7 596.5,-13"/>
<polyline fill="none" stroke="black" points="596.5,-13 596.5,-167 "/>
<path fill="none" stroke="black" d="M596.5,-167C596.5,-173 590.5,-179 584.5,-179"/>
<polyline fill="none" stroke="black" points="584.5,-179 439.5,-179 "/>
<path fill="none" stroke="black" d="M439.5,-179C433.5,-179 427.5,-173 427.5,-167"/>
<polyline fill="none" stroke="black" points="427.5,-167 427.5,-13 "/>
<path fill="none" stroke="black" d="M427.5,-13C427.5,-7 433.5,-1 439.5,-1"/>
<text text-anchor="middle" x="512" y="-162.4" font-family="Times Roman,serif" font-size="14.00">Appointment</text>
<polyline fill="none" stroke="black" points="427.5,-153 596.5,-153 "/>
<text text-anchor="start" x="435.5" y="-136.4" font-family="Times Roman,serif" font-size="14.00">id :integer</text>
<text text-anchor="start" x="435.5" y="-118.4" font-family="Times Roman,serif" font-size="14.00">user_id :integer</text>
<text text-anchor="start" x="435.5" y="-100.4" font-family="Times Roman,serif" font-size="14.00">time_slot_id :integer</text>
<text text-anchor="start" x="435.5" y="-82.4" font-family="Times Roman,serif" font-size="14.00">is_checkedin :boolean</text>
<text text-anchor="start" x="435.5" y="-64.4" font-family="Times Roman,serif" font-size="14.00">created_at :datetime</text>
<text text-anchor="start" x="435.5" y="-46.4" font-family="Times Roman,serif" font-size="14.00">updated_at :datetime</text>
<text text-anchor="start" x="435.5" y="-28.4" font-family="Times Roman,serif" font-size="14.00">class_slot_id :integer</text>
<text text-anchor="start" x="435.5" y="-10.4" font-family="Times Roman,serif" font-size="14.00">buddy_slot_id :integer</text>
</g>
<!-- BuddySlot&#45;&gt;Appointment -->
<g id="edge10" class="edge"><title>BuddySlot&#45;&gt;Appointment</title>
<path fill="none" stroke="#460757" d="M279.998,-856.908C267.586,-755.984 255.406,-577.106 298,-432 324.485,-341.772 382.049,-252.118 430.81,-187.254"/>
<ellipse fill="none" stroke="#460757" cx="280.508" cy="-860.964" rx="4.00001" ry="4.00001"/>
<polygon fill="#460757" stroke="#460757" points="430.973,-187.038 440.601,-181.787 433.994,-183.053 437.015,-179.069 437.015,-179.069 437.015,-179.069 433.994,-183.053 433.429,-176.35 430.973,-187.038 430.973,-187.038"/>
</g>
<!-- BuddySlot&#45;&gt;User -->
<g id="edge12" class="edge"><title>BuddySlot&#45;&gt;User</title>
<path fill="none" stroke="#caf590" d="M331.337,-855.538C337.111,-843.728 343.259,-831.152 349.595,-818.192"/>
<polygon fill="#caf590" stroke="#caf590" points="331.145,-855.931 322.71,-862.939 328.949,-860.423 326.753,-864.915 326.753,-864.915 326.753,-864.915 328.949,-860.423 330.795,-866.892 331.145,-855.931 331.145,-855.931"/>
<polygon fill="#caf590" stroke="#caf590" points="349.617,-818.147 358.052,-811.139 351.813,-813.655 354.009,-809.163 354.009,-809.163 354.009,-809.163 351.813,-813.655 349.967,-807.186 349.617,-818.147 349.617,-818.147"/>
</g>
<!-- Article -->
<g id="node6" class="node"><title>Article</title>
<polyline fill="none" stroke="black" points="728.5,-1117 869.5,-1117 "/>
<path fill="none" stroke="black" d="M869.5,-1117C875.5,-1117 881.5,-1123 881.5,-1129"/>
<polyline fill="none" stroke="black" points="881.5,-1129 881.5,-1211 "/>
<path fill="none" stroke="black" d="M881.5,-1211C881.5,-1217 875.5,-1223 869.5,-1223"/>
<polyline fill="none" stroke="black" points="869.5,-1223 728.5,-1223 "/>
<path fill="none" stroke="black" d="M728.5,-1223C722.5,-1223 716.5,-1217 716.5,-1211"/>
<polyline fill="none" stroke="black" points="716.5,-1211 716.5,-1129 "/>
<path fill="none" stroke="black" d="M716.5,-1129C716.5,-1123 722.5,-1117 728.5,-1117"/>
<text text-anchor="middle" x="799" y="-1206.4" font-family="Times Roman,serif" font-size="14.00">Article</text>
<polyline fill="none" stroke="black" points="716.5,-1197 881.5,-1197 "/>
<text text-anchor="start" x="724.5" y="-1180.4" font-family="Times Roman,serif" font-size="14.00">id :integer</text>
<text text-anchor="start" x="724.5" y="-1162.4" font-family="Times Roman,serif" font-size="14.00">text :text</text>
<text text-anchor="start" x="724.5" y="-1144.4" font-family="Times Roman,serif" font-size="14.00">created_at :datetime</text>
<text text-anchor="start" x="724.5" y="-1126.4" font-family="Times Roman,serif" font-size="14.00">updated_at :datetime</text>
</g>
<!-- BuddyWalk -->
<g id="node7" class="node"><title>BuddyWalk</title>
<polyline fill="none" stroke="black" points="279.5,-1090 420.5,-1090 "/>
<path fill="none" stroke="black" d="M420.5,-1090C426.5,-1090 432.5,-1096 432.5,-1102"/>
<polyline fill="none" stroke="black" points="432.5,-1102 432.5,-1238 "/>
<path fill="none" stroke="black" d="M432.5,-1238C432.5,-1244 426.5,-1250 420.5,-1250"/>
<polyline fill="none" stroke="black" points="420.5,-1250 279.5,-1250 "/>
<path fill="none" stroke="black" d="M279.5,-1250C273.5,-1250 267.5,-1244 267.5,-1238"/>
<polyline fill="none" stroke="black" points="267.5,-1238 267.5,-1102 "/>
<path fill="none" stroke="black" d="M267.5,-1102C267.5,-1096 273.5,-1090 279.5,-1090"/>
<text text-anchor="middle" x="350" y="-1233.4" font-family="Times Roman,serif" font-size="14.00">BuddyWalk</text>
<polyline fill="none" stroke="black" points="267.5,-1224 432.5,-1224 "/>
<text text-anchor="start" x="275.5" y="-1207.4" font-family="Times Roman,serif" font-size="14.00">id :integer</text>
<text text-anchor="start" x="275.5" y="-1189.4" font-family="Times Roman,serif" font-size="14.00">title :string</text>
<text text-anchor="start" x="275.5" y="-1171.4" font-family="Times Roman,serif" font-size="14.00">place :string</text>
<text text-anchor="start" x="275.5" y="-1153.4" font-family="Times Roman,serif" font-size="14.00">description :text</text>
<text text-anchor="start" x="275.5" y="-1135.4" font-family="Times Roman,serif" font-size="14.00">date :date</text>
<text text-anchor="start" x="275.5" y="-1117.4" font-family="Times Roman,serif" font-size="14.00">created_at :datetime</text>
<text text-anchor="start" x="275.5" y="-1099.4" font-family="Times Roman,serif" font-size="14.00">updated_at :datetime</text>
</g>
<!-- BuddyWalk&#45;&gt;BuddySlot -->
<g id="edge14" class="edge"><title>BuddyWalk&#45;&gt;BuddySlot</title>
<path fill="none" stroke="#7e2467" d="M328.152,-1081.85C322.702,-1059.87 316.893,-1036.43 311.562,-1014.92"/>
<ellipse fill="none" stroke="#7e2467" cx="329.158" cy="-1085.92" rx="4.00001" ry="4.00001"/>
<ellipse fill="#7e2467" stroke="#7e2467" cx="310.583" cy="-1010.97" rx="4.00001" ry="4.00001"/>
</g>
<!-- BuddyWalk&#45;&gt;User -->
<g id="edge16" class="edge"><title>BuddyWalk&#45;&gt;User</title>
<path fill="none" stroke="#374e59" d="M376.246,-1079.91C380.9,-1062.14 385.402,-1043.56 389,-1026 402.713,-959.093 414.168,-885.288 423.126,-819.215"/>
<polygon fill="#374e59" stroke="#374e59" points="376.215,-1080.03 369.3,-1088.54 374.932,-1084.86 373.649,-1089.69 373.649,-1089.69 373.649,-1089.69 374.932,-1084.86 377.998,-1090.85 376.215,-1080.03 376.215,-1080.03"/>
<polygon fill="#374e59" stroke="#374e59" points="423.153,-819.013 428.946,-809.702 423.82,-814.058 424.486,-809.103 424.486,-809.103 424.486,-809.103 423.82,-814.058 420.026,-808.503 423.153,-819.013 423.153,-819.013"/>
</g>
<!-- ClassSlot&#45;&gt;Day -->
<g id="edge22" class="edge"><title>ClassSlot&#45;&gt;Day</title>
<path fill="none" stroke="#4505ab" d="M748.6,-838.95C743.088,-792.021 736.584,-736.651 731.512,-693.464"/>
<ellipse fill="none" stroke="#4505ab" cx="749.079" cy="-843.024" rx="4.00001" ry="4.00001"/>
<polygon fill="#4505ab" stroke="#4505ab" points="731.487,-693.255 734.79,-682.798 730.904,-688.289 730.32,-683.323 730.32,-683.323 730.32,-683.323 730.904,-688.289 725.851,-683.848 731.487,-693.255 731.487,-693.255"/>
</g>
<!-- ClassSlot&#45;&gt;Appointment -->
<g id="edge18" class="edge"><title>ClassSlot&#45;&gt;Appointment</title>
<path fill="none" stroke="#633e2a" d="M806.038,-839.185C809.263,-829.489 812.018,-819.658 814,-810 847.779,-645.431 856.999,-594.404 814,-432 785.725,-325.206 765.291,-297.764 691,-216 666.46,-188.992 635.146,-164.518 605.593,-144.476"/>
<ellipse fill="none" stroke="#633e2a" cx="804.665" cy="-843.147" rx="4.00001" ry="4.00001"/>
<polygon fill="#633e2a" stroke="#633e2a" points="605.217,-144.226 599.399,-134.93 601.058,-141.449 596.9,-138.673 596.9,-138.673 596.9,-138.673 601.058,-141.449 594.401,-142.415 605.217,-144.226 605.217,-144.226"/>
</g>
<!-- ClassSlot&#45;&gt;User -->
<g id="edge20" class="edge"><title>ClassSlot&#45;&gt;User</title>
<path fill="none" stroke="#0c7a72" d="M661.624,-839.473C651.596,-829.541 641.581,-819.582 632,-810 619.297,-797.296 606.146,-784.073 592.976,-770.785"/>
<polygon fill="#0c7a72" stroke="#0c7a72" points="661.814,-839.661 665.756,-849.894 665.368,-843.178 668.922,-846.695 668.922,-846.695 668.922,-846.695 665.368,-843.178 672.087,-843.497 661.814,-839.661 661.814,-839.661"/>
<polygon fill="#0c7a72" stroke="#0c7a72" points="592.698,-770.504 588.859,-760.232 589.18,-766.952 585.661,-763.399 585.661,-763.399 585.661,-763.399 589.18,-766.952 582.464,-766.566 592.698,-770.504 592.698,-770.504"/>
</g>
<!-- User&#45;&gt;Appointment -->
<g id="edge24" class="edge"><title>User&#45;&gt;Appointment</title>
<path fill="none" stroke="#88afac" d="M442.998,-424.885C445.193,-358.057 451.229,-283.26 465,-216 466.823,-207.097 469.178,-197.989 471.861,-188.944"/>
<ellipse fill="none" stroke="#88afac" cx="442.872" cy="-428.996" rx="4" ry="4"/>
<polygon fill="#88afac" stroke="#88afac" points="471.931,-188.718 479.19,-180.499 473.411,-183.942 474.892,-179.166 474.892,-179.166 474.892,-179.166 473.411,-183.942 470.593,-177.834 471.931,-188.718 471.931,-188.718"/>
</g>
<!-- User&#45;&gt;TimeSlot -->
<g id="edge26" class="edge"><title>User&#45;&gt;TimeSlot</title>
<path fill="none" stroke="#a2df96" d="M528.778,-423.461C531.429,-417.136 534.04,-410.904 536.594,-404.809"/>
<polygon fill="#a2df96" stroke="#a2df96" points="528.746,-423.538 520.731,-431.022 526.814,-428.149 524.881,-432.761 524.881,-432.761 524.881,-432.761 526.814,-428.149 529.031,-434.5 528.746,-423.538 528.746,-423.538"/>
<polygon fill="#a2df96" stroke="#a2df96" points="536.693,-404.573 544.709,-397.089 538.626,-399.961 540.558,-395.35 540.558,-395.35 540.558,-395.35 538.626,-399.961 536.408,-393.611 536.693,-404.573 536.693,-404.573"/>
</g>
<!-- TimeSlot&#45;&gt;Appointment -->
<g id="edge28" class="edge"><title>TimeSlot&#45;&gt;Appointment</title>
<path fill="none" stroke="#521b3a" d="M548.358,-208.989C546.325,-202.336 544.275,-195.627 542.239,-188.964"/>
<ellipse fill="none" stroke="#521b3a" cx="549.605" cy="-213.072" rx="4.00001" ry="4.00001"/>
<polygon fill="#521b3a" stroke="#521b3a" points="542.192,-188.81 543.573,-177.931 540.731,-184.028 539.27,-179.246 539.27,-179.246 539.27,-179.246 540.731,-184.028 534.966,-180.561 542.192,-188.81 542.192,-188.81"/>
</g>
</g>
</svg>
