<?xml version="1.0" encoding="UTF-8" standalone="no"?>
<!DOCTYPE svg PUBLIC "-//W3C//DTD SVG 1.1//EN"
 "http://www.w3.org/Graphics/SVG/1.1/DTD/svg11.dtd">
<!-- Generated by graphviz version 2.26.3 (20100126.1600)
 -->
<!-- Title: models_diagram Pages: 1 -->
<svg width="673pt" height="398pt"
 viewBox="0.00 0.00 673.00 398.00" xmlns="http://www.w3.org/2000/svg" xmlns:xlink="http://www.w3.org/1999/xlink">
<g id="graph1" class="graph" transform="scale(1 1) rotate(0) translate(4 394)">
<title>models_diagram</title>
<polygon fill="white" stroke="white" points="-4,5 -4,-394 670,-394 670,5 -4,5"/>
<!-- _diagram_info -->
<g id="node1" class="node"><title>_diagram_info</title>
<text text-anchor="start" x="8" y="-373.8" font-family="Times Roman,serif" font-size="13.00">Models diagram</text>
<text text-anchor="start" x="8" y="-356.8" font-family="Times Roman,serif" font-size="13.00">Date: May 05 2015 &#45; 21:45</text>
<text text-anchor="start" x="8" y="-339.8" font-family="Times Roman,serif" font-size="13.00">Migration version: 20150505220955</text>
<text text-anchor="start" x="8" y="-322.8" font-family="Times Roman,serif" font-size="13.00">Generated by RailRoady 1.3.0</text>
<text text-anchor="start" x="8" y="-305.8" font-family="Times Roman,serif" font-size="13.00">http://railroady.prestonlee.com</text>
</g>
<!-- Event -->
<g id="node2" class="node"><title>Event</title>
<ellipse fill="none" stroke="black" cx="485" cy="-241" rx="39.8075" ry="18.3848"/>
<text text-anchor="middle" x="485" y="-237.4" font-family="Times Roman,serif" font-size="14.00">Event</text>
</g>
<!-- User -->
<g id="node10" class="node"><title>User</title>
<ellipse fill="none" stroke="black" cx="417" cy="-167" rx="33.9411" ry="18.3848"/>
<text text-anchor="middle" x="417" y="-163.4" font-family="Times Roman,serif" font-size="14.00">User</text>
</g>
<!-- Event&#45;&gt;User -->
<g id="edge4" class="edge"><title>Event&#45;&gt;User</title>
<path fill="none" stroke="#a57a97" d="M462.332,-216.331C454.906,-208.251 446.667,-199.284 439.271,-191.236"/>
<polygon fill="#a57a97" stroke="#a57a97" points="462.462,-216.474 465.915,-226.882 465.845,-220.155 469.229,-223.837 469.229,-223.837 469.229,-223.837 465.845,-220.155 472.542,-220.792 462.462,-216.474 462.462,-216.474"/>
<polygon fill="#a57a97" stroke="#a57a97" points="438.984,-190.924 435.532,-180.516 435.601,-187.243 432.218,-183.561 432.218,-183.561 432.218,-183.561 435.601,-187.243 428.905,-186.606 438.984,-190.924 438.984,-190.924"/>
</g>
<!-- TimeSlot -->
<g id="node11" class="node"><title>TimeSlot</title>
<ellipse fill="none" stroke="black" cx="483" cy="-93" rx="53.9477" ry="18.3848"/>
<text text-anchor="middle" x="483" y="-89.4" font-family="Times Roman,serif" font-size="14.00">TimeSlot</text>
</g>
<!-- Event&#45;&gt;TimeSlot -->
<g id="edge2" class="edge"><title>Event&#45;&gt;TimeSlot</title>
<path fill="none" stroke="#37ee05" d="M484.635,-214.006C484.283,-187.917 483.75,-148.527 483.39,-121.834"/>
<ellipse fill="none" stroke="#37ee05" cx="484.693" cy="-218.256" rx="4" ry="4"/>
<polygon fill="#37ee05" stroke="#37ee05" points="483.386,-121.591 487.751,-111.531 483.319,-116.592 483.251,-111.592 483.251,-111.592 483.251,-111.592 483.319,-116.592 478.752,-111.653 483.386,-121.591 483.386,-121.591"/>
</g>
<!-- DsClass -->
<g id="node3" class="node"><title>DsClass</title>
<ellipse fill="none" stroke="black" cx="512" cy="-343" rx="48.9975" ry="18.3848"/>
<text text-anchor="middle" x="512" y="-339.4" font-family="Times Roman,serif" font-size="14.00">DsClass</text>
</g>
<!-- ClassSlot -->
<g id="node8" class="node"><title>ClassSlot</title>
<ellipse fill="none" stroke="black" cx="599" cy="-241" rx="55.8614" ry="18.3848"/>
<text text-anchor="middle" x="599" y="-237.4" font-family="Times Roman,serif" font-size="14.00">ClassSlot</text>
</g>
<!-- DsClass&#45;&gt;ClassSlot -->
<g id="edge6" class="edge"><title>DsClass&#45;&gt;ClassSlot</title>
<path fill="none" stroke="#fdc5bd" d="M532.659,-318.78C546.013,-303.122 563.378,-282.764 576.991,-266.803"/>
<ellipse fill="none" stroke="#fdc5bd" cx="529.75" cy="-322.19" rx="4.00002" ry="4.00002"/>
<polygon fill="#fdc5bd" stroke="#fdc5bd" points="577.238,-266.514 587.151,-261.826 580.483,-262.71 583.728,-258.906 583.728,-258.906 583.728,-258.906 580.483,-262.71 580.304,-255.985 577.238,-266.514 577.238,-266.514"/>
</g>
<!-- DsClass&#45;&gt;User -->
<g id="edge8" class="edge"><title>DsClass&#45;&gt;User</title>
<path fill="none" stroke="#691364" d="M483.51,-319.137C467.141,-303.881 447.592,-282.737 436,-260 425.817,-240.025 421.091,-215.014 418.898,-195.962"/>
<polygon fill="#691364" stroke="#691364" points="483.827,-319.424 488.221,-329.471 487.534,-322.779 491.241,-326.135 491.241,-326.135 491.241,-326.135 487.534,-322.779 494.26,-322.799 483.827,-319.424 483.827,-319.424"/>
<polygon fill="#691364" stroke="#691364" points="418.876,-195.74 422.378,-185.349 418.388,-190.764 417.899,-185.788 417.899,-185.788 417.899,-185.788 418.388,-190.764 413.421,-186.228 418.876,-195.74 418.876,-195.74"/>
</g>
<!-- Day -->
<g id="node4" class="node"><title>Day</title>
<ellipse fill="none" stroke="black" cx="542" cy="-167" rx="31.1127" ry="18.3848"/>
<text text-anchor="middle" x="542" y="-163.4" font-family="Times Roman,serif" font-size="14.00">Day</text>
</g>
<!-- BuddySlot -->
<g id="node5" class="node"><title>BuddySlot</title>
<ellipse fill="none" stroke="black" cx="290" cy="-241" rx="61.0181" ry="18.3848"/>
<text text-anchor="middle" x="290" y="-237.4" font-family="Times Roman,serif" font-size="14.00">BuddySlot</text>
</g>
<!-- Appointment -->
<g id="node9" class="node"><title>Appointment</title>
<ellipse fill="none" stroke="black" cx="442" cy="-19" rx="74.9533" ry="18.3848"/>
<text text-anchor="middle" x="442" y="-15.4" font-family="Times Roman,serif" font-size="14.00">Appointment</text>
</g>
<!-- BuddySlot&#45;&gt;Appointment -->
<g id="edge10" class="edge"><title>BuddySlot&#45;&gt;Appointment</title>
<path fill="none" stroke="#d58bbb" d="M307.09,-216.04C335.935,-173.91 394.033,-89.0567 423.685,-45.7498"/>
<ellipse fill="none" stroke="#d58bbb" cx="304.699" cy="-219.532" rx="4.00002" ry="4.00002"/>
<polygon fill="#d58bbb" stroke="#d58bbb" points="423.74,-45.6695 433.102,-39.9605 426.565,-41.5438 429.389,-37.4182 429.389,-37.4182 429.389,-37.4182 426.565,-41.5438 425.676,-34.8759 423.74,-45.6695 423.74,-45.6695"/>
</g>
<!-- BuddySlot&#45;&gt;User -->
<g id="edge12" class="edge"><title>BuddySlot&#45;&gt;User</title>
<path fill="none" stroke="#0f64da" d="M327.056,-219.408C345.353,-208.747 367.216,-196.008 384.805,-185.759"/>
<polygon fill="#0f64da" stroke="#0f64da" points="326.826,-219.542 315.92,-220.689 322.506,-222.06 318.185,-224.577 318.185,-224.577 318.185,-224.577 322.506,-222.06 320.451,-228.465 326.826,-219.542 326.826,-219.542"/>
<polygon fill="#0f64da" stroke="#0f64da" points="384.932,-185.685 395.838,-184.539 389.252,-183.168 393.572,-180.651 393.572,-180.651 393.572,-180.651 389.252,-183.168 391.307,-176.763 384.932,-185.685 384.932,-185.685"/>
</g>
<!-- Article -->
<g id="node6" class="node"><title>Article</title>
<ellipse fill="none" stroke="black" cx="622" cy="-343" rx="43.1335" ry="18.3848"/>
<text text-anchor="middle" x="622" y="-339.4" font-family="Times Roman,serif" font-size="14.00">Article</text>
</g>
<!-- BuddyWalk -->
<g id="node7" class="node"><title>BuddyWalk</title>
<ellipse fill="none" stroke="black" cx="335" cy="-343" rx="67.1751" ry="18.3848"/>
<text text-anchor="middle" x="335" y="-339.4" font-family="Times Roman,serif" font-size="14.00">BuddyWalk</text>
</g>
<!-- BuddyWalk&#45;&gt;BuddySlot -->
<g id="edge14" class="edge"><title>BuddyWalk&#45;&gt;BuddySlot</title>
<path fill="none" stroke="#db0661" d="M323.308,-316.499C316.598,-301.288 308.204,-282.262 301.522,-267.116"/>
<ellipse fill="none" stroke="#db0661" cx="325.132" cy="-320.632" rx="4.00001" ry="4.00001"/>
<ellipse fill="#db0661" stroke="#db0661" cx="299.816" cy="-263.249" rx="4.00002" ry="4.00002"/>
</g>
<!-- BuddyWalk&#45;&gt;User -->
<g id="edge16" class="edge"><title>BuddyWalk&#45;&gt;User</title>
<path fill="none" stroke="#9440b5" d="M347.854,-315.412C363.238,-282.391 388.843,-227.436 404.202,-194.469"/>
<polygon fill="#9440b5" stroke="#9440b5" points="347.844,-315.433 339.541,-322.597 345.732,-319.965 343.62,-324.498 343.62,-324.498 343.62,-324.498 345.732,-319.965 347.699,-326.398 347.844,-315.433 347.844,-315.433"/>
<polygon fill="#9440b5" stroke="#9440b5" points="404.394,-194.056 412.696,-186.892 406.506,-189.524 408.617,-184.992 408.617,-184.992 408.617,-184.992 406.506,-189.524 404.538,-183.092 404.394,-194.056 404.394,-194.056"/>
</g>
<!-- ClassSlot&#45;&gt;Day -->
<g id="edge22" class="edge"><title>ClassSlot&#45;&gt;Day</title>
<path fill="none" stroke="#0060ad" d="M579.974,-216.299C573.937,-208.463 567.261,-199.795 561.211,-191.941"/>
<ellipse fill="none" stroke="#0060ad" cx="582.469" cy="-219.539" rx="4.00002" ry="4.00002"/>
<polygon fill="#0060ad" stroke="#0060ad" points="561.055,-191.739 558.518,-181.07 558.004,-187.777 554.953,-183.816 554.953,-183.816 554.953,-183.816 558.004,-187.777 551.388,-186.562 561.055,-191.739 561.055,-191.739"/>
</g>
<!-- ClassSlot&#45;&gt;Appointment -->
<g id="edge18" class="edge"><title>ClassSlot&#45;&gt;Appointment</title>
<path fill="none" stroke="#d6ad03" d="M597.656,-214.054C594.412,-177.593 583.387,-112.668 546,-74 531.552,-59.0575 512.158,-47.3039 494.032,-38.565"/>
<ellipse fill="none" stroke="#d6ad03" cx="597.984" cy="-218.259" rx="4" ry="4"/>
<polygon fill="#d6ad03" stroke="#d6ad03" points="493.785,-38.4514 486.584,-30.1815 489.243,-36.3602 484.702,-34.269 484.702,-34.269 484.702,-34.269 489.243,-36.3602 482.82,-38.3565 493.785,-38.4514 493.785,-38.4514"/>
</g>
<!-- ClassSlot&#45;&gt;User -->
<g id="edge20" class="edge"><title>ClassSlot&#45;&gt;User</title>
<path fill="none" stroke="#5fd38d" d="M554.124,-222.754C523.247,-210.199 482.738,-193.729 453.771,-181.951"/>
<polygon fill="#5fd38d" stroke="#5fd38d" points="554.213,-222.79 561.782,-230.725 558.845,-224.673 563.477,-226.556 563.477,-226.556 563.477,-226.556 558.845,-224.673 565.171,-222.388 554.213,-222.79 554.213,-222.79"/>
<polygon fill="#5fd38d" stroke="#5fd38d" points="453.684,-181.916 446.115,-173.98 449.052,-180.032 444.42,-178.149 444.42,-178.149 444.42,-178.149 449.052,-180.032 442.725,-182.318 453.684,-181.916 453.684,-181.916"/>
</g>
<!-- User&#45;&gt;Appointment -->
<g id="edge24" class="edge"><title>User&#45;&gt;Appointment</title>
<path fill="none" stroke="#50ea1b" d="M415.421,-140.15C414.912,-121.415 415.407,-95.9384 420,-74 421.893,-64.9564 425.167,-55.4863 428.62,-47.003"/>
<ellipse fill="none" stroke="#50ea1b" cx="415.57" cy="-144.25" rx="4" ry="4"/>
<polygon fill="#50ea1b" stroke="#50ea1b" points="428.723,-46.7648 436.815,-39.3643 430.703,-42.1735 432.683,-37.5823 432.683,-37.5823 432.683,-37.5823 430.703,-42.1735 428.551,-35.8002 428.723,-46.7648 428.723,-46.7648"/>
</g>
<!-- User&#45;&gt;TimeSlot -->
<g id="edge26" class="edge"><title>User&#45;&gt;TimeSlot</title>
<path fill="none" stroke="#ef72c1" d="M438.75,-142.613C445.707,-134.813 453.423,-126.163 460.436,-118.299"/>
<polygon fill="#ef72c1" stroke="#ef72c1" points="438.633,-142.745 428.618,-147.213 435.305,-146.477 431.976,-150.208 431.976,-150.208 431.976,-150.208 435.305,-146.477 435.335,-153.204 438.633,-142.745 438.633,-142.745"/>
<polygon fill="#ef72c1" stroke="#ef72c1" points="460.506,-118.22 470.521,-113.752 463.834,-114.489 467.162,-110.757 467.162,-110.757 467.162,-110.757 463.834,-114.489 463.804,-107.762 460.506,-118.22 460.506,-118.22"/>
</g>
<!-- TimeSlot&#45;&gt;Appointment -->
<g id="edge28" class="edge"><title>TimeSlot&#45;&gt;Appointment</title>
<path fill="none" stroke="#f6e353" d="M468.831,-67.427C465.06,-60.6209 460.972,-53.2428 457.151,-46.3459"/>
<ellipse fill="none" stroke="#f6e353" cx="470.927" cy="-71.209" rx="4.00002" ry="4.00002"/>
<polygon fill="#f6e353" stroke="#f6e353" points="457.007,-46.0853 456.097,-35.1573 454.584,-41.7118 452.16,-37.3382 452.16,-37.3382 452.16,-37.3382 454.584,-41.7118 448.224,-39.5191 457.007,-46.0853 457.007,-46.0853"/>
</g>
</g>
</svg>
