<?xml version="1.0" encoding="UTF-8" standalone="no"?>
<!DOCTYPE svg PUBLIC "-//W3C//DTD SVG 1.1//EN"
 "http://www.w3.org/Graphics/SVG/1.1/DTD/svg11.dtd">
<!-- Generated by graphviz version 2.26.3 (20100126.1600)
 -->
<!-- Title: models_diagram Pages: 1 -->
<svg width="622pt" height="782pt"
 viewBox="0.00 0.00 622.00 782.00" xmlns="http://www.w3.org/2000/svg" xmlns:xlink="http://www.w3.org/1999/xlink">
<g id="graph1" class="graph" transform="scale(1 1) rotate(0) translate(4 778)">
<title>models_diagram</title>
<polygon fill="white" stroke="white" points="-4,5 -4,-778 619,-778 619,5 -4,5"/>
<!-- _diagram_info -->
<g id="node1" class="node"><title>_diagram_info</title>
<text text-anchor="start" x="8" y="-723.8" font-family="Times Roman,serif" font-size="13.00">Models diagram</text>
<text text-anchor="start" x="8" y="-706.8" font-family="Times Roman,serif" font-size="13.00">Date: Apr 08 2015 &#45; 18:17</text>
<text text-anchor="start" x="8" y="-689.8" font-family="Times Roman,serif" font-size="13.00">Migration version: 20150405232100</text>
<text text-anchor="start" x="8" y="-672.8" font-family="Times Roman,serif" font-size="13.00">Generated by RailRoady 1.3.0</text>
<text text-anchor="start" x="8" y="-655.8" font-family="Times Roman,serif" font-size="13.00">http://railroady.prestonlee.com</text>
</g>
<!-- Event -->
<g id="node2" class="node"><title>Event</title>
<polyline fill="none" stroke="black" points="279.5,-613 420.5,-613 "/>
<path fill="none" stroke="black" d="M420.5,-613C426.5,-613 432.5,-619 432.5,-625"/>
<polyline fill="none" stroke="black" points="432.5,-625 432.5,-761 "/>
<path fill="none" stroke="black" d="M432.5,-761C432.5,-767 426.5,-773 420.5,-773"/>
<polyline fill="none" stroke="black" points="420.5,-773 279.5,-773 "/>
<path fill="none" stroke="black" d="M279.5,-773C273.5,-773 267.5,-767 267.5,-761"/>
<polyline fill="none" stroke="black" points="267.5,-761 267.5,-625 "/>
<path fill="none" stroke="black" d="M267.5,-625C267.5,-619 273.5,-613 279.5,-613"/>
<text text-anchor="middle" x="350" y="-756.4" font-family="Times Roman,serif" font-size="14.00">Event</text>
<polyline fill="none" stroke="black" points="267.5,-747 432.5,-747 "/>
<text text-anchor="start" x="275.5" y="-730.4" font-family="Times Roman,serif" font-size="14.00">id :integer</text>
<text text-anchor="start" x="275.5" y="-712.4" font-family="Times Roman,serif" font-size="14.00">title :string</text>
<text text-anchor="start" x="275.5" y="-694.4" font-family="Times Roman,serif" font-size="14.00">place :string</text>
<text text-anchor="start" x="275.5" y="-676.4" font-family="Times Roman,serif" font-size="14.00">description :text</text>
<text text-anchor="start" x="275.5" y="-658.4" font-family="Times Roman,serif" font-size="14.00">date :date</text>
<text text-anchor="start" x="275.5" y="-640.4" font-family="Times Roman,serif" font-size="14.00">created_at :datetime</text>
<text text-anchor="start" x="275.5" y="-622.4" font-family="Times Roman,serif" font-size="14.00">updated_at :datetime</text>
</g>
<!-- User -->
<g id="node4" class="node"><title>User</title>
<polyline fill="none" stroke="black" points="138.5,-217 393.5,-217 "/>
<path fill="none" stroke="black" d="M393.5,-217C399.5,-217 405.5,-223 405.5,-229"/>
<polyline fill="none" stroke="black" points="405.5,-229 405.5,-563 "/>
<path fill="none" stroke="black" d="M405.5,-563C405.5,-569 399.5,-575 393.5,-575"/>
<polyline fill="none" stroke="black" points="393.5,-575 138.5,-575 "/>
<path fill="none" stroke="black" d="M138.5,-575C132.5,-575 126.5,-569 126.5,-563"/>
<polyline fill="none" stroke="black" points="126.5,-563 126.5,-229 "/>
<path fill="none" stroke="black" d="M126.5,-229C126.5,-223 132.5,-217 138.5,-217"/>
<text text-anchor="middle" x="266" y="-558.4" font-family="Times Roman,serif" font-size="14.00">User</text>
<polyline fill="none" stroke="black" points="126.5,-549 405.5,-549 "/>
<text text-anchor="start" x="134.5" y="-532.4" font-family="Times Roman,serif" font-size="14.00">id :integer</text>
<text text-anchor="start" x="134.5" y="-514.4" font-family="Times Roman,serif" font-size="14.00">name :string</text>
<text text-anchor="start" x="134.5" y="-496.4" font-family="Times Roman,serif" font-size="14.00">email :string</text>
<text text-anchor="start" x="134.5" y="-478.4" font-family="Times Roman,serif" font-size="14.00">password_digest :string</text>
<text text-anchor="start" x="134.5" y="-460.4" font-family="Times Roman,serif" font-size="14.00">address :string</text>
<text text-anchor="start" x="134.5" y="-442.4" font-family="Times Roman,serif" font-size="14.00">phone :string</text>
<text text-anchor="start" x="134.5" y="-424.4" font-family="Times Roman,serif" font-size="14.00">emergency_contact_name :string</text>
<text text-anchor="start" x="134.5" y="-406.4" font-family="Times Roman,serif" font-size="14.00">emergency_contact_phone :string</text>
<text text-anchor="start" x="134.5" y="-388.4" font-family="Times Roman,serif" font-size="14.00">remember_digest :string</text>
<text text-anchor="start" x="134.5" y="-370.4" font-family="Times Roman,serif" font-size="14.00">activation_digest :string</text>
<text text-anchor="start" x="134.5" y="-352.4" font-family="Times Roman,serif" font-size="14.00">reset_digest :string</text>
<text text-anchor="start" x="134.5" y="-334.4" font-family="Times Roman,serif" font-size="14.00">activated_at :datetime</text>
<text text-anchor="start" x="134.5" y="-316.4" font-family="Times Roman,serif" font-size="14.00">reset_sent_at :datetime</text>
<text text-anchor="start" x="134.5" y="-298.4" font-family="Times Roman,serif" font-size="14.00">activated :boolean</text>
<text text-anchor="start" x="134.5" y="-280.4" font-family="Times Roman,serif" font-size="14.00">admin :boolean</text>
<text text-anchor="start" x="134.5" y="-262.4" font-family="Times Roman,serif" font-size="14.00">event_register_email_notify :datetime</text>
<text text-anchor="start" x="134.5" y="-244.4" font-family="Times Roman,serif" font-size="14.00">created_at :datetime</text>
<text text-anchor="start" x="134.5" y="-226.4" font-family="Times Roman,serif" font-size="14.00">updated_at :datetime</text>
</g>
<!-- Event&#45;&gt;User -->
<g id="edge4" class="edge"><title>Event&#45;&gt;User</title>
<path fill="none" stroke="#20ec57" d="M324.474,-602.746C322.864,-597.055 321.216,-591.229 319.542,-585.308"/>
<polygon fill="#20ec57" stroke="#20ec57" points="324.547,-603.005 322.938,-613.852 325.908,-607.816 327.268,-612.628 327.268,-612.628 327.268,-612.628 325.908,-607.816 331.599,-611.403 324.547,-603.005 324.547,-603.005"/>
<polygon fill="#20ec57" stroke="#20ec57" points="319.422,-584.885 321.031,-574.038 318.061,-580.074 316.701,-575.263 316.701,-575.263 316.701,-575.263 318.061,-580.074 312.37,-576.488 319.422,-584.885 319.422,-584.885"/>
</g>
<!-- TimeSlot -->
<g id="node5" class="node"><title>TimeSlot</title>
<polyline fill="none" stroke="black" points="257,-1 441,-1 "/>
<path fill="none" stroke="black" d="M441,-1C447,-1 453,-7 453,-13"/>
<polyline fill="none" stroke="black" points="453,-13 453,-167 "/>
<path fill="none" stroke="black" d="M453,-167C453,-173 447,-179 441,-179"/>
<polyline fill="none" stroke="black" points="441,-179 257,-179 "/>
<path fill="none" stroke="black" d="M257,-179C251,-179 245,-173 245,-167"/>
<polyline fill="none" stroke="black" points="245,-167 245,-13 "/>
<path fill="none" stroke="black" d="M245,-13C245,-7 251,-1 257,-1"/>
<text text-anchor="middle" x="349" y="-162.4" font-family="Times Roman,serif" font-size="14.00">TimeSlot</text>
<polyline fill="none" stroke="black" points="245,-153 453,-153 "/>
<text text-anchor="start" x="253" y="-136.4" font-family="Times Roman,serif" font-size="14.00">id :integer</text>
<text text-anchor="start" x="253" y="-118.4" font-family="Times Roman,serif" font-size="14.00">start_time :datetime</text>
<text text-anchor="start" x="253" y="-100.4" font-family="Times Roman,serif" font-size="14.00">end_time :datetime</text>
<text text-anchor="start" x="253" y="-82.4" font-family="Times Roman,serif" font-size="14.00">total_capacity :integer</text>
<text text-anchor="start" x="253" y="-64.4" font-family="Times Roman,serif" font-size="14.00">remaining_capacity :integer</text>
<text text-anchor="start" x="253" y="-46.4" font-family="Times Roman,serif" font-size="14.00">event_id :integer</text>
<text text-anchor="start" x="253" y="-28.4" font-family="Times Roman,serif" font-size="14.00">created_at :datetime</text>
<text text-anchor="start" x="253" y="-10.4" font-family="Times Roman,serif" font-size="14.00">updated_at :datetime</text>
</g>
<!-- Event&#45;&gt;TimeSlot -->
<g id="edge2" class="edge"><title>Event&#45;&gt;TimeSlot</title>
<path fill="none" stroke="#232be3" d="M403.836,-605.373C407.958,-595.726 411.487,-585.831 414,-576 453.627,-420.985 451.742,-371.485 414,-216 411.781,-206.857 408.775,-197.636 405.267,-188.563"/>
<ellipse fill="none" stroke="#232be3" cx="402.201" cy="-609.044" rx="4.00002" ry="4.00002"/>
<polygon fill="#232be3" stroke="#232be3" points="405.214,-188.433 405.61,-177.474 403.328,-183.802 401.442,-179.171 401.442,-179.171 401.442,-179.171 403.328,-183.802 397.275,-180.869 405.214,-188.433 405.214,-188.433"/>
</g>
<!-- Article -->
<g id="node3" class="node"><title>Article</title>
<polyline fill="none" stroke="black" points="461.5,-640 602.5,-640 "/>
<path fill="none" stroke="black" d="M602.5,-640C608.5,-640 614.5,-646 614.5,-652"/>
<polyline fill="none" stroke="black" points="614.5,-652 614.5,-734 "/>
<path fill="none" stroke="black" d="M614.5,-734C614.5,-740 608.5,-746 602.5,-746"/>
<polyline fill="none" stroke="black" points="602.5,-746 461.5,-746 "/>
<path fill="none" stroke="black" d="M461.5,-746C455.5,-746 449.5,-740 449.5,-734"/>
<polyline fill="none" stroke="black" points="449.5,-734 449.5,-652 "/>
<path fill="none" stroke="black" d="M449.5,-652C449.5,-646 455.5,-640 461.5,-640"/>
<text text-anchor="middle" x="532" y="-729.4" font-family="Times Roman,serif" font-size="14.00">Article</text>
<polyline fill="none" stroke="black" points="449.5,-720 614.5,-720 "/>
<text text-anchor="start" x="457.5" y="-703.4" font-family="Times Roman,serif" font-size="14.00">id :integer</text>
<text text-anchor="start" x="457.5" y="-685.4" font-family="Times Roman,serif" font-size="14.00">text :text</text>
<text text-anchor="start" x="457.5" y="-667.4" font-family="Times Roman,serif" font-size="14.00">created_at :datetime</text>
<text text-anchor="start" x="457.5" y="-649.4" font-family="Times Roman,serif" font-size="14.00">updated_at :datetime</text>
</g>
<!-- User&#45;&gt;TimeSlot -->
<g id="edge6" class="edge"><title>User&#45;&gt;TimeSlot</title>
<path fill="none" stroke="#9b58bb" d="M317.335,-206.741C318.98,-200.676 320.603,-194.692 322.193,-188.83"/>
<polygon fill="#9b58bb" stroke="#9b58bb" points="317.259,-207.019 310.299,-215.493 315.951,-211.845 314.642,-216.671 314.642,-216.671 314.642,-216.671 315.951,-211.845 318.985,-217.849 317.259,-207.019 317.259,-207.019"/>
<polygon fill="#9b58bb" stroke="#9b58bb" points="322.218,-188.738 329.179,-180.265 323.527,-183.912 324.836,-179.087 324.836,-179.087 324.836,-179.087 323.527,-183.912 320.493,-177.909 322.218,-188.738 322.218,-188.738"/>
</g>
</g>
</svg>
