<?xml version="1.0" encoding="UTF-8" standalone="no"?>
<!DOCTYPE svg PUBLIC "-//W3C//DTD SVG 1.1//EN"
 "http://www.w3.org/Graphics/SVG/1.1/DTD/svg11.dtd">
<!-- Generated by graphviz version 2.26.3 (20100126.1600)
 -->
<!-- Title: models_diagram Pages: 1 -->
<svg width="364pt" height="250pt"
 viewBox="0.00 0.00 364.00 250.00" xmlns="http://www.w3.org/2000/svg" xmlns:xlink="http://www.w3.org/1999/xlink">
<g id="graph1" class="graph" transform="scale(1 1) rotate(0) translate(4 246)">
<title>models_diagram</title>
<polygon fill="white" stroke="white" points="-4,5 -4,-246 361,-246 361,5 -4,5"/>
<!-- _diagram_info -->
<g id="node1" class="node"><title>_diagram_info</title>
<text text-anchor="start" x="8" y="-225.8" font-family="Times Roman,serif" font-size="13.00">Models diagram</text>
<text text-anchor="start" x="8" y="-208.8" font-family="Times Roman,serif" font-size="13.00">Date: Apr 05 2015 &#45; 17:40</text>
<text text-anchor="start" x="8" y="-191.8" font-family="Times Roman,serif" font-size="13.00">Migration version: 20141210013805</text>
<text text-anchor="start" x="8" y="-174.8" font-family="Times Roman,serif" font-size="13.00">Generated by RailRoady 1.3.0</text>
<text text-anchor="start" x="8" y="-157.8" font-family="Times Roman,serif" font-size="13.00">http://railroady.prestonlee.com</text>
</g>
<!-- Event -->
<g id="node2" class="node"><title>Event</title>
<ellipse fill="none" stroke="black" cx="268" cy="-93" rx="39.8075" ry="18.3848"/>
<text text-anchor="middle" x="268" y="-89.4" font-family="Times Roman,serif" font-size="14.00">Event</text>
</g>
<!-- TimeSlot -->
<g id="node4" class="node"><title>TimeSlot</title>
<ellipse fill="none" stroke="black" cx="302" cy="-19" rx="53.9477" ry="18.3848"/>
<text text-anchor="middle" x="302" y="-15.4" font-family="Times Roman,serif" font-size="14.00">TimeSlot</text>
</g>
<!-- Event&#45;&gt;TimeSlot -->
<g id="edge2" class="edge"><title>Event&#45;&gt;TimeSlot</title>
<path fill="none" stroke="#4d81b0" d="M279.75,-67.427C282.806,-60.7756 286.113,-53.5779 289.219,-46.8169"/>
<ellipse fill="none" stroke="#4d81b0" cx="278.075" cy="-71.0731" rx="4.00002" ry="4.00002"/>
<polygon fill="#4d81b0" stroke="#4d81b0" points="289.399,-46.4249 297.663,-39.2169 291.487,-41.8816 293.574,-37.3382 293.574,-37.3382 293.574,-37.3382 291.487,-41.8816 289.485,-35.4594 289.399,-46.4249 289.399,-46.4249"/>
</g>
<!-- User -->
<g id="node3" class="node"><title>User</title>
<ellipse fill="none" stroke="black" cx="302" cy="-195" rx="33.9411" ry="18.3848"/>
<text text-anchor="middle" x="302" y="-191.4" font-family="Times Roman,serif" font-size="14.00">User</text>
</g>
<!-- User&#45;&gt;Event -->
<g id="edge6" class="edge"><title>User&#45;&gt;Event</title>
<path fill="none" stroke="#201568" d="M292.656,-166.969C287.908,-152.725 282.153,-135.46 277.398,-121.194"/>
<polygon fill="#201568" stroke="#201568" points="292.759,-167.278 291.652,-178.187 294.34,-172.021 295.921,-176.764 295.921,-176.764 295.921,-176.764 294.34,-172.021 300.191,-175.341 292.759,-167.278 292.759,-167.278"/>
<polygon fill="#201568" stroke="#201568" points="277.303,-120.908 278.41,-109.999 275.722,-116.165 274.141,-111.422 274.141,-111.422 274.141,-111.422 275.722,-116.165 269.871,-112.845 277.303,-120.908 277.303,-120.908"/>
</g>
<!-- User&#45;&gt;TimeSlot -->
<g id="edge4" class="edge"><title>User&#45;&gt;TimeSlot</title>
<path fill="none" stroke="#f641c1" d="M309.6,-166.802C315.232,-142.267 321.253,-105.759 317,-74 315.823,-65.2126 313.633,-55.8406 311.284,-47.3692"/>
<polygon fill="#f641c1" stroke="#f641c1" points="309.596,-166.817 302.867,-175.476 308.418,-171.677 307.241,-176.536 307.241,-176.536 307.241,-176.536 308.418,-171.677 311.614,-177.596 309.596,-166.817 309.596,-166.817"/>
<polygon fill="#f641c1" stroke="#f641c1" points="311.226,-47.1733 312.711,-36.3085 309.811,-42.3778 308.395,-37.5823 308.395,-37.5823 308.395,-37.5823 309.811,-42.3778 304.079,-38.856 311.226,-47.1733 311.226,-47.1733"/>
</g>
</g>
</svg>
