<?xml version="1.0" encoding="UTF-8" standalone="no"?>
<!DOCTYPE svg PUBLIC "-//W3C//DTD SVG 1.1//EN"
 "http://www.w3.org/Graphics/SVG/1.1/DTD/svg11.dtd">
<!-- Generated by graphviz version 2.26.3 (20100126.1600)
 -->
<!-- Title: models_diagram Pages: 1 -->
<svg width="622pt" height="962pt"
 viewBox="0.00 0.00 622.00 962.00" xmlns="http://www.w3.org/2000/svg" xmlns:xlink="http://www.w3.org/1999/xlink">
<g id="graph1" class="graph" transform="scale(1 1) rotate(0) translate(4 958)">
<title>models_diagram</title>
<polygon fill="white" stroke="white" points="-4,5 -4,-958 619,-958 619,5 -4,5"/>
<!-- _diagram_info -->
<g id="node1" class="node"><title>_diagram_info</title>
<text text-anchor="start" x="8" y="-903.8" font-family="Times Roman,serif" font-size="13.00">Models diagram</text>
<text text-anchor="start" x="8" y="-886.8" font-family="Times Roman,serif" font-size="13.00">Date: Apr 10 2015 &#45; 12:08</text>
<text text-anchor="start" x="8" y="-869.8" font-family="Times Roman,serif" font-size="13.00">Migration version: 20150409014248</text>
<text text-anchor="start" x="8" y="-852.8" font-family="Times Roman,serif" font-size="13.00">Generated by RailRoady 1.3.0</text>
<text text-anchor="start" x="8" y="-835.8" font-family="Times Roman,serif" font-size="13.00">http://railroady.prestonlee.com</text>
</g>
<!-- Event -->
<g id="node2" class="node"><title>Event</title>
<polyline fill="none" stroke="black" points="279.5,-793 420.5,-793 "/>
<path fill="none" stroke="black" d="M420.5,-793C426.5,-793 432.5,-799 432.5,-805"/>
<polyline fill="none" stroke="black" points="432.5,-805 432.5,-941 "/>
<path fill="none" stroke="black" d="M432.5,-941C432.5,-947 426.5,-953 420.5,-953"/>
<polyline fill="none" stroke="black" points="420.5,-953 279.5,-953 "/>
<path fill="none" stroke="black" d="M279.5,-953C273.5,-953 267.5,-947 267.5,-941"/>
<polyline fill="none" stroke="black" points="267.5,-941 267.5,-805 "/>
<path fill="none" stroke="black" d="M267.5,-805C267.5,-799 273.5,-793 279.5,-793"/>
<text text-anchor="middle" x="350" y="-936.4" font-family="Times Roman,serif" font-size="14.00">Event</text>
<polyline fill="none" stroke="black" points="267.5,-927 432.5,-927 "/>
<text text-anchor="start" x="275.5" y="-910.4" font-family="Times Roman,serif" font-size="14.00">id :integer</text>
<text text-anchor="start" x="275.5" y="-892.4" font-family="Times Roman,serif" font-size="14.00">title :string</text>
<text text-anchor="start" x="275.5" y="-874.4" font-family="Times Roman,serif" font-size="14.00">place :string</text>
<text text-anchor="start" x="275.5" y="-856.4" font-family="Times Roman,serif" font-size="14.00">description :text</text>
<text text-anchor="start" x="275.5" y="-838.4" font-family="Times Roman,serif" font-size="14.00">date :date</text>
<text text-anchor="start" x="275.5" y="-820.4" font-family="Times Roman,serif" font-size="14.00">created_at :datetime</text>
<text text-anchor="start" x="275.5" y="-802.4" font-family="Times Roman,serif" font-size="14.00">updated_at :datetime</text>
</g>
<!-- User -->
<g id="node5" class="node"><title>User</title>
<polyline fill="none" stroke="black" points="138.5,-397 393.5,-397 "/>
<path fill="none" stroke="black" d="M393.5,-397C399.5,-397 405.5,-403 405.5,-409"/>
<polyline fill="none" stroke="black" points="405.5,-409 405.5,-743 "/>
<path fill="none" stroke="black" d="M405.5,-743C405.5,-749 399.5,-755 393.5,-755"/>
<polyline fill="none" stroke="black" points="393.5,-755 138.5,-755 "/>
<path fill="none" stroke="black" d="M138.5,-755C132.5,-755 126.5,-749 126.5,-743"/>
<polyline fill="none" stroke="black" points="126.5,-743 126.5,-409 "/>
<path fill="none" stroke="black" d="M126.5,-409C126.5,-403 132.5,-397 138.5,-397"/>
<text text-anchor="middle" x="266" y="-738.4" font-family="Times Roman,serif" font-size="14.00">User</text>
<polyline fill="none" stroke="black" points="126.5,-729 405.5,-729 "/>
<text text-anchor="start" x="134.5" y="-712.4" font-family="Times Roman,serif" font-size="14.00">id :integer</text>
<text text-anchor="start" x="134.5" y="-694.4" font-family="Times Roman,serif" font-size="14.00">name :string</text>
<text text-anchor="start" x="134.5" y="-676.4" font-family="Times Roman,serif" font-size="14.00">email :string</text>
<text text-anchor="start" x="134.5" y="-658.4" font-family="Times Roman,serif" font-size="14.00">password_digest :string</text>
<text text-anchor="start" x="134.5" y="-640.4" font-family="Times Roman,serif" font-size="14.00">address :string</text>
<text text-anchor="start" x="134.5" y="-622.4" font-family="Times Roman,serif" font-size="14.00">phone :string</text>
<text text-anchor="start" x="134.5" y="-604.4" font-family="Times Roman,serif" font-size="14.00">emergency_contact_name :string</text>
<text text-anchor="start" x="134.5" y="-586.4" font-family="Times Roman,serif" font-size="14.00">emergency_contact_phone :string</text>
<text text-anchor="start" x="134.5" y="-568.4" font-family="Times Roman,serif" font-size="14.00">remember_digest :string</text>
<text text-anchor="start" x="134.5" y="-550.4" font-family="Times Roman,serif" font-size="14.00">activation_digest :string</text>
<text text-anchor="start" x="134.5" y="-532.4" font-family="Times Roman,serif" font-size="14.00">reset_digest :string</text>
<text text-anchor="start" x="134.5" y="-514.4" font-family="Times Roman,serif" font-size="14.00">activated_at :datetime</text>
<text text-anchor="start" x="134.5" y="-496.4" font-family="Times Roman,serif" font-size="14.00">reset_sent_at :datetime</text>
<text text-anchor="start" x="134.5" y="-478.4" font-family="Times Roman,serif" font-size="14.00">activated :boolean</text>
<text text-anchor="start" x="134.5" y="-460.4" font-family="Times Roman,serif" font-size="14.00">admin :boolean</text>
<text text-anchor="start" x="134.5" y="-442.4" font-family="Times Roman,serif" font-size="14.00">event_register_email_notify :datetime</text>
<text text-anchor="start" x="134.5" y="-424.4" font-family="Times Roman,serif" font-size="14.00">created_at :datetime</text>
<text text-anchor="start" x="134.5" y="-406.4" font-family="Times Roman,serif" font-size="14.00">updated_at :datetime</text>
</g>
<!-- Event&#45;&gt;User -->
<g id="edge4" class="edge"><title>Event&#45;&gt;User</title>
<path fill="none" stroke="#35a103" d="M324.474,-782.746C322.864,-777.055 321.216,-771.229 319.542,-765.308"/>
<polygon fill="#35a103" stroke="#35a103" points="324.547,-783.005 322.938,-793.852 325.908,-787.816 327.268,-792.628 327.268,-792.628 327.268,-792.628 325.908,-787.816 331.599,-791.403 324.547,-783.005 324.547,-783.005"/>
<polygon fill="#35a103" stroke="#35a103" points="319.422,-764.885 321.031,-754.038 318.061,-760.074 316.701,-755.263 316.701,-755.263 316.701,-755.263 318.061,-760.074 312.37,-756.488 319.422,-764.885 319.422,-764.885"/>
</g>
<!-- TimeSlot -->
<g id="node6" class="node"><title>TimeSlot</title>
<polyline fill="none" stroke="black" points="306,-181 490,-181 "/>
<path fill="none" stroke="black" d="M490,-181C496,-181 502,-187 502,-193"/>
<polyline fill="none" stroke="black" points="502,-193 502,-347 "/>
<path fill="none" stroke="black" d="M502,-347C502,-353 496,-359 490,-359"/>
<polyline fill="none" stroke="black" points="490,-359 306,-359 "/>
<path fill="none" stroke="black" d="M306,-359C300,-359 294,-353 294,-347"/>
<polyline fill="none" stroke="black" points="294,-347 294,-193 "/>
<path fill="none" stroke="black" d="M294,-193C294,-187 300,-181 306,-181"/>
<text text-anchor="middle" x="398" y="-342.4" font-family="Times Roman,serif" font-size="14.00">TimeSlot</text>
<polyline fill="none" stroke="black" points="294,-333 502,-333 "/>
<text text-anchor="start" x="302" y="-316.4" font-family="Times Roman,serif" font-size="14.00">id :integer</text>
<text text-anchor="start" x="302" y="-298.4" font-family="Times Roman,serif" font-size="14.00">start_time :datetime</text>
<text text-anchor="start" x="302" y="-280.4" font-family="Times Roman,serif" font-size="14.00">end_time :datetime</text>
<text text-anchor="start" x="302" y="-262.4" font-family="Times Roman,serif" font-size="14.00">total_capacity :integer</text>
<text text-anchor="start" x="302" y="-244.4" font-family="Times Roman,serif" font-size="14.00">remaining_capacity :integer</text>
<text text-anchor="start" x="302" y="-226.4" font-family="Times Roman,serif" font-size="14.00">event_id :integer</text>
<text text-anchor="start" x="302" y="-208.4" font-family="Times Roman,serif" font-size="14.00">created_at :datetime</text>
<text text-anchor="start" x="302" y="-190.4" font-family="Times Roman,serif" font-size="14.00">updated_at :datetime</text>
</g>
<!-- Event&#45;&gt;TimeSlot -->
<g id="edge2" class="edge"><title>Event&#45;&gt;TimeSlot</title>
<path fill="none" stroke="#dfdcf2" d="M403.836,-785.373C407.958,-775.726 411.487,-765.831 414,-756 447.353,-625.526 432.927,-468.947 417.316,-369.459"/>
<ellipse fill="none" stroke="#dfdcf2" cx="402.201" cy="-789.044" rx="4.00002" ry="4.00002"/>
<polygon fill="#dfdcf2" stroke="#dfdcf2" points="417.289,-369.287 420.149,-358.701 416.497,-364.351 415.705,-359.414 415.705,-359.414 415.705,-359.414 416.497,-364.351 411.262,-360.126 417.289,-369.287 417.289,-369.287"/>
</g>
<!-- Article -->
<g id="node3" class="node"><title>Article</title>
<polyline fill="none" stroke="black" points="461.5,-820 602.5,-820 "/>
<path fill="none" stroke="black" d="M602.5,-820C608.5,-820 614.5,-826 614.5,-832"/>
<polyline fill="none" stroke="black" points="614.5,-832 614.5,-914 "/>
<path fill="none" stroke="black" d="M614.5,-914C614.5,-920 608.5,-926 602.5,-926"/>
<polyline fill="none" stroke="black" points="602.5,-926 461.5,-926 "/>
<path fill="none" stroke="black" d="M461.5,-926C455.5,-926 449.5,-920 449.5,-914"/>
<polyline fill="none" stroke="black" points="449.5,-914 449.5,-832 "/>
<path fill="none" stroke="black" d="M449.5,-832C449.5,-826 455.5,-820 461.5,-820"/>
<text text-anchor="middle" x="532" y="-909.4" font-family="Times Roman,serif" font-size="14.00">Article</text>
<polyline fill="none" stroke="black" points="449.5,-900 614.5,-900 "/>
<text text-anchor="start" x="457.5" y="-883.4" font-family="Times Roman,serif" font-size="14.00">id :integer</text>
<text text-anchor="start" x="457.5" y="-865.4" font-family="Times Roman,serif" font-size="14.00">text :text</text>
<text text-anchor="start" x="457.5" y="-847.4" font-family="Times Roman,serif" font-size="14.00">created_at :datetime</text>
<text text-anchor="start" x="457.5" y="-829.4" font-family="Times Roman,serif" font-size="14.00">updated_at :datetime</text>
</g>
<!-- Appointment -->
<g id="node4" class="node"><title>Appointment</title>
<polyline fill="none" stroke="black" points="261.5,-1 402.5,-1 "/>
<path fill="none" stroke="black" d="M402.5,-1C408.5,-1 414.5,-7 414.5,-13"/>
<polyline fill="none" stroke="black" points="414.5,-13 414.5,-131 "/>
<path fill="none" stroke="black" d="M414.5,-131C414.5,-137 408.5,-143 402.5,-143"/>
<polyline fill="none" stroke="black" points="402.5,-143 261.5,-143 "/>
<path fill="none" stroke="black" d="M261.5,-143C255.5,-143 249.5,-137 249.5,-131"/>
<polyline fill="none" stroke="black" points="249.5,-131 249.5,-13 "/>
<path fill="none" stroke="black" d="M249.5,-13C249.5,-7 255.5,-1 261.5,-1"/>
<text text-anchor="middle" x="332" y="-126.4" font-family="Times Roman,serif" font-size="14.00">Appointment</text>
<polyline fill="none" stroke="black" points="249.5,-117 414.5,-117 "/>
<text text-anchor="start" x="257.5" y="-100.4" font-family="Times Roman,serif" font-size="14.00">id :integer</text>
<text text-anchor="start" x="257.5" y="-82.4" font-family="Times Roman,serif" font-size="14.00">user_id :integer</text>
<text text-anchor="start" x="257.5" y="-64.4" font-family="Times Roman,serif" font-size="14.00">time_slot_id :integer</text>
<text text-anchor="start" x="257.5" y="-46.4" font-family="Times Roman,serif" font-size="14.00">is_checkedin :boolean</text>
<text text-anchor="start" x="257.5" y="-28.4" font-family="Times Roman,serif" font-size="14.00">created_at :datetime</text>
<text text-anchor="start" x="257.5" y="-10.4" font-family="Times Roman,serif" font-size="14.00">updated_at :datetime</text>
</g>
<!-- User&#45;&gt;Appointment -->
<g id="edge6" class="edge"><title>User&#45;&gt;Appointment</title>
<path fill="none" stroke="#ede11f" d="M261.15,-388.614C263.05,-322.023 269.372,-246.987 285,-180 287.121,-170.91 289.979,-161.629 293.245,-152.513"/>
<ellipse fill="none" stroke="#ede11f" cx="261.044" cy="-392.693" rx="4" ry="4"/>
<polygon fill="#ede11f" stroke="#ede11f" points="293.269,-152.45 300.995,-144.669 295.025,-147.769 296.782,-143.087 296.782,-143.087 296.782,-143.087 295.025,-147.769 292.569,-141.506 293.269,-152.45 293.269,-152.45"/>
</g>
<!-- User&#45;&gt;TimeSlot -->
<g id="edge8" class="edge"><title>User&#45;&gt;TimeSlot</title>
<path fill="none" stroke="#38143b" d="M347.383,-387.339C350.122,-380.99 352.823,-374.728 355.467,-368.6"/>
<polygon fill="#38143b" stroke="#38143b" points="347.319,-387.489 339.226,-394.888 345.338,-392.08 343.358,-396.671 343.358,-396.671 343.358,-396.671 345.338,-392.08 347.49,-398.453 347.319,-387.489 347.319,-387.489"/>
<polygon fill="#38143b" stroke="#38143b" points="355.609,-368.269 363.702,-360.869 357.59,-363.678 359.57,-359.087 359.57,-359.087 359.57,-359.087 357.59,-363.678 355.438,-357.304 355.609,-368.269 355.609,-368.269"/>
</g>
<!-- TimeSlot&#45;&gt;Appointment -->
<g id="edge10" class="edge"><title>TimeSlot&#45;&gt;Appointment</title>
<path fill="none" stroke="#051d44" d="M365.711,-173.134C363.448,-166.345 361.181,-159.544 358.952,-152.857"/>
<ellipse fill="none" stroke="#051d44" cx="367.017" cy="-177.052" rx="4.00001" ry="4.00001"/>
<polygon fill="#051d44" stroke="#051d44" points="358.881,-152.643 359.988,-141.733 357.3,-147.899 355.719,-143.156 355.719,-143.156 355.719,-143.156 357.3,-147.899 351.45,-144.579 358.881,-152.643 358.881,-152.643"/>
</g>
</g>
</svg>
